<svg xmlns="http://www.w3.org/2000/svg" width="52" height="52" viewBox="0 0 52 52">
    <defs>
        <style>
            .cls-1{fill:#fff}.cls-2{fill:#b68f2a}.cls-3{clip-path:url(#clip-path)}
        </style>
        <clipPath id="clip-path">
            <path id="Rectangle_472" d="M0 0h22.998v23H0z" class="cls-1" data-name="Rectangle 472"/>
        </clipPath>
    </defs>
    <g id="Group_3790" data-name="Group 3790" transform="translate(-956 -549)">
        <circle id="Ellipse_14" cx="26" cy="26" r="26" class="cls-2" data-name="Ellipse 14" transform="translate(956 549)"/>
        <g id="Group_3789" data-name="Group 3789" transform="translate(897 399)">
            <g id="Group_3788" data-name="Group 3788" transform="translate(74 165)">
                <g id="Group_3787" class="cls-3" data-name="Group 3787">
                    <path id="Path_9892" d="M96.963 183.12a1.111 1.111 0 0 1-.341.973l-3.235 3.21a1.823 1.823 0 0 1-.571.413 2.364 2.364 0 0 1-.693.219q-.024 0-.146.012t-.316.012a11.227 11.227 0 0 1-1.5-.158 11.347 11.347 0 0 1-2.529-.778 21.251 21.251 0 0 1-3.393-1.861 25.309 25.309 0 0 1-4.037-3.4 26.664 26.664 0 0 1-2.821-3.211 22.866 22.866 0 0 1-1.8-2.833 15.236 15.236 0 0 1-1.021-2.359 12.51 12.51 0 0 1-.462-1.824 6.014 6.014 0 0 1-.1-1.2q.024-.438.024-.486a2.363 2.363 0 0 1 .219-.693 1.82 1.82 0 0 1 .414-.571l3.235-3.235a1.071 1.071 0 0 1 .778-.341.906.906 0 0 1 .559.182 1.692 1.692 0 0 1 .414.45l2.6 4.937a1.184 1.184 0 0 1 .122.851 1.514 1.514 0 0 1-.414.778l-1.192 1.192a.407.407 0 0 0-.085.158.6.6 0 0 0-.037.182 4.386 4.386 0 0 0 .438 1.167 10.723 10.723 0 0 0 .9 1.423 15.8 15.8 0 0 0 1.727 1.934 16.1 16.1 0 0 0 1.946 1.739 11.231 11.231 0 0 0 1.423.912 3.792 3.792 0 0 0 .876.353l.3.061a.582.582 0 0 0 .158-.036.4.4 0 0 0 .158-.085l1.386-1.411a1.49 1.49 0 0 1 1.021-.389 1.272 1.272 0 0 1 .657.146h.024l4.694 2.773a1.224 1.224 0 0 1 .608.8zm0 0" class="cls-1" data-name="Path 9892" transform="translate(-74 -165)"/>
                </g>
            </g>
        </g>
    </g>
</svg>
