<svg xmlns="http://www.w3.org/2000/svg" width="32" height="45" viewBox="0 0 32 45">
    <defs>
        <style>
            .cls-1{fill:rgba(0,0,0,.7)}.cls-2{fill:#fff}
        </style>
    </defs>
    <g id="Group_3347" data-name="Group 3347" transform="translate(-498 -400)">
        <path id="Rectangle_168" d="M0 0h32v45H0z" class="cls-1" data-name="Rectangle 168" transform="translate(498 400)"/>
        <path id="Path_9498" d="M12.631 15.856a1.223 1.223 0 0 1-.574-.142L8.4 13.788a.255.255 0 0 0-.23 0l-3.664 1.925a1.234 1.234 0 0 1-1.79-1.3l.7-4.077a.256.256 0 0 0-.069-.219L.381 7.23a1.235 1.235 0 0 1 .687-2.1l4.092-.6a.247.247 0 0 0 .186-.13L7.177.687a1.233 1.233 0 0 1 2.21 0l1.83 3.713a.247.247 0 0 0 .186.135l4.092.6a1.235 1.235 0 0 1 .687 2.1l-2.963 2.886a.245.245 0 0 0-.069.219l.7 4.077a1.227 1.227 0 0 1-.49 1.206 1.243 1.243 0 0 1-.729.233zM8.28 12.772a1.223 1.223 0 0 1 .574.142l3.661 1.925a.239.239 0 0 0 .259-.018.244.244 0 0 0 .1-.241l-.7-4.077a1.238 1.238 0 0 1 .354-1.092l2.963-2.886a.246.246 0 0 0-.139-.42l-4.092-.6a1.229 1.229 0 0 1-.928-.676L8.5 1.125a.248.248 0 0 0-.446 0L6.227 4.833a1.229 1.229 0 0 1-.928.676L1.207 6.1a.245.245 0 0 0-.2.168.239.239 0 0 0 .062.252l2.962 2.888a1.228 1.228 0 0 1 .354 1.092l-.7 4.077a.244.244 0 0 0 .1.241.241.241 0 0 0 .259.018l3.661-1.925a1.265 1.265 0 0 1 .575-.139z" class="cls-2" data-name="Path 9498" transform="translate(505.991 415)"/>
    </g>
</svg>
