<svg xmlns="http://www.w3.org/2000/svg" width="154.818" height="82" viewBox="0 0 154.818 82">
    <g data-name="Group 3335">
        <path d="M108.244 23.926c1.505.695 3.126-.695 3.126-2.315a2.514 2.514 0 0 0-3.126-2.084c-2.199.81-1.852 3.473 0 4.399z" data-name="Path 9437"/>
        <path d="M104.076 10.612a2.577 2.577 0 0 0 1.507.581 1.8 1.8 0 0 0 2.2-1.505c.232-1.5-1.852-2.778-3.242-2.2a1.972 1.972 0 0 0-.463 3.126z" data-name="Path 9438"/>
        <path d="M102.456 14.896c1.389 1.273 3.01.232 3.357-1.389.347-1.852-1.852-2.547-3.242-1.852a2.007 2.007 0 0 0-.116 3.242z" data-name="Path 9439"/>
        <path d="M111.602 20.453c1.389 1.158 3.82 0 2.894-1.852a2.556 2.556 0 0 0-1.621-1.273c-1.737-.347-2.663 2.084-1.273 3.126z" data-name="Path 9440"/>
        <path d="M109.055 35.155a1.252 1.252 0 0 0-1.042-1.968c-.926 0-1.273 1.158-.926 1.852.347.463 1.736.579 1.968.116z" data-name="Path 9441"/>
        <path d="M13.892 32.377l1.043 1.042c.116.926 1.505 1.737 2.084 2.315.232.232.579.347.81.579s.579.347.81.579c1.505 1.042 3.82 1.273 5.673 1.737.116.116.232.116.463.232a10.57 10.57 0 0 0 1.505.926 3.883 3.883 0 0 0 4.631-.926 5.055 5.055 0 0 0 1.158-1.737 13.508 13.508 0 0 0 .926 4.283 1.6 1.6 0 0 1-.347.463c-.81.579-.81 2.315-.926 3.242-.116 1.389-.232 2.778-.232 4.168a9.22 9.22 0 0 0 2.431 7.409 8.634 8.634 0 0 0 .81 1.389 10.272 10.272 0 0 1 1.389 4.862c.232.579-.926.347-1.389.463a12.092 12.092 0 0 0-4.283 1.273c-1.389.81-.579 2.431-.116 3.7.579.347.695 1.158 1.042 1.737a5.4 5.4 0 0 0 3.935 2.323 4.607 4.607 0 0 0 3.7-1.621c1.273-1.273 1.158-2.547.81-4.283a22.227 22.227 0 0 0-1.621-1.737 4.413 4.413 0 0 1 1.737.116 6.531 6.531 0 0 0 2.547-.116 28.741 28.741 0 0 1 7.062-.116.713.713 0 0 1 .463.81c-.347 1.852.579 3.82 1.042 5.673a5.152 5.152 0 0 0 1.389 2.431 20.119 20.119 0 0 0 6.715 5.788c.695.116.926.579 1.505 1.042.468.23.815.577 1.277.813.58.111 1.159.343 1.738.458 1.273.348 3.362.579 4.63-.347 1.158-.926 1.389-2.084 1.505-3.589a14.573 14.573 0 0 1 .464-3.122c1.505-2.2.347-5.21-.463-7.409a5.485 5.485 0 0 0-1.389-2.2v-.232c0-.347-.579-.695-.81-.926a12.3 12.3 0 0 0-1.275-1.045c.116-.232.116-.347.232-.463.695-1.505 0-3.01-.926-4.168a5.646 5.646 0 0 1-.347-.81 1.717 1.717 0 0 1 .81-.116 3.425 3.425 0 0 0 1.158-.232 1.885 1.885 0 0 0 .347.695c.579.347.695 1.621.81 2.2a6.639 6.639 0 0 1 1.158 2.2 16.4 16.4 0 0 0 .926 2.084c.232.116.463.347.695.463l.232.463a1.6 1.6 0 0 0 1.505 1.157 3.328 3.328 0 0 0 2.084.81 13.8 13.8 0 0 1 2.316.929 8.422 8.422 0 0 0 2.431.695 3.561 3.561 0 0 0 1.621 0 5.865 5.865 0 0 1 1.5-.232 7.546 7.546 0 0 0 1.852-.347 5.744 5.744 0 0 1 1.5-.347c1.389 0 2.894-1.273 4.168-1.852a4.112 4.112 0 0 1 1.042-.463 4.835 4.835 0 0 0 1.737-1.273 1.671 1.671 0 0 0 .463 2.2c.695.579 2.431.232 2.663-.695.347-1.389-1.505-2.778-2.663-1.968.116-.232.347-.347.463-.579 1.042-1.273 1.042-2.894.926-4.515a3.4 3.4 0 0 0 1.158-.347c.579-.232 1.042-.463 1.621-.695a6.566 6.566 0 0 0 3.242-3.589c.463-.926.81-1.5 1.968-1.158a6.665 6.665 0 0 0 5.557-.81 5.869 5.869 0 0 0 2.315-3.242c.695-2.547-.463-5.325-1.737-7.525l-.116-.116a1.156 1.156 0 0 1-.579-.463c-1.5-1.158-4.283-.579-5.673.579a2.807 2.807 0 0 1-1.158.695c-.81.347-1.5 1.621-2.2 2.315-.81.463-1.852-.579-2.547-.926a14.007 14.007 0 0 0 2.315-2.2c1.273-2.2.463-4.515-.463-6.483-.463-.347-1.042-.81-1.505-1.158-2.315-.695-4.283-.81-6.02 1.042-1.042 1.042-1.042 2.2-1.389 3.473a2.931 2.931 0 0 0 .232 1.968 9.93 9.93 0 0 1 1.514 2.316c.347.81-1.389 1.621-2.084 1.737a3.036 3.036 0 0 0-.926.695 5.035 5.035 0 0 0-.81-.695c-.81-.695-1.621-1.389-2.431-1.968-2.315-1.621-5.673-1.273-8.335-1.505h-.695c.116-.116.232-.116.232-.232 1.158-.81-.232-2.894-.347-3.82a18.135 18.135 0 0 0-.926-3.589 5.744 5.744 0 0 1-.347-1.5 2.972 2.972 0 0 0-.81-2.084.7.7 0 0 1-.347-.695 4.99 4.99 0 0 0-1.512-1.976 6.243 6.243 0 0 1-1.042-2.547c-.116-.81-.347-1.389-1.158-1.621a4.215 4.215 0 0 1-2.2-4.862 1.227 1.227 0 0 0-.347-1.505c-1.042-.695-1.158-1.5-1.852-2.315a5.871 5.871 0 0 1-1.042-1.852c-.232-.695-.926-.81-1.505-1.158-1.158-.695-.695-2.663-.926-3.82a5.039 5.039 0 0 0-3.357-3.126c-1.852-.463-4.747.81-5.21 2.778a1.994 1.994 0 0 1-1.158 1.389c-.463.232.116 1.158.347 1.273.695.579.347 1.737.232 2.547-.232 1.389-1.5 1.273-2.663 1.158a4.53 4.53 0 0 0-3.357 1.273 7.638 7.638 0 0 1-3.126 1.389c-2.315.347-3.936 2.2-5.788 3.589a28.214 28.214 0 0 1-1.621 3.242l-.232.116a1.879 1.879 0 0 0-.579 1.042c-1.5 1.621-1.852 3.473-2.315 5.673a24.17 24.17 0 0 1-.463 1.505 9.658 9.658 0 0 0-.695 4.052v-.116a4.943 4.943 0 0 1-.116-2.894 11.249 11.249 0 0 0 0-4.4 12 12 0 0 0-2.315-5.094 19.068 19.068 0 0 0-2.778-2.547c-1.273-1.042-3.01-2.315-4.631-2.431-1.737-.116-4.168-.232-5.557.926-.347.347-.579.463-.81.463-2.778.926-2.547 4.168-3.589 6.483-.926 2.2.463 3.936 1.389 5.9-.111.468.121.815.121 1.163z" data-name="Path 9442"/>
        <path d="M83.238 16.169c-.463 1.273.232 2.663.463 3.936a4.126 4.126 0 0 0 1.621 3.01 7.63 7.63 0 0 0 2.778 1.273 9.025 9.025 0 0 0 6.252-.695c1.621-.695 2.663-2.547 3.357-3.936.81-2.663.232-4.631-.926-7.062a4.32 4.32 0 0 1 .116-2.084c.463-2.2.695-4.747-.579-6.6a4.061 4.061 0 0 1-.579-.926c-.81-1.621-2.894-2.431-4.515-2.894-2.431-.579-4.168.232-6.367 1.273a6.435 6.435 0 0 0-2.547 2.431 6.109 6.109 0 0 0-.926 2.547 7.19 7.19 0 0 0 .81 6.136 3.587 3.587 0 0 1 1.042 3.591z" data-name="Path 9443"/>
        <path d="M-.001 58.54c0 1.5 1.968 1.5 3.126 1.621.579-.232.926.116 1.389.579.579 0 .81.463 1.273.81a9.824 9.824 0 0 0 3.01 1.273l1.389.347h1.389l1.389-.347a6.644 6.644 0 0 0 2.663-1.737 2.646 2.646 0 0 0 .81-1.158 4.2 4.2 0 0 1 .347-.81c.695-1.158.463-3.126.232-4.4a7.688 7.688 0 0 0-2.084-3.936c-.116-.695-1.389-1.389-1.852-1.852a4.462 4.462 0 0 0-2.084-.695c-1.852-1.158-4.052-.579-6.136-.232a10.013 10.013 0 0 0-1.158.81 1.88 1.88 0 0 1-1.042.579c-1.621.695-1.621 1.737-1.389 3.357a28.386 28.386 0 0 0 .232 3.126 1.34 1.34 0 0 1-.579.81 2.417 2.417 0 0 0-.925 1.855z" data-name="Path 9444"/>
        <path d="M117.275 39.436c.463.116 1.042.347 1.389.463 1.389.695 2.315-.232 3.589-.463a3.32 3.32 0 0 0 2.315-1.273 17.017 17.017 0 0 0 1.158-1.5c.232-.347.579-.232 1.042-.232a2.226 2.226 0 0 0 2.315-2.2 2.07 2.07 0 0 0-2.315-2.084c-.926 0-1.273-.695-1.852-1.389a16.107 16.107 0 0 0-4.4-2.894c-.695-.347-1.273 0-1.852.463a2.86 2.86 0 0 1-1.042.463 5.478 5.478 0 0 0-3.239 3.702c-.582 2.431 0 6.136 2.892 6.944z" data-name="Path 9445"/>
        <path d="M103.96 63.288c-1.621-1.273-3.357-.463-4.978.232s-1.849 3.356-1.389 4.63a5.237 5.237 0 0 0 2.547 2.894 6.41 6.41 0 0 0 4.168.116 3.973 3.973 0 0 0 2.315-4.4 6.6 6.6 0 0 0-2.663-3.472z" data-name="Path 9446"/>
        <path d="M148.879 24.851a4.053 4.053 0 0 0 4.747-.926 4.183 4.183 0 0 0 .579-5.094c-1.042-1.737-3.589-1.852-5.325-1.389s-2.316 1.737-2.664 3.361c-.578 1.964 1.042 3.354 2.663 4.048z" data-name="Path 9447"/>
        <path d="M4.165 37.934a4.107 4.107 0 0 0 1.505.347c1.158 0 2.778-.463 3.126-1.737a5.644 5.644 0 0 1 .347-.81 2.884 2.884 0 0 0-.463-2.547c-.232-.232-.463-.579-.695-.81a4.7 4.7 0 0 0-2.2-.463c-1.621 0-2.2.695-3.01 1.968-1.042 1.5.463 2.315.926 3.589.004.115.119.231.464.463z" data-name="Path 9448"/>
        <path d="M143.554 52.752c1.158.926 2.778.347 3.82-.463a2.837 2.837 0 0 0-.232-4.172c-1.042-.81-3.357-.926-4.052.463a2.525 2.525 0 0 1-.463.579 2.9 2.9 0 0 0-.579 2.2c.235.583.927.93 1.506 1.393z" data-name="Path 9449"/>
        <path d="M123.988 5.518c1.621.695 4.978-.232 4.052-2.547a2.643 2.643 0 0 0-3.473-1.505c-1.736.583-2.547 3.242-.579 4.052z" data-name="Path 9450"/>
        <path d="M133.597 10.844l1.042.35c1.389.232 2.894-1.621 2.084-2.894-.695-1.158-1.968-1.273-3.242-.81-.81.923-1.505 2.659.116 3.354z" data-name="Path 9451"/>
        <path d="M76.061 24.041l.579.232c1.621 0 2.547-2.431.926-3.126-1.737-.81-3.705 2.316-1.505 2.894z" data-name="Path 9452"/>
        <path d="M21.302 50.671a1.5 1.5 0 0 0 .926 1.389c1.273.463 2.894-.81 2.2-2.084a1.706 1.706 0 0 0-3.126.695z" data-name="Path 9453"/>
        <path d="M107.433 68.497c-1.042.463-.232 1.852.579 2.2 1.042.463 2.663-.579 1.968-1.737-.577-.926-1.505-.926-2.547-.463z" data-name="Path 9454"/>
        <path d="M7.872 21.726c-.695-.579-1.5.347-.81.81.463.463 1.389-.231.81-.81z" data-name="Path 9455"/>
        <path d="M133.366 61.319a.556.556 0 0 0 1.042-.232c0-.929-1.389-.463-1.042.232z" data-name="Path 9456"/>
    </g>
</svg>
