<svg xmlns="http://www.w3.org/2000/svg" width="161.604" height="96.498" viewBox="0 0 161.604 96.498">
    <defs>
        <style>
            .cls-1{fill:#333}
        </style>
    </defs>
    <g id="Group_1866" data-name="Group 1866" transform="translate(.038 .025)">
        <path id="Path_9388" d="M91.242 10.518a19.653 19.653 0 0 1-2.567 1.208 4.236 4.236 0 0 1-2.114 1.51 16.688 16.688 0 0 0-1.961 1.056c-.755.755-1.661 1.359-2.567 2.114a16.263 16.263 0 0 0-4.982 7.7 14.8 14.8 0 0 1-3.322 6.039 10.552 10.552 0 0 0-1.359 3.623 8.2 8.2 0 0 1 0 3.322c-.3 1.963-.755 2.416-2.718 1.812-1.661-.453-3.171-.906-4.831-1.208a8.185 8.185 0 0 0-3.774.906c-.151 0-.3.151-.453.151 0-.151-.151-.151-.151-.3a13.529 13.529 0 0 1-2.265-2.869c-.3-.6-.755-.906-2.416-1.057a20.089 20.089 0 0 1-5.284-1.963c-.906-.3-1.208-1.208-1.51-1.963v.901c0 .755-.755 2.114-1.51 1.208A5.625 5.625 0 0 1 46.7 30.3c-.6-3.925-3.925-7.851-8.455-6.643a9.5 9.5 0 0 0-6.19 6.039 10.462 10.462 0 0 0-.453 3.02 2.722 2.722 0 0 1 .3 1.51c0 2.869 2.869 4.831 5.133 5.888 1.51.453 0 3.473 0 4.68a18.636 18.636 0 0 0 1.065 6.337c-.453.151-1.057.453-1.661.6a26.5 26.5 0 0 1-4.529 3.623c-1.51 1.208-3.473.453-5.284.6a11.105 11.105 0 0 1-5.435-.755 13.149 13.149 0 0 0-2.869-.755 6.574 6.574 0 0 0-1.812 0c-.3.6 2.416 1.359 2.718 1.51A27.219 27.219 0 0 1 22.4 57.17c2.114.906 4.831 3.473 5.284 5.737.3 1.812-.755 3.472-1.812 4.68-.6 3.171.453 6.643 1.51 9.663.453 1.51 0 2.416-.453 3.774-.906 2.265 1.51 3.473 2.416 5.284.3.6-.3 1.057-.6 1.51-1.057 1.359-.3 3.624 1.661 3.171.755-.151 1.057-.6 1.51-1.208 1.812-1.963 4.529-1.812 6.794-.755a17.367 17.367 0 0 0 6.19 1.208 12.8 12.8 0 0 0 3.473-.151c2.265-.6 4.529-.755 6.19 1.057a3.176 3.176 0 0 0 3.322 1.208 3.557 3.557 0 0 0 1.661-3.171c-.151-.755 1.812-1.812 2.265-2.265a15.925 15.925 0 0 1 4.529-2.265c1.661-.453 2.567 1.963 2.869 3.02.3 1.359 2.869 1.661 3.322.151.3-1.208-1.661-2.869-2.265-3.774a5.372 5.372 0 0 0-3.322-2.416c-2.114-.453-.906-1.963.151-2.869 1.208-1.208 2.416-2.114 4.076-1.51a23.514 23.514 0 0 0 4.076.3c2.416 0 3.171-.151 3.473-.453.906-1.208-1.057-3.774-1.812-4.529a19.125 19.125 0 0 1-1.661-1.963c.453-.151.755-.453 1.208-.6a7.664 7.664 0 0 0 1.359-2.718l1.51-1.51c0-.755.3-.906.755-1.51a12.461 12.461 0 0 0 1.812-4.076c.453-1.661 2.114 0 2.718.3a26.06 26.06 0 0 0 4.831 1.661 6.747 6.747 0 0 1 3.02 2.416c.906 1.057 3.02-.755 4.227-1.057s2.567.6 3.322 1.359a1.488 1.488 0 0 0 2.416.151c3.02-2.567 7.4-3.02 11.021-4.227a8.21 8.21 0 0 1 3.925-2.416c1.812-.453 2.265-1.208 2.718-2.869.6-2.869 3.171-5.737 5.133-7.851 1.661-1.963 1.661-4.982 2.416-7.4a3.749 3.749 0 0 0 0-2.567 15.283 15.283 0 0 1-.3-4.529 7.914 7.914 0 0 1 .151-3.774 3.81 3.81 0 0 0-.755-3.774c-1.812-2.114-2.869-4.831-3.925-7.4a5.257 5.257 0 0 0-1.963-1.661 1.179 1.179 0 0 0-.6-.6 13.038 13.038 0 0 1-2.114-1.963c-2.582-2.415-6.659-4.83-10.132-5.283l-7.7-.906h-1.811c-1.057 0-3.02.3-3.774 1.057-.604 1.359-2.415 1.359-3.473 1.661z" class="cls-1" data-name="Path 9388" transform="translate(8.423 3.989)"/>
        <path id="Path_9389" d="M92.622 32.268a5.042 5.042 0 0 0-.453 2.265 11.427 11.427 0 0 1-.151 2.265c-.453 2.567 2.114 5.284 3.774 6.643 3.322 2.869 7.549 2.718 11.323.755a9.879 9.879 0 0 0 4.227-4.378c.906-2.114 1.51-5.284.3-7.4a11.793 11.793 0 0 1-.755-1.812c-.3-1.057-1.812-2.114-2.567-3.02-.6-.3-1.208-.755-1.812-1.057-3.473-1.812-7.7-.906-10.87 1.057-1.808 1.058-1.959 2.87-3.016 4.682z" class="cls-1" data-name="Path 9389" transform="translate(46.902 13.038)"/>
        <path id="Path_9390" d="M68.857 1.836C66.592.176 63.27 1.685 62.365 4.1c-.453 1.51-2.718 1.359-3.774 1.359-2.416 0-4.529.6-5.586 3.02a9.321 9.321 0 0 0-.6 3.322 7.5 7.5 0 0 0 1.812 4.982 2.591 2.591 0 0 1 .6.906c.151 1.359 2.265 1.51 3.322 1.812 1.51 0 3.623-.453 4.529-1.963s1.057-3.623 1.51-5.435.755-2.869 2.718-3.171a4.234 4.234 0 0 0 3.623-4.227c.149-1.205-.756-2.114-1.662-2.869z" class="cls-1" data-name="Path 9390" transform="translate(26.732 .592)"/>
        <path id="Path_9391" d="M42.2 22.819c.755 0 .906.6 1.208 1.208.755 2.265 4.227 3.925 5.737 1.359 1.208-2.114.151-3.774-1.51-5.284-.755-.6 0-2.265.3-3.02v-1.359c-.906-1.51-2.416-3.623-4.227-4.227-2.416-.755-5.133 0-6.19 2.265a6.738 6.738 0 0 0 .3 6.341 6.833 6.833 0 0 0 4.382 2.717z" class="cls-1" data-name="Path 9391" transform="translate(18.816 5.729)"/>
        <path id="Path_9392" d="M8.625 48.619c-2.567-2.718-6.492-1.661-8 1.812-.755 1.661-1.057 4.076.151 5.586a4.965 4.965 0 0 0 5.435 1.51 5.494 5.494 0 0 0 2.414-8.908z" class="cls-1" data-name="Path 9392" transform="translate(0 24.014)"/>
        <path id="Path_9393" d="M27.277 22.855c.906-2.114-.755-2.567-1.51-4.227a2.239 2.239 0 0 1-.151-1.057c-.755-3.171-5.284-1.208-6.794.453-1.51 1.51-1.51 3.774-.755 5.737.6 1.51 2.718 2.265 4.076 2.416a5.937 5.937 0 0 0 5.134-3.322z" class="cls-1" data-name="Path 9393" transform="translate(8.977 8.109)"/>
        <path id="Path_9394" d="M76.11 49.453a4.377 4.377 0 0 0-4.982 2.265 4.488 4.488 0 0 0 .151 3.925 4.3 4.3 0 0 0 6.794.906 4.362 4.362 0 0 0-1.963-7.096z" class="cls-1" data-name="Path 9394" transform="translate(36.087 25.143)"/>
        <path id="Path_9395" d="M21.891 32.349c1.51-2.567 1.057-6.643-2.416-6.945a4.091 4.091 0 0 0-4.375 3.171 5.466 5.466 0 0 0 0 3.473c1.053 2.717 5.281 2.868 6.791.301z" class="cls-1" data-name="Path 9395" transform="translate(7.57 12.957)"/>
        <path id="Path_9396" d="M14.775 52.842a3.815 3.815 0 0 0-1.661-6.492c-1.963-.6-2.718.755-3.774 2.114-2.567 3.623 2.416 7.85 5.435 4.378z" class="cls-1" data-name="Path 9396" transform="translate(4.418 23.566)"/>
        <path id="Path_9397" d="M102.762 43.757c-1.057.755-.906 3.473-.3 4.378a3.386 3.386 0 0 0 5.586-.151 3.473 3.473 0 0 0-2.418-5.284 6.108 6.108 0 0 0-2.869 1.057z" class="cls-1" data-name="Path 9397" transform="translate(52.011 21.781)"/>
        <path id="Path_9398" d="M100.438 54.69c-1.208-1.51-3.322-2.567-4.982-.906-2.265 2.416-.6 5.284 2.416 5.284 1.811.001 3.773-2.717 2.566-4.378z" class="cls-1" data-name="Path 9398" transform="translate(48.145 27.002)"/>
        <path id="Path_9399" d="M70.253 1.674l-.453.906A2.721 2.721 0 0 0 71.159 5c2.265 1.359 5.284-.755 4.227-3.322a2.788 2.788 0 0 0-5.133-.004z" class="cls-1" data-name="Path 9399" transform="translate(35.603)"/>
        <path id="Path_9400" d="M46.554 15.887a2.734 2.734 0 0 0 1.812-4.831 2.928 2.928 0 0 0-4.227.3c-1.209 1.814.452 4.531 2.415 4.531z" class="cls-1" data-name="Path 9400" transform="translate(22.312 5.262)"/>
        <path id="Path_9401" d="M95.344 19.838c2.114.906 3.171-.6 4.076-2.265-.151-.3-.151-.6-.3-.906a2.584 2.584 0 0 0-4.529-.6c-.908 1.205-.757 3.168.753 3.771z" class="cls-1" data-name="Path 9401" transform="translate(47.954 7.652)"/>
        <path id="Path_9402" d="M104.642 55.8c1.208 1.661 3.774.3 3.774-1.51s-2.114-2.416-3.473-1.812c-.905.602-.905 2.716-.301 3.322z" class="cls-1" data-name="Path 9402" transform="translate(53.15 26.649)"/>
        <path id="Path_9403" d="M62.315 55.945a2.883 2.883 0 0 0 0 2.718c1.057 1.51 3.623 0 3.623-1.51 0-1.66-2.868-2.717-3.623-1.208z" class="cls-1" data-name="Path 9403" transform="translate(31.613 28.162)"/>
        <path id="Path_9404" d="M86.486 51.447c1.359-1.51-.151-4.529-2.265-3.473-2.416 1.359.302 5.737 2.265 3.473z" class="cls-1" data-name="Path 9404" transform="translate(42.469 24.357)"/>
        <path id="Path_9405" d="M8.925 35.509c-1.51-.453-1.661-.453-1.812.151-.3 1.208 1.208 1.51 2.114 1.812a10.272 10.272 0 0 0 3.02.3 5.152 5.152 0 0 0-3.322-2.263z" class="cls-1" data-name="Path 9405" transform="translate(3.626 17.95)"/>
        <path id="Path_9406" d="M5.907 57.328a1.338 1.338 0 0 0 .755 2.567c1.51-.302.906-3.171-.755-2.567z" class="cls-1" data-name="Path 9406" transform="translate(2.567 29.195)"/>
    </g>
</svg>
