<svg xmlns="http://www.w3.org/2000/svg" id="Group_1772" width="176.231" height="51.102" data-name="Group 1772" viewBox="0 0 176.231 51.102">
    <defs>
        <style>
            .cls-1{fill:#161616}.cls-1,.cls-2,.cls-3,.cls-4,.cls-5,.cls-6,.cls-8{fill-rule:evenodd}.cls-2{fill:#333}.cls-3{fill:#232323}.cls-4{fill:#545454}.cls-5{fill:#6b6b6b}.cls-6{fill:#444}.cls-7{fill:#fff}.cls-8{fill:#515151}.cls-9{fill:none}
        </style>
    </defs>
    <g id="Group_1757" data-name="Group 1757" transform="translate(49.499)">
        <g id="Group_1756" data-name="Group 1756">
            <path id="Path_9336" d="M230.549 22.063c5.013 7.843 4.474 10.565-3.935 19.324-2.668.189-5.067 2.884-8 .889-.782-4.474 2.4-7.385 4.932-11.347-6.064-1.348-12.1-1.967-16.09-6.9-2.318-1.86-3.638-3.827-2.264-7.061a40.62 40.62 0 0 0 1.994-7.924l-.027.027c3.8-3.4 7.735-4.178 11.967-.728a8.176 8.176 0 0 0 4.124 1.536c7.654 1.051 8.678 2.533 7.142 10.35a2.8 2.8 0 0 0 .157 1.834z" class="cls-1" data-name="Path 9336" transform="translate(-198.968 -4.44)"/>
            <path id="Path_9337" d="M193.673 17.2c.054 2.938.728 6.01-1 8.652-2.075 3.207 2.048 3.558 2.372 5.633 2.183 3.423 4.636 6.549 8.274 8.678 2.372 1.375 3.665 3.558 2.507 6.5-2.129 1.752-4.231.647-5.687-.728-3.908-3.639-8.813-5.795-12.856-9.191-.4-.458-.809-.943-1.186-1.428.892-6.742 4.881-12.16 7.576-18.116z" class="cls-2" data-name="Path 9337" transform="translate(-185.432 -12.541)"/>
            <path id="Path_9338" d="M237.54 17.535c-1.482-.943-.593-2.1-.485-3.315.4-4.312.3-8.355-6.064-7.061-1.563.323-3.558.566-4.744-.97-3.531-4.528-7.6-4.178-12.047-1.617 2.453-2.587 15.5-5.714 18.139-4.312 6.091 3.207 7.627 8.247 5.201 17.275z" class="cls-3" data-name="Path 9338" transform="translate(-205.959 .088)"/>
            <path id="Path_9339" d="M184.317 84.4c.4 0 .809 0 1.213.027.7 1.321 1.967 2.291 2.453 3.746 1.671 5.148 5.256 7.573 10.565 7.762a5.97 5.97 0 0 1 4.663 1.779c.108.3.243.566.35.862 2.56 2.21 5.148-1.051 7.708.027-3.288 2.291-6.657 3.746-10.538 1.186a2.064 2.064 0 0 0-3.261.755c-2.776 5.283-6.064 2.264-8-.189C185.934 95.828 182 91 184.317 84.4z" class="cls-4" data-name="Path 9339" transform="translate(-183.622 -61.629)"/>
            <path id="Path_9340" d="M234.1 170.7c.081-1.294.62-2.21 1.887-2.048 1.779.216 2.372 1.671 2.264 3.18-.081 1.132-.512 2.83-2.156 2.345-1.483-.46-1.752-2.158-1.995-3.477z" class="cls-4" data-name="Path 9340" transform="translate(-220.495 -123.158)"/>
            <path id="Path_9341" d="M307.695 125.4a2.487 2.487 0 0 1 2.183 2.668c0 1.59-1.105 2.129-2.507 2.021-1.455-.108-2.372-.862-2.156-2.4a2.455 2.455 0 0 1 2.48-2.289z" class="cls-1" data-name="Path 9341" transform="translate(-272.421 -91.579)"/>
            <path id="Path_9342" d="M189.124 150.547c-.162-1.024.4-1.321 1.024-1.159a1.974 1.974 0 0 1 1.294.943.8.8 0 0 1-1 1.051 5.016 5.016 0 0 1-1.318-.835z" class="cls-5" data-name="Path 9342" transform="translate(-187.621 -109.071)"/>
            <path id="Path_9343" d="M229.7 85.643c.243-2.614-.647-5.067-3.073-5.795-5.013-1.482-6.037-5.552-7.223-9.649 3.827 3.315 8.032 5.579 13.314 5.175 1.725-.135 3.638.054 4.151 2.156.458 1.887-1.24 2.533-2.507 3.234-2.911 1.644-2.48 5.336-4.636 7.439l-.027.027a1.761 1.761 0 0 1 .001-2.587z" class="cls-3" data-name="Path 9343" transform="translate(-209.757 -51.256)"/>
            <path id="Path_9344" d="M208.731 96.016c0 .862 0 1.725-.027 2.587a18.245 18.245 0 0 0-3.585-1.24c-11.374-1.428-11.374-1.4-14.419-12.964q9.015 5.823 18.031 11.617z" class="cls-6" data-name="Path 9344" transform="translate(-188.792 -61.629)"/>
        </g>
        <path id="Path_9345" d="M243.287 71.138V58.309h4.313l.647-5.013h-4.959v-3.208c0-1.455.4-2.426 2.48-2.426h2.641v-4.473a38.122 38.122 0 0 0-3.855-.189c-3.827 0-6.441 2.345-6.441 6.6v3.7H233.8v5.013h4.312v12.825z" class="cls-7" data-name="Path 9345" transform="translate(-220.276 -31.387)"/>
    </g>
    <g id="Group_1760" data-name="Group 1760" transform="translate(92.09 5.151)">
        <g id="Group_1758" data-name="Group 1758">
            <path id="Path_9346" d="M359.64 70.989c-2.318-3.288-7.978-1.994-9.271-6.738-.539-.809-1.4-1.294-1.914-2.129-.782-1.294-1.051-2.749.35-3.558 1.994-1.159 3.18-.162 3.531 1.914.458-1.887-.3-3.665-.862-5.5-1.806-5.849 1.914-14.258 7.52-16.926a1.923 1.923 0 0 1 1.644.27c2.183 2.965-.3 5.417-.916 8.059-.674 2.938-2.237 6.091 1.806 7.9a7.924 7.924 0 0 0 10.376-3.5c1.887-3.854-.539-6.118-3.234-8.193-2.426-1.86-5.956-1.725-8-4.312.539-3.585 3.153-3.315 5.687-2.938 7.87 1.186 13.638 8.894 12.91 17.168-.485 5.633-8.139 10.7-16.495 10.808 2.345 1.7 4.285 3.5 2.857 6.657-1.946.856-3.729 2.473-5.989 1.018z" class="cls-3" data-name="Path 9346" transform="translate(-346.15 -30.783)"/>
            <path id="Path_9347" d="M360.932 63.415c-.4-4.5-3.315-6.118-7.439-6.064.243-2.56 1.94-2.075 2.992-1.671a10.447 10.447 0 0 0 8.328-.862c3.962-2.156 9.406-4.043 8.517-10.188-1.375-9.568-6.145-14.527-13.341-14.608a3.662 3.662 0 0 0-3.665 2.264c-6.765 3.477-9.676 10.188-7.3 16.872a5.924 5.924 0 0 1 .323 1.671c.054 1.132.027 2.264.027 3.315-2.156 1.105-2.992-2.668-4.474-1.294-1.914 1.725.943 3.288.97 5.094-4.8-1.294-4.824-4.5-3.4-8.328a16.991 16.991 0 0 0 2.345-10.4c.3-.4.566-.836.862-1.24 2.776-2.21 2.884-6.01 5.094-8.544 4.07-2.426 8.813-2.83 13.206-2.938 4.851-.135 7.924 3.989 10.7 7.708 2.533 5.983 4.528 12.021 1.374 18.435-4.124 3.719-8.678 6.873-12.964 10.376-.646.487-1.32.941-2.155.402z" class="cls-2" data-name="Path 9347" transform="translate(-341.647 -24.476)"/>
            <path id="Path_9348" d="M411.4 52.016c3.746-2.614 1.159-6.172 1.1-9.191-.054-2.722-1.482-5.444-2.291-8.166-.7-2.614-2.426-5.094-1.159-7.978l2.318-.081c2.722 3.8 1.482 8.705 3.477 12.694 2.21 5.768-.862 11.4-.377 17.168.108 1.4-2.021 1.455-3.207 1.914-2.291.889-4.42 1.4-5.39 4.366-.728 2.264-11.374 3.423-14.177 2.021 1.941-.4 3.854-.836 5.795-1.24.4-.35.782-.7 1.186-1.078 4.938-1.993 8.145-4.635 12.725-10.429z" class="cls-4" data-name="Path 9348" transform="translate(-378.21 -24.558)"/>
            <path id="Path_9349" d="M395.056 21.147c1.671 2.48 1.051 5.283 1.159 7.978-4.878-5.579-10.026-9.972-18.031-5.31-1.348.782-3.342.485-5.04.7l-.485-.485a1.445 1.445 0 0 1 .485-1.806c2.156-2.318 4.5-3.827 7.735-1.914 1.725 1.024 3.261-.027 4.932-.35 3.127-.646 6.577-2.236 9.245 1.187z" class="cls-6" data-name="Path 9349" transform="translate(-364.209 -19.024)"/>
            <path id="Path_9350" d="M468.177 39.267c-3.4-3.612-3.153-8.247-3.477-12.694 3.585-.162 4.447 1.644 3.935 4.932a74.087 74.087 0 0 0-.458 7.762z" class="cls-5" data-name="Path 9350" transform="translate(-431.535 -24.531)"/>
            <path id="Path_9351" d="M345.678 73.7c1.86 5.31.943 9.352-2.345 10.4-1.833-4.066 1.887-6.842 2.345-10.4z" class="cls-6" data-name="Path 9351" transform="translate(-342.511 -58.964)"/>
            <path id="Path_9352" d="M361.478 38.761c-.377 3.423-1.024 6.684-4.878 7.978.054-2.587 1.482-4.636 2.533-6.846.647-.593 1-1.833 2.291-1.186z" class="cls-6" data-name="Path 9352" transform="translate(-352.57 -33.269)"/>
            <path id="Path_9353" d="M368.29 33.137c-.755.4-1.509.782-2.291 1.186 0-1.671-.081-3.4 2.345-3.423-.027.755-.027 1.509-.054 2.237z" class="cls-4" data-name="Path 9353" transform="translate(-359.436 -27.699)"/>
            <path id="Path_9354" d="M386.071 48a16.84 16.84 0 0 1 7.654 2.156c5.175 2.56 7.115 7.2 4.824 11-3.073 5.067-10.161 6.954-14.392 3.477-2.776-2.291-1.7-5.606-.862-8.544.755-2.749 1.833-5.39 2.776-8.086z" class="cls-1" data-name="Path 9354" transform="translate(-371.395 -40.189)"/>
            <path id="Path_9355" d="M430.321 120.9c-2.857 5.175-5.9 10.107-12.721 10.43q6.347-5.215 12.721-10.43z" class="cls-6" data-name="Path 9355" transform="translate(-397.129 -93.442)"/>
        </g>
        <g id="Group_1759" data-name="Group 1759" transform="translate(7.776 11.825)">
            <path id="Path_9357" d="M392.169 65.622a3.158 3.158 0 0 1-.916.108l.027-.108a7.373 7.373 0 0 0 1.833-2.075c.081-.243 0-.323 0-.323l-1.509.647-1.267.566a5.053 5.053 0 0 0-3.692-1.536c-2.641 0-4.8 1.887-4.8 4.178a6.264 6.264 0 0 0 .189 1.59 15.53 15.53 0 0 1-5.849-1.725c-3.827-1.941-4.07-3.288-4.07-3.288-.593.647-.916 2.749-.3 4.42a5.8 5.8 0 0 0 1.725 2.021 4.963 4.963 0 0 1-1.24-.189 2.759 2.759 0 0 1-.862-.431c-.377.916.377 2.533 1.671 3.719a7 7 0 0 0 2.129 1.105l-2.156.054c-.135 2.1 4.393 3.342 4.393 3.342a7.35 7.35 0 0 1-4.528 1.644 9.139 9.139 0 0 1-2.453-.35 11.727 11.727 0 0 0 8.032 2.884c8.086-.431 12.64-7.385 12.856-14.2v.025a5.69 5.69 0 0 0 1.186-1 8.621 8.621 0 0 0 1.321-1.752 17.966 17.966 0 0 1-1.72.674z" class="cls-7" data-name="Path 9357" transform="translate(-370.5 -62.9)"/>
            <path id="Path_9358" d="M454.3 64.2c.027.135 0 .027 0 0z" class="cls-7" data-name="Path 9358" transform="translate(-431.714 -63.85)"/>
        </g>
    </g>
    <g id="Group_1764" data-name="Group 1764" transform="translate(136.021 3.745)">
        <g id="Group_1761" data-name="Group 1761">
            <path id="Path_9359" d="M528.385 71.948c-3.773-2.48-7.547-4.986-11.32-7.466-1.563-1.806-1.159-3.665-.189-5.552a5.677 5.677 0 0 0 .4-5.256 9.541 9.541 0 0 1 .162-4.851c1.186-3.261 3.423-5.768 5.822-8.166a76.529 76.529 0 0 1 5.929-5.5 6.881 6.881 0 0 1 1.887-.809c4.609-.243 8.625 1.967 12.937 3.019a4.418 4.418 0 0 1 1.509 1.4c1.024 2.21.862 4.77 1.994 6.954a19.583 19.583 0 0 1 1.752 6.145 10.874 10.874 0 0 1-1.105 5.444c-6.037 12.533-8.975 7.358-13.961 13.179-.616.704-4.497 1.621-5.817 1.459z" class="cls-1" data-name="Path 9359" transform="translate(-512.954 -28.8)"/>
            <path id="Path_9360" d="M561.9 118.456c3.1-.916 6.927-1 5.417-6.172-.916-3.207 2.1-2.075 3.585-2.749 5.067-2.318 10.808-4.178 10.161-11.535 4.177.782 2.641 4.043 2.857 6.549.4 4.285-2.8 6.118-5.66 8.139-3.56 7.278-9.945 6.55-16.36 5.768z" class="cls-3" data-name="Path 9360" transform="translate(-546.469 -75.309)"/>
            <path id="Path_9361" d="M622.7 59.737c.674-2.911 4.447-4.016 4.258-7.385 1.267-4.5 1.24-8.84-1.1-13.126a21.144 21.144 0 0 1-2.048-13.233 2.55 2.55 0 0 1 3.126.108c6.091 7.466 3.854 16.036 3.315 24.418-.301 4.986-.328 9.999-7.551 9.218z" class="cls-2" data-name="Path 9361" transform="translate(-590.882 -22.357)"/>
            <path id="Path_9362" d="M513.183 71.61l-.081 5.795c.863 1.482-.35 2.911-.162 4.393a9.277 9.277 0 0 0-1.267 5.741c-4.312-1.779-2.7-5.525-2.911-8.679-.189-4.609 1.482-8.786 3.072-12.964a10.368 10.368 0 0 1 1.294-.027c1.511 1.887.837 3.801.055 5.741z" class="cls-3" data-name="Path 9362" transform="translate(-507.563 -51.83)"/>
            <path id="Path_9363" d="M530.9 23.563c1.563-8.732 9.433-12.506 15.821-7.547l.323.97c-4.016 3.665-10.754 1.24-14.15 6.307a2.858 2.858 0 0 1-1.994.27z" class="cls-8" data-name="Path 9363" transform="translate(-523.824 -13.809)"/>
            <path id="Path_9364" d="M508.919 66c.539 4.69-1.213 8.84-3.073 12.964-1.967-5.04-1.886-9.564 3.073-12.964z" class="cls-8" data-name="Path 9364" transform="translate(-504.646 -51.933)"/>
            <path id="Path_9365" d="M526.809 49.562c.458-.054.889-.108 1.347-.162.3 0 .566.027.862.027 1.132.647 2.965.782 2.048 2.884-1.914 2.426-3.8 4.851-5.714 7.277-.027-1.914-.054-3.827-.054-5.741.487-1.455 1.002-2.857 1.511-4.285z" class="cls-3" data-name="Path 9365" transform="translate(-519.733 -39.807)"/>
            <path id="Path_9366" d="M602.68 19.394c-.97.027-1.968.027-2.938.054-3.666 2.4-6.846.7-9.972-1.213l-.27-.377c4.744-2.291 9.164-2.183 13.18 1.536z" class="cls-8" data-name="Path 9366" transform="translate(-566.63 -15.65)"/>
            <path id="Path_9367" d="M550.616 22.949c3.45-.7 6.63 1.024 9.972 1.213.512 8.786 8.948 16.683 2.938 26.2-.4-2.453.943-5.256-1.456-7.3l-1.455-5.822c-1.7-2.183.35-5.121-1.455-7.277-4.717-1.644-9.083-4.905-14.527-2.911-2.749 1.321-5.256 3.369-8.625 2.938l-.108-.054c.728-4.5 4.178-5.31 7.87-5.768 2.318-.276 4.851.694 6.846-1.219z" class="cls-6" data-name="Path 9367" transform="translate(-527.477 -20.363)"/>
            <path id="Path_9368" d="M568.3 34.083c5.714-3.369 10.323-1.24 14.527 2.911-5.175.728-9.46-3.045-14.527-2.911z" class="cls-2" data-name="Path 9368" transform="translate(-551.144 -27.402)"/>
            <path id="Path_9369" d="M536.3 41.267c2.48-2.129 5.2-3.531 8.625-2.938a14.858 14.858 0 0 1-5.822 5.795c-.943-.97-1.86-1.913-2.803-2.857z" class="cls-3" data-name="Path 9369" transform="translate(-527.769 -31.621)"/>
            <path id="Path_9370" d="M622.061 49.4c2.426 2.021 1.1 4.824 1.455 7.277-2.426-2.048-1.105-4.824-1.455-7.277z" class="cls-2" data-name="Path 9370" transform="translate(-590.378 -39.807)"/>
        </g>
        <g id="Group_1763" data-name="Group 1763" transform="translate(9.124 9.053)">
            <g id="Group_1762" data-name="Group 1762">
                <path id="Path_9371" d="M553.859 50.9a11.848 11.848 0 0 0-9.352 19.136l-.782 4.07 3.854-1.321a11.847 11.847 0 1 0 6.28-21.885z" class="cls-9" data-name="Path 9371" transform="translate(-541.057 -49.957)"/>
                <path id="Path_9372" d="M551.3 73a12.69 12.69 0 0 1-6.388-1.725L539.928 73l1.024-5.283A12.612 12.612 0 0 1 538.5 60.2 12.8 12.8 0 1 1 551.3 73zm-6.145-3.827l.377.243a11.032 11.032 0 0 0 5.768 1.671 10.9 10.9 0 1 0-8.571-4.178l.27.35-.566 2.884z" class="cls-7" data-name="Path 9372" transform="translate(-538.5 -47.4)"/>
            </g>
            <path id="Path_9373" d="M560.981 72.687s.755-1.321 1.375-1.4 1.4-.081 1.617.323 1.159 2.722 1.159 2.722a.918.918 0 0 1-.081.782 7.788 7.788 0 0 1-.809.943.691.691 0 0 0 0 .836 15.776 15.776 0 0 0 1.806 2.21 9.992 9.992 0 0 0 2.938 1.725.676.676 0 0 0 .458-.135c.162-.189 1.132-1.375 1.132-1.375a.642.642 0 0 1 .809-.162c.512.243 2.7 1.321 2.7 1.321s.27.081.27.485a3 3 0 0 1-.485 1.644 3.837 3.837 0 0 1-2.668 1.321 11.83 11.83 0 0 1-6.549-2.938c-1.779-1.779-3.369-3.612-3.746-5.256-.438-1.618-.384-2.372.074-3.046z" class="cls-7" data-name="Path 9373" transform="translate(-554.648 -64.817)"/>
        </g>
    </g>
    <g id="Group_1771" data-name="Group 1771" transform="translate(0 4.936)">
        <g id="Group_1766" data-name="Group 1766">
            <g id="Group_1765" data-name="Group 1765" transform="translate(1.263)">
                <path id="Path_9374" d="M10.419 28.758c-2.4-4.528-1.752-6.792 3.773-9s29.728-1.86 27.949 0 .377 1.294-.27 1.833c-1.86 1.186-3.989 1.105-6.091 1.159-4.851.054-9.676 0-14.527.027-3.665.027-6.576 1.24-8.247 4.69a2.674 2.674 0 0 1-2.587 1.291z" class="cls-3" data-name="Path 9374" transform="translate(-7.899 -18.227)"/>
                <path id="Path_9375" d="M121.923 26.367V25.1h1.267c1.024 1.806 3.1.862 4.447 1.7 1.671 1.078 1.24 1.833-.512 2.156-1.159 1-.377 2.7-1.321 3.773v2.48c-3.477.081-4.151-2.992-5.741-5.067-.563-1.835.431-2.913 1.86-3.775z" class="cls-1" data-name="Path 9375" transform="translate(-88.84 -23.248)"/>
                <path id="Path_9376" d="M7.17 41.357c.458-.458.889-.916 1.348-1.375C13.8 34 21.266 35.158 27.007 36.775c5.66 1.59 11.158 5.363 16.575 8.463 2.965 2.938 3.342 6.334 1.752 10.08a2.592 2.592 0 0 1-1.4 2.426c-1.267 1.321-1.024 3.234-1.86 4.744-1.914 2.021-5.04 3.046-6.846 1.994-4.932-2.857-6.361-.081-7.735 3.639-9.649 4.959-9.056 4.178-16.845-3.962-7.089-7.439-7.412-14.42-3.478-22.802z" class="cls-6" data-name="Path 9376" transform="translate(-4.651 -30.826)"/>
                <path id="Path_9377" d="M53.175 41.236c-1.563.3-1.428-5.9-4.555-.97-1.213 1.914-2.48-1.078-3.585-2.1-6.872-6.39-18.515-7.845-26.035-3.29.916-4.636 3.854-6.5 8.436-6.388 5.175.135 10.376.108 15.578.135 1.671 1.267 2.56 3.612 5.121 3.639 2.533.862 3.1 3.719 5.094 5.121.431.4.889.809 1.321 1.213.75 1.504-.486 1.993-1.375 2.64z" class="cls-2" data-name="Path 9377" transform="translate(-15.133 -25.719)"/>
                <path id="Path_9378" d="M80.78 131.91c1.86-3.45-2.507-2.048-3.18-4.285A12.742 12.742 0 0 0 88 122.8c2.291 2.129-.3 3.073.108 4.77 2.507.377 4.582-.755 6.576-2.156 2.372-.162 2.048 1.078 1.294 2.507q-7.597 1.979-15.198 3.989z" class="cls-2" data-name="Path 9378" transform="translate(-57.939 -94.616)"/>
                <path id="Path_9379" d="M145.8 68.714c.458-.862.889-1.752 1.348-2.614 3.45 3.531 7.331 7.007 1.267 11.589-.809-3.018.161-6.549-2.615-8.975z" class="cls-3" data-name="Path 9379" transform="translate(-107.758 -53.197)"/>
                <path id="Path_9380" d="M142.294 124.488a2.623 2.623 0 0 0-1.294-2.507 3.689 3.689 0 0 1 2.533-3.881c-1.374 1.941 3.477 5.094-1.239 6.388z" class="cls-3" data-name="Path 9380" transform="translate(-104.251 -91.182)"/>
                <path id="Path_9381" d="M138.944 42.226c-.7-1.671-2.372-4.339 1.132-4.5 1.779-.647 2.884 3.773 2.884 3.773s-3.45 2.452-4.016.727z" class="cls-3" data-name="Path 9381" transform="translate(-102.006 -32.423)"/>
                <path id="Path_9382" d="M113.092 32.446a10.532 10.532 0 0 1-1.132 1.887c-2.426-1.024-4.151-2.614-3.989-5.525 2.129-.027 4.231-.081 6.361-.108a281.89 281.89 0 0 1-1.24 3.746z" class="cls-3" data-name="Path 9382" transform="translate(-80.117 -25.877)"/>
            </g>
            <path id="Path_9383" d="M8.869 94.573c-.4-.135-.809-.243-1.213-.377-5.04-1.321-6.6-6.037-7.331-9.864-.725-3.774-.162-8.113.054-12.21a5.524 5.524 0 0 1 5.39-4.016 1.68 1.68 0 0 1 1.833.108c1.159.35 2.21-.377 3.315-.323 1.752.512 3.261 2.048 3.207 3.423-.216 3.746 1.833 3.746 4.42 3.45 5.768 4.178 5.121 4.07 2.641 11.023-2.236 6.36-6.252 8.597-12.316 8.786z" class="cls-4" data-name="Path 9383" transform="translate(.035 -54.503)"/>
            <path id="Path_9384" d="M7.737 124.121a57.131 57.131 0 0 1-2.237-.216c.081-.755.135-1.509.216-2.264 3.369-1.482 2.048-5.363 3.8-7.573 2.183-2.8 3.45-1.887 3.746 1.294 1.59 2.264 4.717 1.132 6.468 3.019 1.455.135 2.938.3 4.42.431-.458 6.172-6.037 6.873-9.972 9.325-3.395.592-5.147-1.348-6.441-4.016z" class="cls-5" data-name="Path 9384" transform="translate(-4.008 -87.015)"/>
        </g>
        <g id="Group_1770" data-name="Group 1770" transform="translate(6.828 5.976)">
            <g id="Group_1767" data-name="Group 1767">
                <path id="Path_9385" d="M44.517 66.921H33.871A8.592 8.592 0 0 1 25.3 58.35v-9.379a8.592 8.592 0 0 1 8.571-8.571h10.646a8.592 8.592 0 0 1 8.571 8.571v9.379a8.541 8.541 0 0 1-8.571 8.571zM33.871 42.287a6.671 6.671 0 0 0-6.657 6.657v9.406a6.671 6.671 0 0 0 6.657 6.657h10.646a6.671 6.671 0 0 0 6.657-6.657v-9.379a6.671 6.671 0 0 0-6.657-6.657H33.871z" class="cls-7" data-name="Path 9385" transform="translate(-25.3 -40.4)"/>
            </g>
            <g id="Group_1768" data-name="Group 1768" transform="translate(6.28 5.633)">
                <path id="Path_9386" d="M56.227 76.555a7.627 7.627 0 1 1 7.627-7.627 7.638 7.638 0 0 1-7.627 7.627zm0-13.341a5.714 5.714 0 1 0 5.714 5.714 5.717 5.717 0 0 0-5.714-5.714z" class="cls-7" data-name="Path 9386" transform="translate(-48.6 -61.3)"/>
            </g>
            <g id="Group_1769" data-name="Group 1769" transform="translate(19.81 4.285)">
                <path id="Path_9387" d="M101.98 57.89a1.59 1.59 0 1 1-1.59-1.59 1.576 1.576 0 0 1 1.59 1.59z" class="cls-7" data-name="Path 9387" transform="translate(-98.8 -56.3)"/>
            </g>
        </g>
    </g>
</svg>
