<svg xmlns="http://www.w3.org/2000/svg" id="Group_2082" width="31.731" height="41" data-name="Group 2082" viewBox="0 0 31.731 41">
    <defs>
        <style>
            .cls-1{fill:#fff}.cls-2{fill:#ba2138}
        </style>
    </defs>
    <g id="Group_2077" data-name="Group 2077" transform="translate(.124 36.034)">
        <g id="Group_2076" data-name="Group 2076">
            <g id="Group_2075" data-name="Group 2075">
                <path id="Path_9532" d="M341.156 664.114a.213.213 0 0 1-.068.157.231.231 0 0 1-.157.062.234.234 0 0 1-.09-.017.32.32 0 0 1-.073-.045.154.154 0 0 1-.051-.067.22.22 0 0 1 0-.169.154.154 0 0 1 .051-.068.837.837 0 0 1 .073-.051.234.234 0 0 1 .09-.017.231.231 0 0 1 .157.062.193.193 0 0 1 .068.153z" class="cls-1" data-name="Path 9532" transform="translate(-321.662 -662.595)"/>
                <g id="Group_2073" data-name="Group 2073" transform="translate(14.791 .006)">
                    <path id="Path_9533" d="M265.2 642.626V640.9h.4v1.727z" class="cls-1" data-name="Path 9533" transform="translate(-265.2 -640.894)"/>
                    <path id="Path_9534" d="M278.6 641.637v.99h-.4V640.9h.309l.8 1.018V640.9h.4v1.727h-.321z" class="cls-1" data-name="Path 9534" transform="translate(-277.469 -640.894)"/>
                    <path id="Path_9535" d="M309.3 641.655a.849.849 0 0 1 .484-.782.782.782 0 0 1 .354-.073.719.719 0 0 1 .4.107.7.7 0 0 1 .253.276l-.309.214a.316.316 0 0 0-.068-.112.368.368 0 0 0-.09-.073.38.38 0 0 0-.1-.039.627.627 0 0 0-.1-.011.378.378 0 0 0-.186.045.434.434 0 0 0-.129.118.548.548 0 0 0-.079.163.706.706 0 0 0-.028.186.755.755 0 0 0 .028.2.789.789 0 0 0 .084.169.387.387 0 0 0 .135.118.349.349 0 0 0 .174.045.62.62 0 0 0 .1-.011.753.753 0 0 0 .1-.039.366.366 0 0 0 .09-.073.308.308 0 0 0 .062-.112l.326.191a.555.555 0 0 1-.112.169.96.96 0 0 1-.169.129.8.8 0 0 1-.2.079.921.921 0 0 1-.208.028.74.74 0 0 1-.332-.079.828.828 0 0 1-.259-.2.919.919 0 0 1-.169-.287 1.442 1.442 0 0 1-.052-.346z" class="cls-1" data-name="Path 9535" transform="translate(-306.82 -640.8)"/>
                </g>
                <g id="Group_2074" data-name="Group 2074">
                    <path id="Path_9536" d="M2.2 645.666V640.7h2.12a1.481 1.481 0 0 1 .652.146 1.721 1.721 0 0 1 .512.382 1.9 1.9 0 0 1 .337.54 1.674 1.674 0 0 1 .124.607 1.716 1.716 0 0 1-.118.63 1.856 1.856 0 0 1-.321.54 1.5 1.5 0 0 1-1.153.517H3.347v1.6zm1.147-2.6h.939a.434.434 0 0 0 .349-.174.793.793 0 0 0 .146-.512.9.9 0 0 0-.045-.3.584.584 0 0 0-.124-.208.471.471 0 0 0-.174-.124.493.493 0 0 0-.2-.039h-.891z" class="cls-1" data-name="Path 9536" transform="translate(-2.2 -640.7)"/>
                    <path id="Path_9537" d="M64 645.666l1.912-4.966h.928l1.9 4.966h-1.214l-.382-1.114H65.6l-.377 1.114zm2.373-3.751l-.6 1.845h1.17z" class="cls-1" data-name="Path 9537" transform="translate(-60.524 -640.7)"/>
                    <path id="Path_9538" d="M160.409 645.666V642.7l-1.074 2.16h-.613l-1.074-2.16v2.97H156.5v-4.97h1.243l1.288 2.593 1.294-2.593h1.237v4.966z" class="cls-1" data-name="Path 9538" transform="translate(-147.822 -640.7)"/>
                </g>
            </g>
        </g>
    </g>
    <g id="Group_2078" data-name="Group 2078" transform="translate(.051 .039)">
        <path id="Path_9539" d="M17.12 5.542H27.8V27.9H5.681V16.976L.9 21.746v10.63h31.681V.7H21.912z" class="cls-1" data-name="Path 9539" transform="translate(-.9 -.7)"/>
    </g>
    <g id="Group_2079" data-name="Group 2079">
        <path id="Path_9540" d="M4.831 9.943V4.882H9.9L14.8 0 .051.028 0 14.786z" class="cls-2" data-name="Path 9540"/>
    </g>
</svg>
