<svg xmlns="http://www.w3.org/2000/svg" id="Group_2036" width="40.79" height="31.482" data-name="Group 2036" viewBox="0 0 40.79 31.482">
    <defs>
        <style>
            .cls-1{fill:#b68f2a}.cls-2{clip-path:url(#clip-path)}
        </style>
        <clipPath id="clip-path">
            <path id="Rectangle_214" d="M0 0h40.79v31.482H0z" class="cls-1" data-name="Rectangle 214"/>
        </clipPath>
    </defs>
    <g id="Group_2034" data-name="Group 2034">
        <g id="Group_2033" class="cls-2" data-name="Group 2033">
            <path id="Path_9519" d="M23.672 26.409a3.826 3.826 0 0 1-3.833 3.833 3.917 3.917 0 0 1-3.833-3.833 3.833 3.833 0 0 1 7.665 0zm8.213-3.833a3.917 3.917 0 0 0-3.833 3.833 3.826 3.826 0 0 0 3.833 3.833 3.917 3.917 0 0 0 3.833-3.833 3.826 3.826 0 0 0-3.833-3.833zM39.823 9.71a2.746 2.746 0 0 0-2.738-2.738H14.5l-1.231-3.011a2.4 2.4 0 0 0-1.779-1.643L3.413.128A2.655 2.655 0 0 0 .128 2.045a2.737 2.737 0 0 0 1.917 3.422l6.707 1.779 4.791 12.182a2.677 2.677 0 0 0 2.6 1.779h19.163a2.738 2.738 0 1 0 0-5.475H17.923l-1.232-3.148h20.4a2.963 2.963 0 0 0 2.732-2.874zm0 0" class="cls-1" data-name="Path 9519" transform="translate(.008 .008)"/>
        </g>
    </g>
</svg>
