<svg xmlns="http://www.w3.org/2000/svg" id="Group_1926" width="16.079" height="24.093" data-name="Group 1926" viewBox="0 0 16.079 24.093">
    <defs>
        <style>
            .cls-1{fill:#fff}.cls-2{clip-path:url(#clip-path)}
        </style>
        <clipPath id="clip-path">
            <path id="Rectangle_30" d="M0 0h16.079v24.093H0z" class="cls-1" data-name="Rectangle 30"/>
        </clipPath>
    </defs>
    <g id="Group_56" data-name="Group 56">
        <g id="Group_54" class="cls-2" data-name="Group 54">
            <path id="Path_40" d="M14.413 24.4a1.592 1.592 0 0 0-1.613 1.613v2.419a1.613 1.613 0 0 0 3.226 0v-2.419a1.592 1.592 0 0 0-1.613-1.613zm.806 4.032a.806.806 0 0 1-1.613 0v-2.419a.806.806 0 1 1 1.613 0zm0 0" class="cls-1" data-name="Path 40" transform="translate(-6.348 -12.101)"/>
        </g>
        <g id="Group_55" class="cls-2" data-name="Group 55">
            <path id="Path_41" d="M12.4 9.019V4.533A4.289 4.289 0 0 0 7.966.4 4.289 4.289 0 0 0 3.53 4.533a.434.434 0 0 0 .4.4.434.434 0 0 0 .4-.4 3.5 3.5 0 0 1 3.636-3.327 3.462 3.462 0 0 1 3.629 3.327v3.982c-.05-.05-.151-.05-.252-.1a5.229 5.229 0 0 0-.5-.2.716.716 0 0 0-.3-.1c-.1-.05-.2-.05-.3-.1-.2-.05-.353-.1-.554-.151-.1 0-.151-.05-.252-.05-.2-.05-.4-.05-.655-.1h-.161c-.252 0-.5-.05-.756-.05a8.065 8.065 0 1 0 8.065 8.065 7.677 7.677 0 0 0-3.528-6.7zM7.966 22.981a7.258 7.258 0 1 1 0-14.516 2.874 2.874 0 0 1 .655.05h.2c.151 0 .3.05.454.05.1 0 .2.05.3.05.151.05.3.05.4.1a3.212 3.212 0 0 0 .353.1c.05.05.151.05.2.1a8.2 8.2 0 0 1 1.159.554 7.22 7.22 0 0 1 3.528 6.2 7.3 7.3 0 0 1-7.258 7.309zm0 0" class="cls-1" data-name="Path 41" transform="translate(.099 -.198)"/>
        </g>
    </g>
</svg>
