<svg xmlns="http://www.w3.org/2000/svg" width="52" height="52" viewBox="0 0 52 52">
    <defs>
        <style>
            .cls-1{fill:#b68f2a}.cls-2{fill:#fff}
        </style>
    </defs>
    <g id="Group_3782" data-name="Group 3782" transform="translate(-181 -539)">
        <circle id="Ellipse_14" cx="26" cy="26" r="26" class="cls-1" data-name="Ellipse 14" transform="translate(181 539)"/>
        <g id="Group_3781" data-name="Group 3781" transform="translate(198.703 553.383)">
            <path id="Path_9889" d="M296.553 365.756a7.276 7.276 0 0 0-.374-.926A7.922 7.922 0 0 0 281 367.173v.986c0 .041.014.411.034.6.289 2.3 2.105 4.747 3.461 7.049 1.459 2.466 2.973 4.892 4.473 7.317.926-1.583 1.848-3.187 2.751-4.728.247-.452.533-.9.779-1.335.164-.289.479-.576.622-.843 1.459-2.672 3.809-5.364 3.809-8.016v-1.089a8.212 8.212 0 0 0-.376-1.356zm-7.632 4.953a2.825 2.825 0 0 1-2.706-1.932 2.68 2.68 0 0 1-.076-.72v-.637a2.677 2.677 0 0 1 2.871-2.631 2.911 2.911 0 0 1 2.916 2.961 2.985 2.985 0 0 1-3 2.959zm0 0" class="cls-2" data-name="Path 9889" transform="translate(-281 -360)"/>
        </g>
    </g>
</svg>
