<svg xmlns="http://www.w3.org/2000/svg" width="82.564" height="63.631" viewBox="0 0 82.564 63.631">
    <defs>
        <style>
            .cls-1,.cls-2{fill:#b68f2a}.cls-1{fill-rule:evenodd}
        </style>
    </defs>
    <g id="Group_2022" data-name="Group 2022" transform="translate(-.1 .1)">
        <path id="Path_102" d="M32.105 57.572c-.076-.076-.076-.152-.076-.3a1.883 1.883 0 0 1-.3-.686.8.8 0 0 0-.152-.381c-.076.076.076.3 0 .381-.152 0-.152-.076-.229-.076-.686-.076-.914.457-1.524.381-.076.076-.076.152-.229.152a.4.4 0 0 1-.152.3c-.229.3-.686.457-.61.991l.229.229a1.287 1.287 0 0 0 .152.381c.076.229 0 .3 0 .457s0 .229-.076.3v.3c-.076.229-.3.381-.381.533a.28.28 0 0 0-.076.229c0 .076-.076.152-.076.3.152.152.381-.076.61 0 .152-.152.381-.3.457-.457a3.185 3.185 0 0 1 .3-.762.761.761 0 0 1 .381-.3c.381 0 .533-.3.991-.3.228-.529.914-.758.761-1.672z" class="cls-1" data-name="Path 102" transform="translate(-6.782 -13.397)"/>
        <path id="Path_103" d="M26.062 57.114a1.436 1.436 0 0 0 .152-.61c-.152-.152-.229-.3-.381-.457a1.024 1.024 0 0 1-.533-.457c-.152 0-.3-.076-.457 0-.229.076-.229.381-.533.381a.738.738 0 0 1-.61.533c.076.229.229.381.3.61v.076c0 .381-.229.762-.229 1.143a2.225 2.225 0 0 0 .152.686c.076.152 0 .533.229.533.152-.076.229-.229.381-.381s.3-.381.457-.381c.076 0 .229.076.381 0a1.64 1.64 0 0 1 .61 0 3.52 3.52 0 0 1 .533-.533c.086-.61-.299-.839-.452-1.143z" class="cls-1" data-name="Path 103" transform="translate(-5.616 -13.243)"/>
        <path id="Path_104" d="M10.5 21.229c.076-.533.076-.914.381-1.219.076-.076.152-.076.229-.152.229-.152.61-.3.838-.457.076.076.152 0 .152.152a.28.28 0 0 1 .229-.076c.229 0 .3.152.457.152a1.136 1.136 0 0 1 .229.61c.076.229.381.3.533.533 0 .076.076.229.076.3a1.292 1.292 0 0 1 0 .762 1.083 1.083 0 0 1-.152.457c-.152.152-.3.381-.457.533-.381.076-.914.3-1.3.152-.152-.076-.229-.229-.381-.229a2.356 2.356 0 0 1-.152-.61c-.076-.076-.152-.076-.229-.152a2.03 2.03 0 0 0-.457-.762" class="cls-1" data-name="Path 104" transform="translate(-2.475 -4.64)"/>
        <path id="Path_105" d="M4.987 19.562c.152 0 .152-.076.3 0 .076 0 .152-.076.229-.152h.229c.152 0 .152-.152.229-.152.457.229.838-.3 1.219-.152 0 .152-.152.076-.152.152a2.291 2.291 0 0 1 .3 1.372 8.8 8.8 0 0 0 .159 1.218c0 .3.152.457-.152.533a4.654 4.654 0 0 1-.991-.229.164.164 0 0 1-.151-.152H5.6c-.076.152.076.3.076.61-.152 0-.229.152-.3.229-.152 0-.3-.381-.381-.533-.076-.229-.076-.457-.152-.762 0-.076-.076-.152-.076-.229a.829.829 0 0 0-.076-.381c-.076-.229-.229-.381-.229-.61A1.731 1.731 0 0 1 4 19.1c0-.152.152-.229.229-.3.381 0 .457.533.686.61 0 .076.076.076.076.152" class="cls-1" data-name="Path 105" transform="translate(-.924 -4.497)"/>
        <path id="Path_106" d="M107.448 31.425v-.685c0-.229-.152-.381-.152-.61a2.109 2.109 0 0 1-.076-.686 9.172 9.172 0 0 1 0-1.448c0-.3.152-.61.152-.838s-.076-.457-.076-.686v-.838c0-.3.076-.61.076-.838 0-.381-.457-.533-.61-.762-.152 0-.3.152-.381.076-.3-.381-.152-.686 0-1.143l.229-.686a1.229 1.229 0 0 0-.229-.686c0-.076-.152-.076-.229-.152s-.152-.152-.229-.152c-.229-.076-.229 0-.457.076a3.312 3.312 0 0 1-.3.533 1.015 1.015 0 0 0-.229.381c-.076.152-.152.229-.152.381a2.356 2.356 0 0 1-.152.61 12.917 12.917 0 0 0 .076 1.753 11.22 11.22 0 0 0 .762 1.677 4.594 4.594 0 0 1 .076 1.753c0 .229-.152.381-.152.61s.152.457.152.762v.61a7.9 7.9 0 0 0 .3.762v.076a1.317 1.317 0 0 1-.076.762c-.076.229-.3.3-.381.533-.152.457.076.838.076 1.3.076.229.3.3.229.61 0 .152-.152.229-.229.381s-.076.381-.152.61l-.229.457v.229a3.825 3.825 0 0 1-.152.914c-.076.152-.076.381-.152.533-.076.457-.152.914-.229 1.448a2.858 2.858 0 0 0-.076.838c0 .229-.076.457-.076.686v.457a8.307 8.307 0 0 0 .229 1.981c0 .229.076.381.076.61a8.281 8.281 0 0 1 .076 1.372v.152a3.166 3.166 0 0 0 .229.991v.381c0 .152.076.229.152.381v.076a15.25 15.25 0 0 1 .3 1.829v.076c.076.3.076.61.381.762.076-.152-.152-.381-.152-.457.229.076.076.457.229.533a.7.7 0 0 0-.229-.686V48.8c.076-.381 0-.762.3-1.067 0-.3-.152-.61-.152-.838v-.381a1.938 1.938 0 0 0-.152-.533c0-.152-.076-.381-.076-.533a1.083 1.083 0 0 1-.152-.457v-.229a4.219 4.219 0 0 0-.152-1.372 1.678 1.678 0 0 0 .076-.61v-.08c.076-.152.229-.229.3-.3s.076-.229.152-.3.076-.229.152-.3c0-.381-.381-.61-.381-.838a.578.578 0 0 1 .152-.3c.076-.152.152-.229.152-.3a1.565 1.565 0 0 0 0-.838 1.083 1.083 0 0 1-.152-.457c0-.076-.076-.152-.076-.3a2.356 2.356 0 0 1 .152-.61 1.894 1.894 0 0 0 .076-.61c.076-.152.076-.3.152-.457 0-.076 0-.076.076-.152.152-.61.381-1.3.533-1.981.152-.991.457-1.905.533-2.82.229-.152.152-.457.229-.686.015.049.091.049.015-.026z" class="cls-1" data-name="Path 106" transform="translate(-24.818 -5.082)"/>
        <path id="Path_107" d="M75.956 23.228c0-.152.076-.229.152-.381v-.3c0-.152.152-.229.152-.381.076-.3.076-.533.152-.914.3-.229.152-.686.381-1.067.076-.229.381-.3.457-.533a2.092 2.092 0 0 1 .152-.991c.076-.152.3-.229.381-.381a2.11 2.11 0 0 0 .076-.991v-.61c0-.076-.076-.152-.076-.229v-.3c-.076-.152-.229-.3-.229-.457-.3-.152-.457-.762-.991-.686-.152.152-.457.229-.61.457-.076.076 0 .3-.076.381-.076.152-.152.229-.229.381v.457a4.979 4.979 0 0 1 0 1.067v1.6a3.354 3.354 0 0 1-.152.762c-.152.686-.152 1.524-.3 2.134a23.327 23.327 0 0 0-.381 2.439c-.076.457-.076.914-.152 1.372 0 .152-.152.3-.152.457v.457a14.635 14.635 0 0 0 0 1.829c.076.3.152.457.229.762 0 .076.076.152.076.3 0 .229.076.457.076.686.076.3.076.686.152.991a3.3 3.3 0 0 0 .076.381v1.067a6.711 6.711 0 0 0 .152 1.3 6.972 6.972 0 0 1 .076 1.3v.686a4.966 4.966 0 0 0 .229 1.219h.076a.266.266 0 0 1 .152.076c.076.076.229.076.229.152 0 .229-.229.3-.229.533a2.828 2.828 0 0 0 .152.686 1.3 1.3 0 0 1-.076.533 3.3 3.3 0 0 1-.076.381v.991c0 .076-.076.229-.076.3v.229c0 .152.076.381.076.533 0 .3-.152.533-.152.838a1.486 1.486 0 0 1-.076.61l-.076.076c.152.076-.076.229-.152.152a1.4 1.4 0 0 1-.914.152c-.229-.152-.229-.3-.457-.3s-.381.152-.533.076c-.076 0-.152-.076-.229-.152l-.229-.229c-.076 0-.152-.076-.229-.076a4.858 4.858 0 0 0-.533-.152c-.076 0-.152-.076-.229-.152a3.159 3.159 0 0 0-1.219-.229c-.229 0-.381-.076-.61-.076h-1.3c-.381 0-.762-.152-1.143-.152-.838-.076-1.753 0-2.591 0a7.341 7.341 0 0 0-1.3 0c-.3 0-.61.152-.914.152h-.533c-.152 0-.3.076-.533.076a4.292 4.292 0 0 0-.991 0c-.3.076-.686.076-.991.152-.152 0-.3.152-.381.152-.152 0-.381.076-.533 0-.152 0-.3-.152-.381-.152H58.2c-1.067-.076-2.21.076-3.2 0a4.46 4.46 0 0 1-.991-.152 4.46 4.46 0 0 0-.991.152 2.962 2.962 0 0 1-1.143.152c-.457 0-.838-.3-1.3-.3a5.767 5.767 0 0 1-1.143-.076.865.865 0 0 0-.61-.229 2.166 2.166 0 0 0-.914.3c-.3.152-.686.152-.914.3a8.4 8.4 0 0 0-1.372.152 3.82 3.82 0 0 1-1.3.076c-.229 0-.457-.152-.762-.076-.229-.076-.3-.229-.533-.3s-.457-.076-.61-.152-.229-.229-.381-.3a8.031 8.031 0 0 1-.838-.533c-.076-.076-.229-.152-.3-.229a1.662 1.662 0 0 0-.381-.3c-.229-.152-.381-.229-.61-.381a3.384 3.384 0 0 1-.838-.61c-.152-.152-.3-.381-.457-.457-.076-.076-.229-.076-.381-.152-.076 0-.076-.076-.152-.076a2.02 2.02 0 0 0-.457-.381 4.253 4.253 0 0 1-.61-.381c-.152-.076-.229-.229-.3-.3-.3-.3-.762-.457-.991-.838a.075.075 0 0 0-.076-.076 10.458 10.458 0 0 1-2.21-1.905 7.149 7.149 0 0 0-.914-.686 3.315 3.315 0 0 1-.533-.457c-.076-.076-.229-.076-.3-.152l-.3-.152a4.228 4.228 0 0 1-.61-.457c-.152-.152-.152-.3-.3-.457-.3-.229-.762-.3-.914-.686a4.137 4.137 0 0 1-1.143-.686c-.152-.152-.457-.381-.61-.533a1.666 1.666 0 0 1-.229-.381c-.076-.076-.152-.076-.229-.152-.152-.152-.3-.229-.381-.381-.076-.076-.152-.152-.152-.229-.076-.076-.229-.076-.381-.152l-.152-.152-.076-.076c-.076-.076-.152-.076-.229-.152a4.347 4.347 0 0 1-.838-.838 6.871 6.871 0 0 0-.762-.686l-.152-.076a1.665 1.665 0 0 0-.381-.229c-.076-.152-.229-.229-.229-.3-.152-.076-.229-.076-.3-.229a1.821 1.821 0 0 1-.686-.229c-.152.152-.3.381-.533.381a1.245 1.245 0 0 1 0 .533c-.152 0-.229-.076-.3.076.076.076.229 0 .3.076a6.536 6.536 0 0 0 1.499.962 4.893 4.893 0 0 1 .991.762l.076.076.3.3a4.253 4.253 0 0 0 .61.381 5.1 5.1 0 0 0 1.3.533c0 .152.152.152.152.3a.575.575 0 0 0 .076.61 5.348 5.348 0 0 0 .686.457c.457.3.838.762 1.219 1.067a2.561 2.561 0 0 0 1.067.61 6.806 6.806 0 0 1 .381.991c.152.152.381.3.457.457v.076a1.666 1.666 0 0 0 .229.381c.152.152.3.152.457.3a1.665 1.665 0 0 1 .229.381 2.373 2.373 0 0 0 .686.533c.152.076.229.229.3.3.076.076.152.229.3.3a1.665 1.665 0 0 0 .381.229c.3.229.533.61.838.838 0 .076.076.152.076.229a1.532 1.532 0 0 1 .61.3c.152.076.229.152.381.229a3.972 3.972 0 0 0 1.143.457 3.186 3.186 0 0 1 .838 1.3c.3.3.533.686.838.991.076.076 0 .152 0 .229.229.229.533.381.61.762v.076a2.962 2.962 0 0 1-1.143.152 1.938 1.938 0 0 1-.533-.152c-.152 0-.3-.076-.457-.076h-.152c-.152-.076-.229-.152-.381-.152a4.141 4.141 0 0 0-1.677 0 .571.571 0 0 0-.381.076c-.152.076-.3.076-.381.152h-.61c-.229 0-.381.152-.61.152a2.825 2.825 0 0 1-1.143.3 1.083 1.083 0 0 1-.457.152h-.216l-.076.076h-.152a3.182 3.182 0 0 1-1.753-.533l-.152-.152a.458.458 0 0 0-.3-.076.918.918 0 0 1-.381-.381 3.534 3.534 0 0 0-1.6-.3 2.54 2.54 0 0 1-.762 0c-.152-.3-.61-.381-.914-.533-.3.076-.686.152-.991.229a6.482 6.482 0 0 1-1.677.3 3.166 3.166 0 0 1-.991-.229.578.578 0 0 0-.3-.152 2.225 2.225 0 0 1 .152-.686v-.229c0-.152-.076-.3-.076-.457 0-.229.152-.381.229-.61a2.029 2.029 0 0 1-.229-.914v-1.957a2.422 2.422 0 0 0-.152-1.067 1.083 1.083 0 0 1-.152-.457V35.8c0-.076-.076-.076-.076-.152-.076-.076-.076-.152-.152-.229v-.229a4.5 4.5 0 0 1-.152-1.067c.076-.762.152-1.448.229-2.21-.076-.152 0-.457-.152-.61-.686.152-.762.838-1.3 1.143a2.907 2.907 0 0 0-.838 1.067c-.076.152-.152.229-.152.381 0 .229.229.381.381.457.152.152.533.381.457.686 0 .152-.152.3-.152.381s-.076.152-.076.229a.28.28 0 0 0-.076.229 4.307 4.307 0 0 1 0 .991c0 .076-.152.229-.152.229v.076c-.076.152-.076.076-.152.229a.266.266 0 0 1-.076.152c0 .076-.076.076-.076.152a.424.424 0 0 0 .533.229c.152.152.533.152.686.381a6.706 6.706 0 0 1 .381 1.143c0 .152.076.3.076.457a2.857 2.857 0 0 0 .076.838c0 .229.152.381.229.61a2.54 2.54 0 0 0 0 .762 1.793 1.793 0 0 1 .152.61.941.941 0 0 1-.61.3c-.3 0-.533-.229-.838-.229s-.533.3-.762.381a2.225 2.225 0 0 1-.686.152c-.229 0-.381-.152-.61-.229-.076 0-.076.076-.152.076h-.152c-.076 0-.229.076-.3.076a1.938 1.938 0 0 1-.533-.152 1.64 1.64 0 0 1-.61 0c-.3-.229-.3-.914-.3-1.372v-4.869a2.937 2.937 0 0 1-.152-1.448v-.076a10.229 10.229 0 0 1 .076-1.6v-.457a1.083 1.083 0 0 1 .152-.457v-.686a2.356 2.356 0 0 1 .152-.61 1.678 1.678 0 0 1 .076-.61 1.436 1.436 0 0 1 .152-.61v-.686a15.3 15.3 0 0 0 .076-1.829 18.369 18.369 0 0 1 0-2.9c0-.229.152-.457.152-.686 0-.152-.152-.381-.152-.61a9.424 9.424 0 0 1-.152-1.372v-1.6c0-.381.076-.838.076-1.219 0-.152-.076-.3-.076-.457a3.3 3.3 0 0 1 .076-.381 1.906 1.906 0 0 0-.229-.991c-.61.076-.686.61-1.219.686-.076.076-.076.152-.152.229-.076.152-.152.152-.152.229a1.135 1.135 0 0 0 .3.686c.152.152.533.3.457.61 0 .152-.152.152-.229.229a.28.28 0 0 1-.076.229 7.212 7.212 0 0 0-.381 1.372 2.225 2.225 0 0 0-.152.686v.381c0 .229-.076.381-.076.533a.817.817 0 0 0 .152.457c0 .076.076.229.076.3.076.152.229.229.3.457a2.7 2.7 0 0 1 .229.838 5.25 5.25 0 0 0 .229.61c.076.229.152.381.229.61-.076.152-.152.381-.381.457a5.776 5.776 0 0 0-.457 1.219V31.379c0 .152.076.229.076.381 0 .076-.076.152-.076.229a6.46 6.46 0 0 0 0 1.219 2.072 2.072 0 0 1 0 .686c0 .229-.152.381-.152.61a2.416 2.416 0 0 1-.381.457v.076a.075.075 0 0 0-.076.076.967.967 0 0 0-.076.457.978.978 0 0 0 .3.762.761.761 0 0 1 .381.3c0 .3-.229.457-.3.686v.229a3.273 3.273 0 0 1 0 1.219c.076.152.152.152.229.3a.687.687 0 0 1-.076.381V40.6a3.3 3.3 0 0 1-.076.381v.686c0 .686-.076 1.219-.076 1.753a1.133 1.133 0 0 0-.457-.076c-.076 0-.152.076-.229.152a.4.4 0 0 1-.3.152c.076 0 .076-.076.152-.076a13.8 13.8 0 0 0-1.765.228c-.152 0-.229-.076-.381-.076a1.413 1.413 0 0 0-.533.152c-.076-.152-.229-.229-.3-.3-.076-.076-.152-.152-.152-.229a2.225 2.225 0 0 1-.152-.686c0-.152.076-.229.076-.381 0-.076-.076-.152-.152-.229 0-.076-.076-.229-.076-.3v-.152a14.646 14.646 0 0 1 0-1.829v-.076a.687.687 0 0 1 .076-.381 1.3 1.3 0 0 1 .076-.533c0-.076.076-.229.076-.3 0-.229-.152-.533-.152-.762v-.076a4.524 4.524 0 0 0 .3-.61v-.61c.076-.152.229-.3.229-.457.152-.076.229-.229.3-.3.076-.076.076-.076.076-.152a1.614 1.614 0 0 0 .229-.533 2.422 2.422 0 0 0-.154-1.08c-.229-.914-.381-1.829-.533-2.667-.076-.381-.076-.838-.152-1.143a.578.578 0 0 0-.152-.3c0-.076-.076-.152-.076-.229a6.862 6.862 0 0 1-.229-1.219 1.678 1.678 0 0 0-.076-.61c-.076-.3-.229-.533-.152-.838a.643.643 0 0 0-.533-.152c-.229.152-.3.381-.533.533-.152 0-.229-.076-.381-.076-.229.152-.229.381-.381.61-.229.381-.61.762-.838 1.143a4.253 4.253 0 0 1-.381.61l-.229.229c-.076.076-.152.229-.229.3-.152.229-.3.381-.457.61-.076.152-.076.3-.152.381a1.052 1.052 0 0 1-.229.3 2.282 2.282 0 0 0-.3.762 1.314 1.314 0 0 1-.457.457s-.152.076-.152.152c-.076.076-.076.229-.152.381a4.859 4.859 0 0 1-.61 1.067c-.229.381-.457.914-.61 1.219 0 .076 0 .076-.076.152v.076c-.229.533-.61.914-.838 1.372a3.715 3.715 0 0 0-.229.533c.152.152.152.229.152.3a7.905 7.905 0 0 1-.3.762 1.64 1.64 0 0 0 0 .61 3.3 3.3 0 0 0 .076.381v.076a.164.164 0 0 0 .152.152c.076-.076-.076-.076 0-.152a.571.571 0 0 1 .076.381c-.076 0-.076-.3-.152-.229a7.08 7.08 0 0 1 .381.762 7.111 7.111 0 0 0 1.524.762.266.266 0 0 0 .076.152c.076.229.229.381.3.61.076.076.152.229.229.3s.3.076.229.229a1.939 1.939 0 0 1 .533.152 2.11 2.11 0 0 0 .686.076c.457-.076.762-.3 1.143-.381.076-.076 0-.3.152-.381.152 0 .3.152.457.076.152 0 .3-.3.61-.229.152-.229.381-.3.533-.457a.236.236 0 0 1 .152-.076l.152-.152v.229c0 .533-.076.991-.076 1.524a.571.571 0 0 0 .076.381.687.687 0 0 0 .076.381c0 .381-.076.686.076.914-.076-.076 0 .076 0 .076a.669.669 0 0 0 .076.533.266.266 0 0 0 .076.152v.076h.076v.152c0 .076.076.076.076.152a.586.586 0 0 0 .152.229c.076.152.152.152.229.229s0 .229.152.229c.3-.381.61-.838.914-1.219a1.829 1.829 0 0 1 .914-.533c.229.152.533 0 .762.076.152-.152.381-.152.533-.229.076.076.152 0 .3-.076a2.11 2.11 0 0 0 .686-.076c.229-.076.3-.3.533-.3a.7.7 0 0 1 .3.457c.076.076.229.229.152.381.229 0 .3.3.457.381l.076.076a.28.28 0 0 0 .229-.076c.152-.076.229-.229.381-.3.229-.152.381-.457.533-.457.229-.076.457.076.686 0a7.135 7.135 0 0 0 1.219-.3c.3-.076.61.076.838 0 .152 0 .229-.152.381-.152.381-.076.61-.152.914-.229a4.227 4.227 0 0 1 .61-.457c.152.152.152.381.229.533s.3.152.381.3c.152-.076.229.076.381.076h.457c.076 0 .152.152.229.152.076.076.229 0 .3.076a5.244 5.244 0 0 0 .991.152c.3 0 .686.076 1.067.076.457 0 .838-.076 1.372-.076h.776a5.922 5.922 0 0 1 1.219.152 12.879 12.879 0 0 0 2.972 0c.762-.152 1.6-.152 2.286-.229.533-.076.914-.152 1.372-.229a3.772 3.772 0 0 0 .991-.3c.3.076.61-.076.914-.076a1.992 1.992 0 0 1 .61.229 5.249 5.249 0 0 0 .61.229 2.255 2.255 0 0 0 .762.152 10.373 10.373 0 0 0 1.6-.152c.3-.076.61-.152.838-.229s.533-.076.838-.152a4.686 4.686 0 0 1 .838-.229c.3 0 .533.3.762.229.152 0 .3-.152.381-.152.152-.076.229-.152.381-.152.229 0 .457.152.762.152a6.832 6.832 0 0 0 1.829-.152 4.46 4.46 0 0 1 .991-.152c.076 0 .152.076.229.076a1.875 1.875 0 0 0 .838-.3.266.266 0 0 0 .152-.076.754.754 0 0 1 .61-.076 1.793 1.793 0 0 1 .61.152c.076 0 .229.076.3.076a1.3 1.3 0 0 0 .533.076 1.13 1.13 0 0 1 .533.076c.076 0 .152.076.229.152a3.3 3.3 0 0 1 .381.076h.3l.457.229c.229.076.457 0 .762.076a2.422 2.422 0 0 1 .686.229h.3a6.076 6.076 0 0 1 1.143.229c.229.076.533 0 .762.076a4.106 4.106 0 0 1 .762.229h.61a1.793 1.793 0 0 1 .61.152 3.672 3.672 0 0 1 .914 0c.533 0 1.219-.152 1.6-.152h.381c.076 0 .229-.076.3-.076h.3c.229 0 .457-.229.686-.152a2.347 2.347 0 0 1 .991-.229c.152-.229.381-.152.686-.229.076 0 .152-.152.3-.152h.381a1.794 1.794 0 0 1 .61-.152 13.394 13.394 0 0 1 1.753 0c.381 0 .762-.076 1.143-.076.229 0 .381.076.61.076a8.932 8.932 0 0 1 2.058.3 2.857 2.857 0 0 1 .838-.076c.152.076.152.152.229.076a2.054 2.054 0 0 0 .61.533c.381 0 .838-.152 1.219-.152a2.384 2.384 0 0 1 .762.381 1.793 1.793 0 0 1 1.448.533l.076.076c.076.152 0 .381.152.457a.693.693 0 0 0 .3-.61 2.092 2.092 0 0 0-.152-.991c-.076-.152-.076-.3-.152-.457a.967.967 0 0 1-.076-.457c0-.152.076-.381.076-.533a10.591 10.591 0 0 1 .457-1.448l.229-.457c0-.076.076-.152.076-.229a2.825 2.825 0 0 0 .3-1.143v-.152c0-.152-.076-.229-.076-.381a1.938 1.938 0 0 0-.152-.533 5.289 5.289 0 0 0-.381-.991v-.076a9.027 9.027 0 0 1 .152-1.981v-.152c0-.076-.076-.229-.076-.3 0-.381.152-.762.152-1.067a2.664 2.664 0 0 0-.229-.914 1.488 1.488 0 0 0-.076-.533 5.031 5.031 0 0 1-.076-1.067v-.465c0-.152-.152-.381-.152-.533a.967.967 0 0 1 .076-.457v-.3a1.794 1.794 0 0 0-.152-.61c-.076-.152-.229-.152-.3-.3v-.152a.075.075 0 0 1-.076-.076 3.867 3.867 0 0 1-.61-2.439.777.777 0 0 0 .381-.61 3.825 3.825 0 0 0-.152-.914c0-.229.076-.533.076-.838a1.192 1.192 0 0 0 .259-.773zM7.3 41.365a2.554 2.554 0 0 0-.762 0 2.02 2.02 0 0 1-.991.076 1.082 1.082 0 0 1-.686-.61s-.152-.076-.152-.152c-.076.076-.152-.076-.229-.152-.076-.533-.457-.762-.914-.914h-.081a1.367 1.367 0 0 1-.381-.533c.076-.152 0-.381 0-.457a1.1 1.1 0 0 1 .152-.533 1.287 1.287 0 0 1 .152-.381c0-.076.076-.076.076-.152a1.287 1.287 0 0 0 .152-.381l.229-.229c.076-.076.076-.229.152-.3a2.537 2.537 0 0 0 .229-.457.266.266 0 0 0 .076-.152.458.458 0 0 0 .076-.3v-.088c0-.076.152-.152.152-.229.152-.229.3-.533.457-.762a4.768 4.768 0 0 1 .762-1.524 11.016 11.016 0 0 0 .838-2.21c.152-.076.229-.229.381-.229.3.229.3.61.3.991 0 1.372.686 2.743.61 4.039v1.981a17.171 17.171 0 0 0 0 1.981 7.86 7.86 0 0 0 .152 1.524c-.297.001-.45.153-.75.153z" class="cls-1" data-name="Path 107" transform="translate(-.108 -3.591)"/>
        <path id="Path_108" d="M58.134 43.261a1 1 0 0 1 .762.457 7.881 7.881 0 0 1-.229.914c-.152 0-.457-.076-.61.152-.61-.3-.61-.152-.61-.533a1.218 1.218 0 0 1 .686-.991m-3.124.3c.076 0 .076.076.152.076s.076 0 .076-.076c.076 0 .076.076.229.076s.229-.152.3-.152a1.059 1.059 0 0 1 .991.61c.076.533-.076.914-.686.914-.152 0-.076-.076-.229-.076s-.076.076-.152.076a.576.576 0 0 0-.61-.229c0-.152.076-.381-.152-.381.152-.3 0-.686.076-.838m2.134 17.07a.386.386 0 0 0-.076.381c0 .076 0 .381.229.381a1.338 1.338 0 0 0 .3-.381v-.381a.48.48 0 0 1-.457 0m.076-2.591c-1.219 1.448-2.591 3.124-3.886 4.649v.152a6.338 6.338 0 0 0 .991.152c.152 0 .229-.152.3-.152.152 0 .076.076.229.076s.3-.152.457-.152a.571.571 0 0 1 .381.076c.152-.152.381-.152.533-.3a3.451 3.451 0 0 1 .229-1.219c-.152 0-.152-.152-.152-.229a1.04 1.04 0 0 1 .838-1.067c.381 0 1.143.076 1.219.762.076.381-.152.457-.381.838.076 0 .152 0 .152.076l-.3.3v.381c.533-.076 2.21-.229 2.743-.229v-.381a26.53 26.53 0 0 0-3.353-3.734m-1.372-6.325a3.136 3.136 0 0 0-.61.229v.158a2.993 2.993 0 0 0 1.372 1.143 7.215 7.215 0 0 1 1.3-.686c.152 0 .076.076.229.076s.076-.076.229-.152h.229c.076.152.152.229.229.381.3-.381.686-.762.991-1.143v-.152h-.457c0 .076 0 .076-.076.076-.152 0-.076-.076-.229-.076s-.076.076-.152.152l-.762.076c-.152 0-.076-.076-.152-.076 0 .076 0 .076-.152.076s-.61-.152-.762-.152-.229.152-.3.152a3.71 3.71 0 0 1-.914-.076m1.448-1.6c.076.3-.076.152-.229.457h-.152a.28.28 0 0 1-.076-.229h-.457c-.3.3-.762.533-.991.914.457 0 .991.152 1.3.152.152 0 .076-.076.229-.152a7.909 7.909 0 0 1 .991.3l.991-.076c.3-.076.457-.3.914-.3a3.484 3.484 0 0 0-1.829-.914v-.229c-.3.3-.3.076-.686.076m.381-.533c0 .076-.076.152-.076.229h.3q-.114-.229-.229-.229m-.762-.457a.571.571 0 0 0 .381.076.571.571 0 0 0-.381-.076m2.74-6.328a.571.571 0 0 0 .381.076c-.152-.152-.229-.152-.381-.076m-.381-1.143v.229c.076 0 .152.076.229.076v-.152c-.076-.076-.152-.152-.229-.152m-.076-.229c.152.076.3.076.457.152v-.152zm.152-.533c0 .076-.076.152-.076.229h.229c0-.076.076-.152.076-.229zm-.229-10.288c-.076 0-.152.229-.533.076v.3a.582.582 0 0 1 .381-.152.571.571 0 0 1 .381.076c0-.076 0-.076.152-.152a.582.582 0 0 0-.381-.152m-.381-.381a.571.571 0 0 0 .381.076.571.571 0 0 0-.381-.076m-.457-19.813h.3s.533.686.533.914c0 .152-.076.076-.076.229l.076.686c0 .3-.152.61-.152.991 0 .152.152.3.152.381 0 .152-.076 0-.076.152s.152 0 .152.152-.076.152-.076.229c0 .152.076.152.152.152a.28.28 0 0 0-.076.229c0 .152.076.152.152.152 0 .076-.076.076-.076.229s.152.076.152.229-.076.152-.076.3.152.152.152.229c0 .152-.152 0-.076.076 0 .152.152 0 .152.152s-.152.457-.152.686v1.067c0 .381.076.152.381.457-.076 0-.076 0-.152-.076H59.5a.937.937 0 0 0-.076.61c0 .152.152.152.152.3 0 .3-.229.991-.229 1.219l.076.61c0 .152 0 0 .152.076-.076.152-.229.229-.229.381s.076.152.152.152a.28.28 0 0 0-.076.229c0 .152.152.3.152.381 0 .229.076.3-.229.381.076.076.076.152.229.152 0 .152-.076.229-.076.3v1.372a.42.42 0 0 0 .152.381h-.152c-.076.076 0 .076 0 .229s.152.381.152.533a6.555 6.555 0 0 0-.076 1.219c0 .152 0 .152.076.229.076-.076.076-.152.152-.229a3.866 3.866 0 0 0-.152.686c0 .152.152.152.152.3s-.076.076-.076.229l.076.61c0 .152 0 0 .152.076a.28.28 0 0 0-.076.229c0 .152.152.152.152.229 0 .152-.076.076-.076.152l.076 1.067c0 .152-.152 0-.076.076 0 .229.533.686.533.762-.076-.076-.229-.076-.3-.152h-.152l.076.686a.586.586 0 0 0 .229.152c-.076.229-.3.457-.3.61s.3.381.3.533-.076 0-.076.152.076 0 .152.076l.152 1.219c0 .152-.152 0-.076.076 0 .152.152 0 .152.152a3.3 3.3 0 0 1-.076.381c.076.533 0 .076.533.457h-.381c-.076.076-.076 0 0 .152 0 .152.076.076.152.076a.28.28 0 0 0-.076.229c0 .152.076.152.152.152a1.092 1.092 0 0 0-.152.533c0 .152.152.3.152.381 0 .152-.076.076-.076.229l.076 1.067c0 .152 0 0 .152.076-.076.152-.229.229-.229.381s.076 0 .152.076c0 .152-.076.076-.076.229s.076.152.152.152c-.076.076-.076.152-.076.3s0 .152.152.229a.571.571 0 0 0-.076.381c0 .229 0 .152.229.3h-.152c0 .152-.152.3-.152.457s.076.076.152.076c0 .076-.076 0-.076.152l.076.838 1.677 2.743a.687.687 0 0 1-.076.381c.076.076.152.076.229.152h-.152c-.152 0-.076-.076-.076-.076-.686.61-.381.991-1.219.991-.152 0-.61-.229-.762-.229-.229 0-.457.381-.533.762a2.658 2.658 0 0 0-.991 1.524.149.149 0 0 0 .152.152c-.076 0-.076-.076-.152-.076a3.393 3.393 0 0 0-.457.914c0 .152.152.229.229.381-.076.076-.076.229-.229.3.457.3 1.143.152 1.6.381a4.21 4.21 0 0 1 1.3 1.067c-.076.229-1.3 2.515-2.21 2.591-.381 0-.3-.533-.686-.686v.381a.28.28 0 0 0-.229.076.4.4 0 0 1 .152.3c0 .152-.152.457-.152.61s.076 0 .152.076c0 .152-.152 0-.076.076 0 .152.152 0 .152.152s-.229 1.143-.229 1.219c0 .152 0 .152.152.229-.3.229-.076.686-.229.914a12.908 12.908 0 0 0 1.448 1.448.075.075 0 0 1 .076-.076c0 .076-.076.076-.076.229s.457.3.61.457c.381.457.838 1.143 1.219 1.677a13.255 13.255 0 0 0 .838 1.372c-.152.152-.152.229-.3.229s-.3.076-.381-.152c-.686.229 0 .61-.61.686-.152 0-.152-.076-.3-.076s.076.076-.076.076l-2.058.229c-.381-.3-1.372 0-1.677-.533l-.076-.686c0-.152.076-.076.076-.076-.076-.076 0 0-.152 0-.229 0-.3.762-.3.762 0 .152.152.076.152.229 0 .076-.229.3.076.533h-.392a4.857 4.857 0 0 1-.533-.152c-.152 0-.076.076-.229.152-.152 0-.076-.076-.229-.076s-.152.076-.3.152c-.152 0-.381-.152-.533-.152l-.838.076c-.152 0-.381-.152-.533-.152s-.076 0-.076.076h-.3c-.076-.076-.152-.152-.229-.152v-.152c.762-1.067 4.344-5.106 4.267-5.715l-.076-.686c0-.152.229-.229.229-.381l-.076-.686c0-.152.229-.381.152-.533 0-.152-.076-.152-.152-.152.076-.076.229-.152.229-.3s-.076-.076-.152-.076c.076-.229.3-.533.3-.61 0-.152-.152-.152-.152-.229-.076-.076 0 0-.152 0s-.533.381-.686.381-.076-.076-.152-.076c-.152 0-.076.076-.229.152-.61.076-1.143-1.143-2.439-1.981.152-1.067 2.743-2.21 2.743-2.591 0-.152-.152-.3-.152-.457a.788.788 0 0 1 .076-.3l-.076-1.067c.076 0 .076 0 .076-.152s-.152-.152-.152-.229c0-.152.076-.076.076-.229s-.3-.61-.3-.686c0-.152.076-.076.076-.076-.076-.076-.076-.152-.229-.152v-.117h.457c0 .152 0 .229.076.3.076 0 .076-.076.152-.076v.229c0 .152-.076 0-.076.076v.3c.076-.076.076-.152.152-.229a1.228 1.228 0 0 0 .3.533l.152 1.829h.228c.61-.991 1.3-2.286 1.905-3.353.076 0 1.677-.3 1.6-.762-.076-.381-.533-.381-.533-.991-.762.076-.838-.533-1.448-.838 0-.076.076-.076.076-.152-.152-.3-.152-.381-.381-.533l-.076-.686c0-.152 0 0-.076 0 0-.076.076-.076.076-.229s-.152-.076-.152-.229.076-.152.076-.3 0-.152-.152-.229v-.3h.152v-.3c0-.076-.152-.3-.152-.381 0-.152.152 0 .076-.076 0-.152-.152-.076-.152-.152q.229-.114.229-.229l-.152-1.219c0-.152-.3-.381-.533-.61.3-.076.457-.381.381-.381 0-.152-.152 0-.152-.152s.076 0 .076-.152-.076.076-.152-.076l.229-1.677c0-.152.152.076.076-.076 0-.152-.076.076-.152-.076v-.233a.28.28 0 0 0 .229-.076c-.152-.076-.152-.229-.152-.381s.076-.3.076-.457-.152-.152-.152-.229c0-.152.076-.076.076-.229s0-.076-.152-.076c0-.076.076 0 .076-.076l-.076-.686c0-.152.152.076.076-.076 0-.152-.152-.076-.152-.229a3.089 3.089 0 0 1 .381-.686c-.076-.076-.076-.152-.229-.152l-.457-4.877c0-.152.152.076.076-.076 0-.152-.076 0-.152-.076 0-.152.152 0 .076-.076 0-.152-.152-.076-.152-.229s.076-.076.076-.229a.938.938 0 0 1-.152-.381 4.58 4.58 0 0 0 0-1.143c0-.076.076 0 .076-.152L57.3 22.99c0-.152.076 0 .076-.076l-.152-1.143c0-.152.076 0 .076-.076l-.076-.686c0-.152.076 0 .076-.076l-.152-1.143.152-.533-.076-.686s.152-.533.152-.61c0-.152-.076 0-.152-.076 0-.152.152.076.076-.076l-.076-.838c0-.152.076 0 .076-.076l-.076-.686c0-.152.152-.533.152-.686l-.076-.686c0-.152.076 0 .076-.076L57.3 14c0-.152.076 0 .076-.076l-.076-.991a12.613 12.613 0 0 1 .457-1.6zM85.568.814c.152.076.3.076.457.152V.814zM82.825.662c.076.076.152.076.3.076a.458.458 0 0 0-.3-.076m1.3-.3c-.152.152-.3.152-.381.3h.3c0-.076 0-.076.076-.076zM72.918.281L73.985.2c.152 0 .076.076.229.076S74.137.2 74.29.2l1.3-.076c.152 0 0 .076.152.076s.152-.076.3-.152c.152 0 .152.076.3.076a.282.282 0 0 1 .229-.152.788.788 0 0 1 .3.076l.929-.072c.152 0 0 .076.152.076l1.143-.076c.152 0 0 .076.152.076s.076-.076.229-.152c.152 0 .076.076.229.076h.914c.152 0 0 .076.152.076l.686-.076c.152 0 0 .076.152.076l.686-.076c.914-.076 5.334.686 5.487.686a8.259 8.259 0 0 0 1.448.61v.152c-.076 0-.076.152-.229.152 0 0 .152.076.152.152h-.3c-.3-.229-.457-.61-.838-.533-.381 0-.229 0-.533.381a1.024 1.024 0 0 0-.686-.152.266.266 0 0 1 .076-.152c-.076-.076 0 0-.152 0s-.076.076-.229.152a48.492 48.492 0 0 0-5.419-.838l-.61.152c-.152 0 0-.076-.152-.076h-.686c-.076 0-.762-.152-.762-.152-.152 0 .076.076-.076.076l-.914.152c-.152 0 0-.076-.152-.076l-1.144.076a3.3 3.3 0 0 0-.381-.076c-.152 0-.3.152-.457.152s-.076-.076-.152-.076c-.152 0 0 .076-.076.076-.152 0 0-.076-.152-.076l-1.6.152a1.722 1.722 0 0 0-1.143.381.266.266 0 0 1 .076-.152c-.076-.076 0 0-.152 0s-.152.152-.3.152S72.156 1.2 72 1.2s-.152.076-.152.152a4.7 4.7 0 0 1-.686.076c0 .076.152.076.152.152l-.682-.08c0-.076 0-.076-.152-.076s-.076 0-.076.076l-.762.076A26.315 26.315 0 0 0 65.3 3.482c0 .3-.457.381-.686.61 0 .076 0 .076.152.076V4.4h-.152a.458.458 0 0 1-.076.3c-.076-.152-.152-.152-.229-.152 0-.076.076-.076.076-.152v-.152h-.229c-.61.076-.381.762-.838.838 0 0 .152.076.152.152-.229 0-.686 0-.762.381h.152c.076 0 .076-.076.3-.076-.229.076-.381.229-.533.229-.076.076-.076 0 0 .076a.149.149 0 0 0 .156.156 1.483 1.483 0 0 0-1.067 1.143 1.034 1.034 0 0 0-.838.533c0 .076 0 .076.152.076-.152.229-.533.533-.61.686-.229.457-.3.914-.838.991-.914.076-.533-.762-1.219-1.067l-.076-.686c.3-1.448 2.058-1.753 2.743-2.972.076 0 .076.076.152.076 1.219-1.143 3.2-1.905 4.649-2.743.076 0 .076.076.152.076A10.453 10.453 0 0 1 69.26.891c.152 0 .076.076.229.076s.229-.076.3-.229l.762-.076c.152 0-.076-.076.076-.076L71.47.51c.152 0-.076-.076.076-.076l1.22-.077c.152 0 0-.076.152-.076" class="cls-2" data-name="Path 108" transform="translate(-12.54)"/>
        <path id="Path_109" d="M1.033 79.472h.61l-.229-.61c-.076-.229-.076-.381-.152-.457 0 .152-.076.3-.076.457zm-.533.914l.762-2.286h.3l.762 2.286h-.3L1.8 79.7h-.767l-.233.686z" class="cls-1" data-name="Path 109" transform="translate(-.095 -18.608)"/>
        <path id="Path_110" d="M5.929 79.167h.533c.152 0 .229 0 .3-.076.076 0 .076-.076.152-.152 0-.076.076-.152.076-.229s0-.229-.076-.229c-.076-.076-.152-.076-.3-.076h-.685zM5.7 80.386V78.1h.838a.571.571 0 0 1 .381.076c.076.076.152.076.229.229a.458.458 0 0 1 .076.3.582.582 0 0 1-.152.381 1.666 1.666 0 0 1-.381.229.236.236 0 0 0 .152.076 1.052 1.052 0 0 1 .229.3l.3.61h-.3l-.229-.457c-.076-.152-.152-.229-.152-.3-.076 0-.152 0-.152-.076a.266.266 0 0 0-.152-.076h-.458v.991H5.7z" class="cls-1" data-name="Path 110" transform="translate(-1.333 -18.608)"/>
        <path id="Path_111" d="M11.21 80.41v-1.981h-.61V78.2h1.524v.229h-.61v1.981z" class="cls-2" data-name="Path 111" transform="translate(-2.498 -18.631)"/>
        <path id="Path_112" d="M19.914 79.548v-.3h.838v.838c-.152.152-.229.229-.381.229a.829.829 0 0 1-.381.076 1.413 1.413 0 0 1-.533-.152.918.918 0 0 1-.381-.381 1.13 1.13 0 0 1-.076-.539 1.436 1.436 0 0 1 .152-.61c.076-.229.229-.3.3-.457a1.1 1.1 0 0 1 .533-.152.687.687 0 0 1 .381.076c.076.076.229.152.229.229.076.076.076.229.152.381l-.229.076c0-.152-.076-.229-.076-.3-.076-.076-.076-.152-.152-.152a.28.28 0 0 0-.229-.076c-.152 0-.229 0-.3.076s-.152.076-.229.152-.076.152-.152.229a.967.967 0 0 0-.076.457 1.13 1.13 0 0 0 .076.533 1.052 1.052 0 0 0 .229.3.571.571 0 0 0 .381.076.458.458 0 0 0 .3-.076c.076-.076.152-.076.229-.152v-.381z" class="cls-2" data-name="Path 112" transform="translate(-4.497 -18.608)"/>
        <path id="Path_113" d="M24.633 79.472h.61l-.229-.61c-.076-.229-.076-.381-.152-.457 0 .152-.076.3-.076.457zm-.533.914l.762-2.286h.3l.762 2.286h-.381l-.229-.686h-.762l-.229.686z" class="cls-1" data-name="Path 113" transform="translate(-5.711 -18.608)"/>
        <path id="Path_114" d="M29.2 80.41V78.2h.3v1.981h.914v.229z" class="cls-2" data-name="Path 114" transform="translate(-6.924 -18.631)"/>
        <path id="Path_115" d="M33.7 80.41V78.2h.3v1.981h.914v.229z" class="cls-2" data-name="Path 115" transform="translate(-7.995 -18.631)"/>
        <path id="Path_116" d="M38.3 80.41V78.2h1.372v.229h-1.143v.686H39.6v.3h-1.071v.762h1.219v.229z" class="cls-2" data-name="Path 116" transform="translate(-9.09 -18.631)"/>
        <path id="Path_117" d="M43.429 79.167h.533c.152 0 .229 0 .3-.076a.164.164 0 0 0 .152-.152c0-.076.076-.152.076-.229s0-.229-.076-.229c-.076-.076-.152-.076-.3-.076H43.5v.762zm-.229 1.219V78.1h.838a.571.571 0 0 1 .381.076c.076.076.152.076.229.229a.458.458 0 0 1 .076.3.582.582 0 0 1-.152.381 1.665 1.665 0 0 1-.381.229.236.236 0 0 0 .152.076 1.052 1.052 0 0 1 .229.3l.3.61h-.3l-.229-.457c-.076-.152-.152-.229-.152-.3-.076-.076-.076-.152-.152-.152a.266.266 0 0 0-.152-.076h-.457v.991h-.23z" class="cls-1" data-name="Path 117" transform="translate(-10.256 -18.608)"/>
        <path id="Path_118" d="M48.762 80.386V79.4L48 78.1h.3l.381.686c.076.152.152.229.229.381.076-.152.152-.229.229-.381l.381-.686h.3l-.762 1.3v.991z" class="cls-2" data-name="Path 118" transform="translate(-11.398 -18.608)"/>
        <path id="Path_119" d="M74.374 30.443l1.448-.076c.533-.076 1.524.991 1.677 1.219l.076.838c.076.61-.457 1.753-1.3 1.753a3.3 3.3 0 0 1-.375-.077c-.152 0-.076 0-.076.076l-.762.076c-.229-.076-.457-.381-.61-.381s-.076.076-.229.152c-.152 0 0-.076-.152-.076s-.076.076-.229.152c-.381 0 0-.381-.686-.229 0-.076.076-.076.076-.152-.076-.076-.076-.152-.229-.152 0-.076.076-.076.076-.152a1.725 1.725 0 0 1-.3-.686c0-.152.076-.076.076-.229s-.152-.076-.152-.152c.3-.152.152-.686.3-.838a3.905 3.905 0 0 1 1.372-1.067m11.583 1.219c.076.076.152.152.229.152.076-.152.152-.076.229-.152zM73.84 30.138c-.152 0-.076.076-.152.152H73c-.152 0 .076.076-.076.076l-.686.076c-.152 0-.076-.076-.152-.076a.839.839 0 0 1-.457.229l-.762.076c-.686.3-2.515 1.143-2.667 1.143s-.076-.076-.152-.076c-.152 0-1.981 1.067-2.134 1.6a1.116 1.116 0 0 1 .838.457 5.146 5.146 0 0 0 1.067.152v.153c.076 0 .076-.076.229-.076a27.623 27.623 0 0 1 3.429.838l.991-.076c.152 0 0 .076.152.076s-.076-.076.076-.076a4.856 4.856 0 0 1 .533.152l.914-.076c.152 0 0 .076.152.076s-.076-.076.076-.076 0 .076.152.076l1.143-.076c.152 0-.076-.076.076-.076l1.981-.152c2.743-.914 5.411-1.905 8.154-2.9v-.152c-1.905-.381-3.886-.686-5.715-1.067v-.152h-.229c0 .076 0 .076-.076.076-.152 0-.152-.076-.229-.076 0 .076.076.076-.076.076s-.076-.152-.076-.229c-.61.076-.838-.152-1.3-.076l-1.067.076c-.152 0-.076-.076-.152-.076 0 .076 0 .076-.076.076a12.546 12.546 0 0 0-1.6-.152c-.152 0-.076.076-.152.152l-.838.076c-.381-.076-.3-.152-.457-.152m4.115-.762l-.152.152h.686c2.743.3 5.639 1.067 8.306 1.6.152.076.229.3.381.381v.3a.075.075 0 0 0-.076.076c-.076 0-.076-.076-.152-.076-.61.838-2.058.838-3.124 1.372a.28.28 0 0 0-.229-.076l-5.868 1.905-.61.076c-.152 0 .076.076-.076.076l-1.143.076c-.152 0 0-.076-.152-.076h-.762c-.152 0 0-.076-.152-.076l-1.372.076c-.152 0 0-.076-.152-.076l-.762.076c0-.076 0-.076-.152-.076s-.076 0-.076.076c-.076 0 0-.076-.152-.076l-.686.076a1.2 1.2 0 0 1-.686-.076 14.289 14.289 0 0 0-1.524-.381l-.838.076a5.306 5.306 0 0 0-1.905-.381c-.229-.3-.762-.3-.991-.381h-.152s.152.076.152.152a.644.644 0 0 1-.457-.152.578.578 0 0 0 .3-.152c-.533-.076-1.448 0-1.905-.381h.152c.076-.076.076 0 0-.076 0-.152-.152-.229-.229-.3.229 0 .381-.152.61-.152.3-.152 0-.61.457-.838a42.454 42.454 0 0 1 6.63-2.362l1.067-.076c.152 0 .076-.076.152-.152l1.448-.152h4.191zm-8 0l-.152.152a3.865 3.865 0 0 0-.686-.152l-.991.076a.266.266 0 0 0-.152-.076zm-2.667 0l.076.076v.152c-.076 0-.076-.076-.229-.076a1.614 1.614 0 0 0-.533.229c.076-.152.229-.229.3-.3h-.762c0 .076-.152.152-.152.3s.076 0 .152.076c0 .152-.076.076-.076.076 0 .076.076.076.229.076-.076.076-.076.229-.152.3 0-.152-.152-.152-.152-.3s.076 0 .076-.152-.076 0-.152-.076c0-.152.152.076.076-.076v-.152c-.152 0-.3-.152-.381-.076-.152 0 0 .076-.076.076h-.152a.28.28 0 0 0-.076-.229h1.981z" class="cls-2" data-name="Path 119" transform="translate(-15.062 -6.996)"/>
        <path id="Path_120" d="M84.342 22.992a.4.4 0 0 1-.3.152v.156a.266.266 0 0 0 .152-.076l.076.076c-.076.076-.076.076-.076.152.076 0 .076 0 .152.076a.578.578 0 0 0 .152-.3c-.152-.076-.152-.152-.152-.229m-18.213.762c0 .076-.076.152-.076.229h.3c-.076-.152-.152-.3-.229-.229m-1.372.076a.458.458 0 0 0 .3.076c-.076-.076-.152-.076-.3-.076m19.434-1.912a.571.571 0 0 0 .381.076c-.076-.152-.229-.152-.381-.076m-9.221-1.677a.8.8 0 0 0-.381.152l-.838.076c0 .152-.3.3-.457.229a.164.164 0 0 0 .152.152l-.229.076c-.076-.076-.152-.152-.229-.152a2.08 2.08 0 0 1-.991.533v.229h-.152c-.076-.076-.076-.076-.152-.076a.506.506 0 0 1-.381.3c-.152 0 0-.076-.152-.076l-.229-.076a7.7 7.7 0 0 1-1.219.991c-.076-.076-.076-.076-.229-.076-.457.076-.61.229-.914.686.076 0 .076 0 .152.076v.076a.28.28 0 0 1-.076-.229h-.457c-.229.152-.686.3-.991.457-.076.076-.076 0-.076-.076h-.3c-.076.152-.229.076-.3.152a.578.578 0 0 1-.152.3 1.8 1.8 0 0 0-1.143.533l.991-.076c.152 0-.076-.076.076-.076l1.753-.152c.152 0 .076.076.229.076s.076-.076.229-.152c.152 0 .076.076.229.076s.152-.076.3-.152a16.8 16.8 0 0 1 2.439.533l.762-.076c.076.076.152.152.152.229l.762-.076c.152 0 .3.152.457.152l.838-.076c.152 0 0 .076.152.076l.533-.076c-.457-.152-.991-.152-1.219-.533a.4.4 0 0 1-.3.152h-.229c-.076-.61-.533-.61-.533-1.067l-.076-.762c-.076-.61 1.448-1.981 2.134-2.058l1.219-.076c.686-.076 2.591.381 2.667 1.372l.076.991a2.133 2.133 0 0 1-.076.457h-.3c.076.229 0 .533-.3.533.076.076.152.076.229.152-.076.076-.229.076-.3.152v.152c.076 0 .076 0 .152.076-.076.076-.076-.076-.152-.076-.3 0-.457.381-.686.61v.152h.229c0-.076-.076-.076.076-.076l.914-.076c.229-.152.686-.229.838-.381.076.076.229.229.3.152a9.327 9.327 0 0 0 1.753-.762c.533-.076.991-.533 1.3-.533.152 0 .152.076.229.076.076-.076.381-.533.533-.533s.152.076.229.076a.461.461 0 0 1 .457-.229 11.875 11.875 0 0 1-1.524-1.219c-1.219-.457-4.267-1.448-4.42-1.448l-.686.076c-.152 0-.076.076-.152.076l-.076-.076c.076-.076.076-.076.076-.152l-.762.076c0 .076 0 .076-.152.076h-.152v-.152h-.3c0 .152-.152.076-.3.152a1.281 1.281 0 0 1-.838.152m-2.82-.152a.486.486 0 0 0 .457 0 .486.486 0 0 0-.457 0m2.667-.3a.582.582 0 0 0 .381.152v-.229zm.762-.152c.229.076.381.152.61.229 0-.152.076-.229.076-.3zm-.61-5.182a.8.8 0 0 0-.381.152l-.838.076c-.152.229-.533.229-.762.229-.152 0 0-.076-.152-.076s-.229.152-.381.152a.571.571 0 0 0 .381.076c0 .076-.152.076-.3.076a.571.571 0 0 1-.381-.076v.24H72c-.076-.076-.076-.076-.152-.076a46.493 46.493 0 0 1-4.344 2.21c0 .076.152.076.152.152v.076a.28.28 0 0 1-.076-.229h-.229c-.533.381-1.219 1.067-1.753 1.524.3 0 3.048.457 3.505.381l.991-.076c.152 0 0 .076.152.076l.914-.076c.152 0 .457.152.686.152a5.657 5.657 0 0 0 1.219-.229 8.819 8.819 0 0 1-.838-1.219l-.076-.838a2.739 2.739 0 0 1 2.21-2.362l1.067-.076c.229 0 1.219.229 1.219.457a24.416 24.416 0 0 1-1.447 3.73l1.219-.076c.076 0 .61.076.61.3v.076c-.152 0-.229.152-.381.152l.3.076c0-.076-.076-.076.076-.076s.076.076.229.076.686-.457.991-.457c.152 0 0 .076.152.076l3.277-.229c0-.076 0-.076.076-.076.152 0 .152.076.229.076 0-.076-.076-.076.076-.076l1.067-.076c.914-.3 3.2-1.3 3.353-1.3h.152c0 .076-.076.076-.076.152h.229a.586.586 0 0 1 .152-.229l.076.076c-.076.076-.076.076-.076.152a1.488 1.488 0 0 1 .533.076c.076-.152.152-.076.229-.152 0-.076-.152-.076-.152-.152l.076-.076c.076.076.076.076.152.076v-.152c-.076 0-.076 0-.152-.076-.229.076-.3.152-.457.152 0 .076.152.076.152.152l-.229.076c-.152-.152-.152-.076-.3-.229.076-.076.076-.076.076-.152h-.229c0 .076 0 .076-.076.076a.4.4 0 0 1 .152-.3c-.152-.076-.229-.229-.3-.3v.3c.076 0 .076 0 .076.076l-.076.076a1.052 1.052 0 0 1-.229-.3 3 3 0 0 1-.457.152c-.3 0-5.944-1.448-8-1.753v-.152c-.076 0-.076.076-.229.076h-.152c0-.076.076-.076.076-.152-.61.076-.838-.152-1.3-.076-.152 0-.229.076-.381.152v-.152c0-.076.076-.076.076-.152a3.932 3.932 0 0 0-.838-.152m-9.529 11.28a.563.563 0 0 0-.457-.381c-.152 0-.3.152-.457.229H64.3c.3-.457.457-.838.838-1.067h-.3v-.229a.28.28 0 0 0 .229-.076h-.3a.582.582 0 0 0-.381.152v-.3q.343.229.457 0c-.076 0-.3 0-.381-.076.914-.914 2.82-.914 3.886-1.829.457-.076.991-.61 1.3-.61.152 0 .076.076.152.076.152 0 .914-.61 1.067-.61s0 .076.152.076.533-.381.838-.457a6.99 6.99 0 0 0 1.753-.686c.076 0 0 .076.152.076h.381v-.229l-.991.076s-.229.152-.229.3l-1.067.076c-.152 0-.457.229-.61.229s-.076-.076-.229-.076-.076 0-.076.076H70.7a.266.266 0 0 1 .076-.152 9.322 9.322 0 0 0-1.3-.229c-.152 0 .076.076-.076.076h-.152v-.151H69.1c-.152 0-.076.076-.3.076a.28.28 0 0 0 .229-.076.4.4 0 0 0-.3-.152l-.991.076c-.076.076 0 .076-.152.152a4.654 4.654 0 0 1-.991-.229.4.4 0 0 1-.3.152c-.152 0-.152-.076-.3-.076l-.991.076c.152-.229.381-.152.533-.3-.152 0-.381-.076-.533-.076s-.152.076-.229.152c-.076-.152-.152-.152-.3-.229v-.3a22.242 22.242 0 0 1 8.154-4.8l1.067-.076c.152 0-.076-.076.076-.076l.686-.076c.076-.076 0-.076.152-.152.152 0 .076.076.229.076s.076-.076.229-.152c.152 0 .076.076.152.076.152 0-.076-.076.076-.076a2.482 2.482 0 0 1 .914.457c.152 0 .3-.152.457-.152 1.753-.152 8.764 1.829 9.068 1.905v.152c.914.076 1.677.61 2.591.762v.152l-.838.838c-.076 0 0-.076-.152-.076l-1.905.152a4.39 4.39 0 0 0-1.6.533l-.762.076c-.152 0-.3.229-.457.229s-.076-.076-.152-.076c-.152 0-.457.229-.61.229s-.076-.076-.152-.076c-.152 0-.152.152-.3.152s-.3-.076-.457-.076-.229.152-.381.152-.152-.076-.3-.076-.152.076-.3.152a3.3 3.3 0 0 1-.381-.076l-1.829.152a.4.4 0 0 0 .3.152l.762-.076c.229.229.762.076 1.143.229 1.143.457 2.21.686 3.353 1.067.3.152 1.829 1.219 2.058 1.143.152 0 .152-.076.3-.152.152 0 .229.076.381.076v.152c-.076 0-.076-.076-.152-.076-.076.076-.152.076-.152.229a.266.266 0 0 1-.152-.076v.3c-.076 0-.076-.076-.152-.076-.3.076-.61-.076-.61.381a.266.266 0 0 1-.152-.076c-.076.076 0 0 0 .152s0 .152.229.152c0 .076-.076.076-.076.152.076.076.152.076.229.152a.28.28 0 0 0-.229.076h.3c.152 0 .3-.076.457-.076a2.611 2.611 0 0 0-.991.533c-.152 0-.076-.076-.076-.076-.152.3-.838.457-1.219.686l-.762.076a4.28 4.28 0 0 0-1.143.3c0 .076.152.076.152.152-.076 0-.076-.076-.152-.076h-.152c-.076.076 0 .152 0 .229a1.164 1.164 0 0 0-.762.3l-1.067.076c-.152 0-.076 0-.076.076a.458.458 0 0 0-.3-.076.352.352 0 0 0-.381.229h-4.07s.076-.076-.076-.076l-.686.076c-.152 0 0-.076-.152-.076l-.762.076v-.152c-.152 0-.381-.076-.533-.076s-.152.152-.3.152-.762-.152-.914-.152-.152 0-.152.229h-.152c-.152 0-.076-.076-.076-.076-.076.076-.076.152-.152.152h-1.989a1.58 1.58 0 0 0-.457-.152c-.152 0-.152.076-.3.152z" class="cls-2" data-name="Path 120" transform="translate(-15.276 -3.355)"/>
        <path id="Path_122" d="M36.633 73.43a.943.943 0 0 0-.152-.229v-.3h.076c-.076 0-.076 0-.076-.076v-.995h.076c-.076-.076-.076 0-.152-.076V71.3l-.076-.076a.266.266 0 0 0 .076-.152h-.076v-.152h.152s-.152-.076-.076-.152v-.615a.236.236 0 0 1 .076-.153l-.076.076v-.456h.076v-.381H36.4c.076 0 .076 0 .076-.076v-.381c0-.076.076-.152.076-.229v-.229h.076c-.076-.076-.076 0-.076-.076v-.229c0-.076.076-.076.076-.152v-.6c0-.076.076-.152 0-.152v-.152a.075.075 0 0 0-.076-.076.075.075 0 0 0-.076-.076H36.4v.229l-.076.3v.529a.266.266 0 0 0-.076.152v.529l-.076.076v1.295l.076.61v.381h.076a.266.266 0 0 0-.076.152v.536h-.076v.458a.075.075 0 0 1-.076.076.164.164 0 0 1 .152.152v.229l-.076.076V72.819H36.1v.457c.076 0 .076.076.076.152.076 0 .076.076.152.076.076.076.076.076.229.076 0 .076.076.076.076.152l.3.076a1.663 1.663 0 0 1-.3-.378z" class="cls-1" data-name="Path 122" transform="translate(-8.566 -15.919)"/>
        <path id="Path_123" d="M33.782 73.168a6.383 6.383 0 0 0-.152-.762c0-.152-.076-.229-.076-.3l-.152-.076.076-.076-.076-.076a.075.075 0 0 0 .076-.076l-.152-.152v-.076l-.076-.229h-.15v-.076l-.076-.076v-.152l-.152-.229v-.082l-.152-.152-.076-.076v-.076l-.076-.152-.076-.152h-.082v-.076c-.076-.076-.152-.229-.3-.381-.076-.076-.152-.076-.152-.152-.229-.152-.533-.457-.762-.61h-.076a.28.28 0 0 1-.229-.076v-.3h-.081c.076 0 .076 0 .076-.076v-.381c0-.076.076-.229.076-.3v-.229h.076c-.076-.076-.076 0-.076-.076v-1.524a.768.768 0 0 0-.076-.229h-.076v.229l-.076.381v1.354s-.076.152 0 .152v.686H30.5l-.152.076c0 .152-.152.152-.152.229v.081a.28.28 0 0 0 .229.076s.152.076.152 0v.6l.076.762h.076l-.076.152v.61h-.076v.076l.076.3v.076a.075.075 0 0 1-.076.076c.076 0 .076.076.076.152v.229a.075.075 0 0 1-.076.076v.152a.075.075 0 0 1-.076.076v.457c.076.076.076.076.076.152.076.076.152.152.229.152h.076a.266.266 0 0 0 .076.152l.229.076a1.1 1.1 0 0 0-.152-.229 3.589 3.589 0 0 1-.152-.381v-.229a.075.075 0 0 1 .076-.076c-.076 0-.076 0-.076-.076v-1.062h.076c-.076-.076-.076 0-.076-.076v-.533a.266.266 0 0 1-.076-.152.266.266 0 0 0 .076-.152h-.073V70.2l.076.076a.266.266 0 0 1-.076-.152v-.99a.075.075 0 0 1 .076.076h.076a.075.075 0 0 1 .076.076c0-.076 0 0-.076-.076.076 0 .076.076.152.076.076.076.152 0 .229.076v.076h.076c.076 0 .076.076.152.076l.152.152c.152.152.457.381.533.457l.076.152v.076l.076.076.076.076a.075.075 0 0 0 .076.076v.152a.164.164 0 0 1 .152.152l.152.3v.152l.076.229.076.152v.152l.076.152.076.076a1.287 1.287 0 0 0 .152.381l.152.61v.152c.076 0 .076 0 .076.076s0 .076-.076.152h.152a.3.3 0 0 0 .158-.299z" class="cls-1" data-name="Path 123" transform="translate(-7.162 -15.657)"/>
        <path id="Path_124" d="M26.934 73.549c0 .076-.076.152-.076.229h.152a.458.458 0 0 1 .076-.3l-.152.076zm.838-3.2L27.7 70.2l-.076-.076c-.229-.152-.457-.076-.686-.152h-.457l-.076-.152v-.152a.075.075 0 0 1-.076-.076v-.082c0-.076 0-.152-.076-.152-.076-.152-.229-.381-.3-.533-.076-.076-.076-.152-.152-.229a4.188 4.188 0 0 0-.533-.686c.076 0 .076 0 .152-.076v-.076c.076-.152-.152-.152-.152-.3l-.152-.076c-.076 0-.152.076-.229.076a.4.4 0 0 0-.3-.152h-.167c0 .152-.229.152-.152.3a.075.075 0 0 0 .076.076.236.236 0 0 1 .152.076.075.075 0 0 0-.076.076 2.054 2.054 0 0 0-.533.61c-.076.076-.152.229-.229.3a2.371 2.371 0 0 0-.3.457c0 .076-.076.152-.076.229v.076a.075.075 0 0 1-.076.076l-.076.152-.076.152v.076l-.076.229-.076.229v.529l-.076.076v.229h-.076v.076h-.152c-.076 0-.152.076-.229.152l-.457.457-.152.152c-.076.076-.076.229-.152.3h.076v.076h.076a.28.28 0 0 1 .076-.229c.076-.076.076 0 .152 0l.076-.076V72.1h.076l.152-.152a2.847 2.847 0 0 1 .533-.457v.229l-.076.152a.075.075 0 0 1 .076.076l-.076.076a.075.075 0 0 1 .076.076l-.152.152v1.219c0 .076.076.229.076.3h.076V73.7c0-.076-.076-.076-.076-.229V73.4l.076-.076v-2.133l.076-.076.152-.076a.266.266 0 0 1 .152-.076l.152-.076.229-.076.076-.076a.075.075 0 0 0 .076-.076h.076l.3-.152c.076 0 .152-.076.229-.076v-.076h.076v-.076h.081c.076-.076.076-.076.152-.076v.076l.076-.076h.072l.152-.076a5.245 5.245 0 0 1 .991-.152c0 .076.152 0 .152.076h.076a.075.075 0 0 0 .076.076v-.152c.076 0 .076 0 .152.076s.076.152.152.229l.076.3v.152a.075.075 0 0 0 .076.076v.076l.076.3.076.152v1.988c.076 0 .076 0 .076.076h.076a3.35 3.35 0 0 1 .076-.686v-.533l-.152-.152a.075.075 0 0 0 .076-.076l-.076-.076a.075.075 0 0 0 .076-.076l-.076-.152v-.457l-.076-.229v-.3l-.076-.229v-.076l-.076-.229h.152v.071c.152 0 .229 0 .3.076.076-.076.152 0 .229 0a.266.266 0 0 1 .152.076c.076.076.152.152.229.076.084.149-.065-.004.008-.08zm-1.981-.3a1.3 1.3 0 0 0-.533.076c-.076 0-.076 0-.152.076v.076h-.076l-.152.076-.152.076-.3.152h-.3l-.229.152h-.087l-.076.076h-.076l-.152.152-.229.152-.076.076h-.152v-.152a.075.075 0 0 1 .076-.076v-.152l.076-.3c0-.076.076-.152.076-.229l.076-.076v-.084c0-.076 0-.076.076-.076v-.229l.076-.152a.578.578 0 0 1 .152-.3 5.2 5.2 0 0 1 .381-.533c.076 0 .076-.076.152-.076h.076a.075.075 0 0 0 .076-.076h-.076V68.6c.076-.076.152 0 .229-.076 0-.076 0-.152.076-.152v.076a.075.075 0 0 1 .076-.076h.076c.076-.152.152-.152.3-.229a.164.164 0 0 1 .152.152h.076l.076.076v-.076c.076 0 .076.076.152.152 0 .076.152 0 .229.152h-.076a.075.075 0 0 1 .076.076h.076c.076 0 .076.152.152.152 0 0 .229.3.381.533.076.152.152.229.152.3v.3a1.692 1.692 0 0 0-.678.083z" class="cls-1" data-name="Path 124" transform="translate(-5.116 -16.038)"/>
        <path id="Path_125" d="M11.682 72.249c0 .076 0 .076-.076.076h-.076l-.076.076h-.076a.266.266 0 0 1-.152.076c-.152.076-.3.229-.381.229l-.076.076h-.076l-.076.076h-.076l-.152.076h-.152l-.152.076h-.461c-.076 0-.457-.076-.533-.076v-.152a.075.075 0 0 1 .076-.076c-.076 0-.076 0-.076-.076v-.992h.076c-.076-.076-.076 0-.076-.076v-.532a.266.266 0 0 1-.076-.152.236.236 0 0 1 .076-.152h-.077v-.152l.076.076a.266.266 0 0 1-.076-.152v-1.216l.076-.076v-.462h-.076c.076 0 .076 0 .076-.076v-.914h.076c-.076-.076-.076 0-.076-.076V66.24a.768.768 0 0 0-.076-.24h-.076v.229a.59.59 0 0 1-.076.229v.533l-.076.533v2.129l-.076.914v.3h.076l-.076.152v.529h-.077v.457a.075.075 0 0 1-.076.076.266.266 0 0 1 .076.152v.529a.266.266 0 0 1-.152-.076c-.076 0-.076 0-.076-.076a.075.075 0 0 1-.076-.076c-.076-.076-.076-.152-.152-.076-.076 0-.076.076-.076.152v.152c.152.076.381.076.457.152a.28.28 0 0 0 .229.076v.076a.266.266 0 0 1 .076.152c.152.076.152.229.3.152a.266.266 0 0 0 .076.152l.229.076-.229-.457a.075.075 0 0 0-.076-.076h.076c.076 0 .3.076.457 0h.3l.152-.076.152-.076h.152l.152-.076.152-.076h.152v-.076H11v-.055h.076a1.594 1.594 0 0 0 .457-.3.075.075 0 0 0 .076-.076c.076.152.076.076.076 0z" class="cls-1" data-name="Path 125" transform="translate(-1.904 -15.728)"/>
        <path id="Path_126" d="M6.2 69.529l-.076-.152c-.229-.3-.533-.152-.762-.3h-.08c-.152 0-.3-.076-.457 0l-.076-.152v-.152a.075.075 0 0 1-.076-.076v-.076c0-.076-.076-.152-.076-.229a4.527 4.527 0 0 0-.3-.61c0-.076-.076-.076-.076-.152-.152-.229-.3-.533-.457-.762.076 0 0-.076-.076-.152a.164.164 0 0 0 .152-.152c.076-.229-.152-.152-.152-.381l-.159-.083c-.076 0-.152.076-.229.152A.4.4 0 0 0 3 66.1l-.152.076c0 .229-.229.152-.152.381 0 .152.076.152.229.152a.075.075 0 0 0-.076.076l-.152.152a6.7 6.7 0 0 0-.457.762c-.076.076-.076.152-.152.229a1.635 1.635 0 0 0-.3.533c0 .076-.076.152-.076.229v.076a.075.075 0 0 1-.076.076l-.076.229h.076v.076l-.076.381-.152.3v.076l-.076.381v.152a.075.075 0 0 1-.076.076v.387h-.165a3.866 3.866 0 0 0-.457.533 3.564 3.564 0 0 1-.381.457c-.076.076-.076.229-.152.381h.075v.076h.076a.28.28 0 0 1 .076-.229c.076-.076.076 0 .152 0l.076-.152v-.076h.077l.457-.457c.076-.152.229-.229.3-.3v.381l-.076.152a.075.075 0 0 1 .076.076l-.076.152a.075.075 0 0 1 .076.076l-.076.076-.076.076v1.524c0 .152.076.229.076.381H1.4v-.076c0-.076-.076-.152-.076-.229s0-.076.076-.076v-2.593l.076-.076.152-.076.076-.076h.076l.152-.152.229-.152.076-.076h.073v-.076h.076l.3-.152c.076 0 .152-.076.229-.076v-.076H3v-.076h.076c.076-.076.076-.076.152-.076v.076l.072-.079h.076l.152-.076a5.245 5.245 0 0 1 .991-.152c0 .076.152 0 .152.076h.076a.075.075 0 0 0 .076.076v-.152c.076-.076.076 0 .152.076s.076.229.152.3v.076l.076.3v.166a.075.075 0 0 0 .076.076v.381l.076.229v2.438c.076.076.076 0 .076.152 0 .076-.076.152-.076.229l.076.076h.076a3.3 3.3 0 0 1 .076-.381v-.076a3.157 3.157 0 0 1 .076-.762v-.686l-.072-.076-.229-.533a.075.075 0 0 0 .076-.076l-.076-.076a.075.075 0 0 0 .076-.076l-.076-.152-.076-.076v-.152l-.076-.3v-.54l-.152-.381v-.076l-.076-.229h.152v.076c.152-.076.229 0 .3.076.076-.076.152 0 .229 0a.266.266 0 0 1 .152.076c.076.076.152.152.229.076.076.076.076 0 .152 0 .008-.079-.072-.232.008-.308zm-1.981-.381a2.225 2.225 0 0 0-.686.152v.076h-.08l-.152.076-.152.076-.3.152-.3.152-.229.152h-.086a.075.075 0 0 1-.076.076h-.077l-.076.076-.152.152-.229.152h-.076v.076H1.4v-.152a.075.075 0 0 1 .076-.076v-.152l.076-.3v-.076a.768.768 0 0 1 .076-.229v-.076a.075.075 0 0 1 .076-.076v-.152c0-.152 0-.152.076-.152v-.229l.076-.152a.7.7 0 0 1 .229-.381 2.877 2.877 0 0 1 .381-.61c.076 0 .076-.076.152-.152a.075.075 0 0 0 .076-.076h-.079V67.4c0-.152.152-.076.229-.152 0-.076 0-.152.076-.152v.076c0-.076.076-.076.076-.152h.076c.076-.152.152-.229.3-.229a.164.164 0 0 1 .152.152H3.6a.266.266 0 0 1 .076.152v-.152c.076 0 .076.076.152.152 0 .152.152 0 .229.152v.153l-.076.152a.075.075 0 0 0 .076.076.075.075 0 0 0 .076.076 3.394 3.394 0 0 0 .381.61 1.287 1.287 0 0 1 .152.381V69c-.076.076-.152.076-.3.076a.236.236 0 0 1-.151.072z" class="cls-1" data-name="Path 126" transform="translate(0 -15.752)"/>
        <path id="Path_127" d="M49.62 70.949V70.8a.266.266 0 0 0-.076-.152l-.229-.229v-.533l-.076-.152v-.076l-.076-.229-.3-.3-.076-.152v-.152a.075.075 0 0 1-.076-.076v-.076c0-.076-.076-.152-.076-.229l-.229-.457c-.076-.076-.152-.229-.229-.3a4.229 4.229 0 0 0-.457-.61.266.266 0 0 1-.152-.076l-.229-.229c.076-.229-.152-.152-.152-.381l-.152-.076c-.3 0-.381.457-.686.533l-.076.076a6.7 6.7 0 0 0-.457.762c-.076.076-.076.152-.152.3a2.537 2.537 0 0 0-.229.457.458.458 0 0 0-.076.3v.076a.075.075 0 0 1-.076.076l-.076.229v.229l-.076.381-.076.229v.076H44.9v.076l-.076-.229a5.808 5.808 0 0 0-.991.533c-.076.076-.076.152-.152.229l-.076.076.076.076v.076h.076c0-.076.076-.076.076-.152l.076-.076.076-.076v-.076h.076l.914-.457v.685l-.076.3v.152l-.076.152v.076a.075.075 0 0 1 .076.076l-.076.152a.075.075 0 0 1 .076.076l-.229.076v1.524c0 .076.076.229.076.3h.076v-.076c0-.076-.076-.152-.076-.229 0-.076 0-.076.076-.076V70.34a.075.075 0 0 1 .076-.076v-.3h.229l.152-.076.152-.076h.533l.3-.076a.28.28 0 0 1 .229.076v-.076h.3v.076h.3a.829.829 0 0 1 .381.076l.457.152c0 .076.076.076.152.152v.076a.075.075 0 0 0 .076.076v-.076h.076c.076 0 .076.152.152.152v.076c.076 0 .152 0 .152.076h-.076c.076 0 .076 0 .152.076v.076h.076c.076 0 .152.076.152.229.076 0 .152 0 .152.076l.076.076v1.6c.076.076.076 0 .076.076s-.076.152-.076.229h.152c0-.076.076-.229.076-.3v-.076a3.5 3.5 0 0 1 .076-.762v-.457l-.076-.076h.076c.169-.086.093-.314.245-.39zm-.686-.762a1.531 1.531 0 0 0-.61-.3.687.687 0 0 0-.381-.076 1.82 1.82 0 0 0-.686-.152h-.076a.075.075 0 0 1-.076-.076h-.914l-.229.076h-.3l-.229.076-.076.152h-.076l-.076-.076a.768.768 0 0 1 .076-.229v-.3c0-.152 0-.152.076-.152v-.381a1.179 1.179 0 0 1 .229-.457 5.912 5.912 0 0 0 .3-.533c.076 0 .076-.076.152-.152l.076.076V67.6a.075.075 0 0 0 .076-.076h-.076v-.076c0-.152.152-.076.229-.152 0-.076 0-.152.076-.152v.076a.075.075 0 0 1 .076-.076h.076q.114-.229.229-.229c0-.076 0-.076.076-.152a.266.266 0 0 0 .152.076c.076.076.152.076.152.152.076 0 .229.076.229.152h.076l.076.076v-.076c.076 0 .076.076.152.152 0 .076.152.076.152.076v.152h-.076a.075.075 0 0 1 .076.076h.076c.076 0 .076.152.152.152l.3.457c.076.152.229.3.229.381v.229l.076.076v.076a.075.075 0 0 0 .076.076v.154c.076.076.076.152.152.229l.076.229v.229a.075.075 0 0 0 .076.076v.152c-.067.148-.067.071-.144.071zm-3.963-.3z" class="cls-1" data-name="Path 127" transform="translate(-10.351 -15.8)"/>
        <path id="Path_128" d="M43.405 71.925c0 .076 0 .076-.076.076h-.076l-.076.076H43.1s-.381.229-.533.3h-.076l-.076.076h-.076l-.076.076-.076.076h-.381l-.152.076h-.533c-.076 0-.457-.076-.533-.076v-.152a.075.075 0 0 1 .076-.076c-.076 0-.076 0-.076-.076v-1.062h.076c-.076-.076-.076 0-.076-.076v-.533a.266.266 0 0 1-.076-.152.266.266 0 0 0 .076-.152h-.078v-.152l.076.076a.266.266 0 0 1-.076-.152v-1.066l.076-.076v-.536h-.076c.076 0 .076 0 .076-.076v-.381c0-.076.076-.229.076-.3v-.229h.076c-.076-.076-.076 0-.076-.076v-.229c0-.076.076-.152 0-.152v-1.143a.768.768 0 0 0-.076-.229h-.076v.229l-.076.381V69.41l.076.762v.076h.076l-.076.152v.609h-.076v.076l.076.3v.076a.075.075 0 0 1-.076.076c.076 0 .076.076.076.152v.229a.075.075 0 0 1-.076.076v.229h-.076l-.076-.076c-.076 0-.076 0-.076-.076L40.129 72c-.076-.076-.076-.152-.152-.076-.076 0 0 .152-.076.229v.076c.076.152.3.152.381.3a.28.28 0 0 0 .229.076v.076c.076.076.076.076.076.152l.152.152h.152a.266.266 0 0 0 .076.152l.229.076-.152-.3a.578.578 0 0 1-.152-.3h.076c.076 0 .3.076.457 0h.3l.152-.076.152-.076h.152l.152-.076.152-.076h.152v-.079h.076v-.076h.087c.076 0 .152-.076.229-.152a2.98 2.98 0 0 1 .381-.3c-.076.381 0 .3 0 .229z" class="cls-1" data-name="Path 128" transform="translate(-9.47 -15.633)"/>
        <path id="Path_129" d="M35.776 66.162c.152 0 .3.076.3.152.076 0 0-.076.076-.076s.076.076.152.076c.3 0 .381-.229.381-.533 0-.152-.3-.381-.533-.381-.076 0-.076.076-.152.076s-.076-.076-.152-.076c0 .076 0 .076-.076.076L35.7 65.4v.457c.152.076.076.229.076.305z" class="cls-1" data-name="Path 129" transform="translate(-8.471 -15.586)"/>
        <path id="Path_130" d="M21.339 68.115c-.229-.229-.533-.076-.838-.229a2.906 2.906 0 0 0-1.143.076 2.225 2.225 0 0 0-.686.152v.076h-.229l-.152.076-.229.152-.152.076h-.076l-.229.152h-.076l-.076.076c0-.076.076-.152 0-.229-.152-.076-.152.076-.3.076l-.076.152c0 .076-.076.229-.076.3h-.076v-.076l.075-.068v-.533h-.076c.076 0 .076 0 .076-.076v-.376c0-.076.076-.229.076-.3V67.364h.076c-.076-.076-.076 0-.076-.076V65.84A.768.768 0 0 0 17 65.6h-.076v.229l-.076.381V69.182h-.152a2.506 2.506 0 0 0-.457.457l-.381.381c-.076.076-.076.229-.152.3v.08h.076c0-.076 0-.152.076-.152.076-.076.076 0 .152 0l.076-.076V70.1h.076l.381-.381.3-.3v.3l.076.61H17l-.076.076-.076.076v.61h-.076v.076l.076.229v.076a.075.075 0 0 1-.076.076l.076.076v.3a.075.075 0 0 1-.076.076v.152a.075.075 0 0 1-.076.076v.529c.076.076.076.076.076.152.152.076.152.229.3.229 0 .076 0 .076.076.152l.229.076a.236.236 0 0 0-.076-.152l-.229-.457v-.229a.075.075 0 0 1 .076-.076c-.076 0-.076 0-.076-.076v-1.067h.076c-.076-.076-.076 0-.076-.076V70.7a.266.266 0 0 1-.072-.147.075.075 0 0 1 .076-.076H17v-.152l.076.076a.266.266 0 0 1-.076-.152v-.914h.076l.076-.076c0 .152.076.3.076.457v.076a3.185 3.185 0 0 0 .3.762c0 .076.076.152.076.229a1.614 1.614 0 0 0 .229.533c0 .076.076.076.076.152h.076v.076l.076.152.152.152.152.152.152.152.076.076.229.152v.076c0 .076 0 0 .076 0v.076h.076l.076.076.076.076.152.152v.076h.076l.076.152.076-.076.076.152.076-.076.076.152a1.1 1.1 0 0 1 .229.152 7.174 7.174 0 0 0 .762.3h.3V73.6l-.076-.076c-.076 0-.152.076-.152 0-.076-.076 0 0 0-.152a.236.236 0 0 1-.152-.076h-.076a5.011 5.011 0 0 1-.914-.457l-.152-.076-.076-.076-.152-.076-.152-.076-.152-.152H18.9a.075.075 0 0 0-.076-.076l-.229-.229c-.076 0-.076-.076-.152-.152v-.076h-.076v-.076l-.076-.076-.076-.076-.229-.381-.076-.076a7.081 7.081 0 0 1-.381-.762v-.383h-.076c-.076-.076 0-.229 0-.3l-.076-.076v-.076l.076.076a.075.075 0 0 0-.076-.076l.076-.076a.34.34 0 0 1 0-.381c-.076-.076-.076-.076-.076-.229V68.8l.076-.076a.075.075 0 0 0 .076-.076h.076l.3-.152c.076 0 .152-.076.229-.076v-.076h.076v-.076h.076c.076-.076.076-.076.152-.076v.076l.076-.076h.086l.152-.076a5.244 5.244 0 0 1 .991-.152c0 .076.152 0 .152.076h.076a.075.075 0 0 0 .076.076v-.152c.076-.076.152.076.229.076v.076c.076 0 .152-.076.152 0v.076c.152 0 .229 0 .3.076.076-.076.152 0 .229 0a.266.266 0 0 1 .152.076c.076.076.152.152.229.076.152-.076 0-.152.076-.3h-.076z" class="cls-1" data-name="Path 130" transform="translate(-3.712 -15.633)"/>
    </g>
</svg>
