<svg xmlns="http://www.w3.org/2000/svg" width="322.939" height="338.331" viewBox="0 0 322.939 338.331">

    <g id="Group_3762" data-name="Group 3762" transform="translate(2099.939 -7917.122)">
     <!-- <defs>
  <pattern id="img1" patternUnits="userSpaceOnUse" width="100" height="100">
    <image xlink:href="" x="0" y="0" width="100" height="100" />
  </pattern>
</defs> -->
     <path id="melissa-mjoen-385844-unsplash" d="M310.608,228.491c-4.6-2.479,1.062-7.082,2.124-9.914,1.416-3.895,1.77-8.5,2.125-12.393a44.452,44.452,0,0,0,2.124-27.972c-2.124-7.79-6.374-14.517-9.914-21.953a18.663,18.663,0,0,0-9.206-8.852c-3.541-1.77-6.373-6.019-9.206-9.206a11.741,11.741,0,0,0-5.665-3.895c-7.082-2.479-4.957-7.436-3.541-13.1,2.833-4.249,2.125-8.852,2.833-13.809,1.062-6.373-3.541-8.5-6.373-12.747a6.76,6.76,0,0,1-1.062-2.833c-.708-3.187-6.019-6.728-8.144-8.852l-7.436-7.082c-3.541-3.895-12.747-2.479-17.7-2.479a38.586,38.586,0,0,0-12.393,2.479c-3.187.354-4.6,2.124-6.728,4.249-4.6,1.77-7.082,4.6-9.206,9.206a15.73,15.73,0,0,1-6.019,6.728c-1.77,1.062-1.416,6.373-.708,8.144.708,2.124-1.77,5.665-2.479,7.79-.708,2.479.354,4.957,1.416,7.436,1.416,2.833,3.187,7.082,1.77,10.268-1.77,3.895-6.728,5.665-8.144,0s-1.416-12.039-1.77-18.058a10.906,10.906,0,0,1,1.77-4.249c3.895-6.019-.354-8.852-5.311-11.331-4.249-2.124-4.6-4.957-6.374-8.852a65.876,65.876,0,0,0-4.957-7.082c-4.249-4.249-3.541-9.56-3.541-14.871-1.416-3.541-5.311-8.5-9.914-5.311-1.77,1.062-4.249,2.833-6.373,2.124-.708-.354-2.833,0-4.249.354-6.373,1.77-13.1-5.665-17.7-9.56-5.311-4.6-9.56-14.163-11.685-20.891a19.754,19.754,0,0,0-4.957-7.082,42.156,42.156,0,0,0-3.187-5.311,21.372,21.372,0,0,1-3.895-9.206,20.6,20.6,0,0,0-4.249-8.852h0c-1.416-2.124-6.019-1.77-7.082.354,0,1.416.354,2.479,1.416,5.311a109.409,109.409,0,0,1,4.957,11.331c1.062,3.541,2.479,4.957,4.957,7.79.354,2.833,2.479,3.895,4.249,6.019.354,2.833,2.479,3.895,4.249,6.019,1.77,2.833,4.249,6.728,3.187,10.268-1.062,4.249-6.019,4.6-9.206,3.541-4.249-1.416-6.728,0-10.268,2.479-2.833,2.125-6.019,2.479-9.56,2.833-4.957.708-7.082.708-8.144,0a40.074,40.074,0,0,1-4.6-3.541C83.287,51.45,80.1,50.388,75.5,51.1s-4.249,2.833-6.019,6.019c-2.125,4.957-10.622.708-12.747-2.124C54.606,51.1,50,45.076,45.046,47.555a6.65,6.65,0,0,0-3.895,5.665c0,5.311,5.665,6.728,9.914,7.082,5.311,0,14.871,2.125,14.871,9.206,0,6.019-5.311,9.914-8.852,13.809-1.416,1.416-2.479,2.124-3.895,1.77-2.833-.708-6.019.708-8.852,1.062-4.6,3.187-9.56,2.124-14.871,3.187-3.541.354-6.728-.708-9.914-2.479-5.665-3.541-6.373-9.206-6.373-15.58,0-3.895,0-7.436-2.124-10.622C8.221,58.531,5.389,57.115,2.2,60.3-2.4,64.551.078,71.633,3.618,75.882a46.264,46.264,0,0,1,6.728,12.393,59.622,59.622,0,0,0,3.895,8.144c2.124,2.479,4.6,4.6,6.728,7.082a70.9,70.9,0,0,1,4.957,5.665c1.062,4.6-3.187,7.436-5.665,10.977-4.249,5.311-5.665,13.455-6.019,20.183-.354,6.019,1.77,10.268,3.895,15.58a6.3,6.3,0,0,1,2.479,2.833c1.77,4.249,6.373,7.082,10.268,9.206,3.187,4.6,4.249,9.914,5.665,15.58.708,3.541,5.665,3.541,8.144,3.895,3.895.354,7.436,1.062,10.268,3.895a9.533,9.533,0,0,0,2.479,2.124,51.8,51.8,0,0,1,4.6,3.187,88.665,88.665,0,0,1,9.206,2.479,30.631,30.631,0,0,1,6.019,2.479l4.6.354c5.665.708,10.977,1.416,15.934,3.895,2.124,1.062,4.6,2.124,6.019,2.124h.708l-1.062,2.124a38.8,38.8,0,0,1-2.125,9.206c-1.416,3.895-.708,7.79,1.062,11.331a21.86,21.86,0,0,1,1.416,7.79c0,7.082,4.6,13.1,7.436,19.12a26.227,26.227,0,0,0,6.373,7.436c2.124,2.124,3.187,4.249,2.479,7.436-1.77,7.79,8.5,6.728,13.1,5.665a14.478,14.478,0,0,1,9.56,1.062c-1.062,2.124-1.416,4.249-2.479,7.082-1.062,3.187-.354,9.56,2.479,11.685,2.125,8.144,9.914,9.914,17.7,10.977,7.79,1.416,16.642-3.895,18.766-11.685a30.373,30.373,0,0,0,.708-8.144c3.541-.708,6.728-1.062,9.56-1.416,2.124-1.062,3.895-2.833,5.665-4.249,4.957-3.541,10.268-7.082,14.871-11.331v.354c4.249,3.895,10.268,6.374,15.934,3.541a12.5,12.5,0,0,0,6.728-14.871c-.354-1.77,0-2.479,1.77-2.833h10.977a56.006,56.006,0,0,1,10.977-.354,17.24,17.24,0,0,0,7.436-.708,20.514,20.514,0,0,1,4.6-1.416c2.479,0,5.665,4.957,6.373,7.082,1.062,3.187,5.665,5.665,7.79,7.79,6.728,5.665,14.871,2.833,21.953-.354,9.206-3.895,10.622-14.871,12.039-23.369,1.062-5.665-2.833-8.144-4.957-12.747C313.087,230.616,311.67,229.2,310.608,228.491Z" transform="translate(-2099.497 7917.153)" fill="url(#img1)" stroke="rgba(0,0,0,0.24)" stroke-width="0.25"/>
    <path id="Path_235" data-name="Path 235" d="M131.389,100.174c-2.124,5.311-4.957,0-7.436-2.124-4.6-3.187-9.56-4.6-15.226-5.311h0l-6.373-.708H102a8.682,8.682,0,0,0-2.125-5.665A51.277,51.277,0,0,0,93.5,80.346c-2.833-2.479-12.039-3.895-15.226-1.416a22.577,22.577,0,0,1-4.957,2.833,26.409,26.409,0,0,0-2.479,4.249A11.026,11.026,0,0,1,68.362,89.2a10.961,10.961,0,0,0-.354,6.728c1.062,2.833,0,5.665-.708,8.5a13.959,13.959,0,0,0,3.541,9.56,11.785,11.785,0,0,1,2.125,3.541c3.187,1.77,7.79,3.895,12.039,3.895,2.479,3.895,7.436,6.728,11.331,8.144,7.79,3.541,14.871,1.416,23.015-.708,9.56-3.187,12.039-13.1,12.039-22.307,1.062,0,2.124.354,3.187.354,4.249.708,9.206-2.833,7.082-7.79C140.241,94.509,133.159,96.279,131.389,100.174Z" transform="translate(-1927.714 8114.162)"/>
    <path id="Path_236" data-name="Path 236" d="M17.836,67.291C15,76.851,25.626,82.516,33.769,78.267c4.249-4.957,4.957-11.685,0-16.288C27.4,56.668,19.96,60.563,17.836,67.291Z" transform="translate(-2054.583 8068.085)"/>
    <path id="Path_237" data-name="Path 237" d="M41.97,97.536c-.708,5.665,2.479,8.852,8.144,8.852,7.436,0,10.268-8.5,4.6-13.455C50.114,89.392,42.678,91.517,41.97,97.536Z" transform="translate(-1992.321 8148.667)"/>
    <path id="Path_238" data-name="Path 238" d="M92.57,49.371c7.436,1.77,11.331-12.039,3.895-14.163a17.774,17.774,0,0,0-4.249-.708c-5.311,0-8.144,7.436-5.665,11.331C87.967,47.955,90.092,48.663,92.57,49.371Z" transform="translate(-1881.105 8004.565)"/>
    <path id="Path_239" data-name="Path 239" d="M47.68,22.295c7.082,3.187,12.039-7.082,7.082-11.685A7.824,7.824,0,0,0,42.015,13.8C40.6,17.692,44.493,20.878,47.68,22.295Z" transform="translate(-1992.72 7938.519)"/>
    <path id="Path_240" data-name="Path 240" d="M66.109,99.9c1.77,4.6,6.374,6.019,10.268,3.187,2.833-2.479,3.541-6.374.354-9.206C72.482,89.628,63.63,93.523,66.109,99.9Z" transform="translate(-1931.834 8150.91)"/>
    <path id="Path_241" data-name="Path 241" d="M15.31,19.251c-3.895-2.833-9.914,2.833-5.665,6.373C14.248,29.519,19.559,22.437,15.31,19.251Z" transform="translate(-2077.905 7963.87)"/>
    <path id="Path_242" data-name="Path 242" d="M70.308,91.085c-1.77-3.895-8.5-1.416-6.019,3.187C66.059,97.812,72.079,94.626,70.308,91.085Z" transform="translate(-1936.741 8143.434)"/>
    <path id="Path_243" data-name="Path 243" d="M95.266,43.546c-1.062-3.187-7.436-2.124-6.019,1.77C90.309,48.5,96.682,47.086,95.266,43.546Z" transform="translate(-1872.47 8022.784)"/>
    <path id="Path_244" data-name="Path 244" d="M10.673,58.68c-3.187,4.6,6.373,4.957,3.541,0C13.151,56.556,11.381,57.618,10.673,58.68Z" transform="translate(-2073.268 8062.886)"/>
 
  </g>
</svg>
