<svg xmlns="http://www.w3.org/2000/svg" width="31.84" height="32.604" viewBox="0 0 31.84 32.604">
    <defs>
        <style>
            .cls-1{fill:#b68f2a}.cls-2{clip-path:url(#clip-path)}
        </style>
        <clipPath id="clip-path">
            <path id="Rectangle_272" d="M0 0h31.84v32.604H0z" class="cls-1" data-name="Rectangle 272"/>
        </clipPath>
    </defs>
    <g id="Group_3443" data-name="Group 3443" transform="translate(-404 -225.89)">
        <path id="Path_9552" d="M497.358 433.223a.739.739 0 0 0-.739-.738h-2.579a.739.739 0 0 0-.739.738v2.577a.739.739 0 0 0 .739.739h2.579a.739.739 0 0 0 .739-.739zm0 0" class="cls-1" data-name="Path 9552" transform="translate(-81.855 -189.367)"/>
        <path id="Path_9553" d="M574.662 433.223a.739.739 0 0 0-.738-.738h-2.58a.739.739 0 0 0-.739.738v2.577a.739.739 0 0 0 .739.739h2.58a.739.739 0 0 0 .738-.739zm0 0" class="cls-1" data-name="Path 9553" transform="translate(-152.713 -189.367)"/>
        <path id="Path_9554" d="M651.967 433.223a.739.739 0 0 0-.739-.738h-2.58a.739.739 0 0 0-.739.738v2.577a.739.739 0 0 0 .739.739h2.58a.739.739 0 0 0 .739-.739zm0 0" class="cls-1" data-name="Path 9554" transform="translate(-223.571 -189.367)"/>
        <path id="Path_9555" d="M497.358 510.528a.738.738 0 0 0-.739-.739h-2.579a.739.739 0 0 0-.739.739v2.578a.739.739 0 0 0 .739.739h2.579a.739.739 0 0 0 .739-.739zm0 0" class="cls-1" data-name="Path 9555" transform="translate(-81.855 -260.226)"/>
        <path id="Path_9556" d="M574.662 510.528a.739.739 0 0 0-.738-.739h-2.58a.739.739 0 0 0-.739.739v2.578a.739.739 0 0 0 .739.739h2.58a.739.739 0 0 0 .738-.739zm0 0" class="cls-1" data-name="Path 9556" transform="translate(-152.713 -260.226)"/>
        <g id="Group_3442" data-name="Group 3442" transform="translate(404 225.89)">
            <g id="Group_3441" class="cls-2" data-name="Group 3441">
                <path id="Path_9557" d="M651.967 510.528a.738.738 0 0 0-.738-.739h-2.58a.739.739 0 0 0-.739.739v2.578a.739.739 0 0 0 .739.739h2.58a.739.739 0 0 0 .738-.739zm0 0" class="cls-1" data-name="Path 9557" transform="translate(-627.571 -486.116)"/>
                <path id="Path_9558" d="M433.008 269.217v3.939a3.217 3.217 0 0 1-3.225 3.215h-2.034a3.234 3.234 0 0 1-3.244-3.215V269.2h-9.168v3.953a3.234 3.234 0 0 1-3.244 3.215h-2.035a3.217 3.217 0 0 1-3.224-3.215v-3.939a2.932 2.932 0 0 0-2.834 2.92v23.085a2.934 2.934 0 0 0 2.919 2.936h26a2.937 2.937 0 0 0 2.919-2.936v-23.085a2.932 2.932 0 0 0-2.834-2.917zm-.945 24.564a1.262 1.262 0 0 1-1.262 1.262h-21.816a1.262 1.262 0 0 1-1.262-1.262v-11.924a1.262 1.262 0 0 1 1.262-1.262H430.8a1.262 1.262 0 0 1 1.262 1.262zm0 0" class="cls-1" data-name="Path 9558" transform="translate(-404 -265.591)"/>
            </g>
        </g>
        <path id="Path_9559" d="M464.418 234.559h2.012a1.105 1.105 0 0 0 1.106-1.105V227a1.106 1.106 0 0 0-1.106-1.106h-2.012a1.106 1.106 0 0 0-1.106 1.106v6.458a1.105 1.105 0 0 0 1.106 1.105zm0 0" class="cls-1" data-name="Path 9559" transform="translate(-54.366)"/>
        <path id="Path_9560" d="M676.344 234.559h2.012a1.105 1.105 0 0 0 1.106-1.105V227a1.106 1.106 0 0 0-1.106-1.106h-2.012a1.106 1.106 0 0 0-1.106 1.106v6.458a1.105 1.105 0 0 0 1.106 1.105zm0 0" class="cls-1" data-name="Path 9560" transform="translate(-248.621)"/>
    </g>
</svg>
