<svg xmlns="http://www.w3.org/2000/svg" id="Group_1925" width="22.019" height="14.236" data-name="Group 1925" viewBox="0 0 22.019 14.236">
    <defs>
        <style>
            .cls-1{fill:#fff}
        </style>
    </defs>
    <path id="Path_38" d="M21.576 0H.439A.44.44 0 0 0 0 .439v11.553a2.246 2.246 0 0 0 2.244 2.244h17.53a2.246 2.246 0 0 0 2.244-2.244V.439A.447.447 0 0 0 21.576 0zm-.439 11.992a1.371 1.371 0 0 1-1.367 1.367H2.244a1.371 1.371 0 0 1-1.367-1.367V1.4l9.851 8.062a.444.444 0 0 0 .559 0l7.623-6.229a.44.44 0 1 0-.559-.679l-7.344 6L1.63.877h19.507z" class="cls-1" data-name="Path 38"/>
    <path id="Path_39" d="M449.1 34.64a.432.432 0 0 0 .275-.1l.133-.107a.44.44 0 0 0-.559-.679l-.133.107a.438.438 0 0 0-.06.619.456.456 0 0 0 .344.16z" class="cls-1" data-name="Path 39" transform="translate(-429.363 -32.206)"/>
</svg>
