<svg xmlns="http://www.w3.org/2000/svg" width="78" height="60.114" viewBox="0 0 78 60.114">
    <defs>
        <style>
            .cls-1,.cls-2{fill:#fff}.cls-1{fill-rule:evenodd}
        </style>
    </defs>
    <g id="Group_1924" data-name="Group 1924" transform="translate(-.1 .1)">
        <path id="Path_102" d="M31.912 57.5c-.072-.072-.072-.144-.072-.288a1.779 1.779 0 0 1-.288-.648.76.76 0 0 0-.144-.36c-.072.072.072.288 0 .36-.144 0-.144-.072-.216-.072-.648-.072-.864.432-1.44.36-.072.072-.072.144-.216.144a.374.374 0 0 1-.144.288c-.216.288-.648.432-.576.936l.216.216a1.216 1.216 0 0 0 .144.36c.072.216 0 .288 0 .432s0 .216-.072.288v.284c-.072.216-.288.36-.36.5a.264.264 0 0 0-.072.216c0 .072-.072.144-.072.288.144.144.36-.072.576 0 .144-.144.36-.288.432-.432a3.009 3.009 0 0 1 .288-.72.719.719 0 0 1 .36-.288c.36 0 .5-.288.936-.288.216-.5.864-.716.72-1.576z" class="cls-1" data-name="Path 102" transform="translate(-7.982 -15.768)"/>
        <path id="Path_103" d="M25.932 57.027a1.356 1.356 0 0 0 .144-.576c-.144-.144-.216-.288-.36-.432a.968.968 0 0 1-.5-.432c-.144 0-.288-.072-.432 0-.216.072-.216.36-.5.36a.7.7 0 0 1-.576.5c.072.216.216.36.288.576v.077c0 .36-.216.72-.216 1.08a2.1 2.1 0 0 0 .144.648c.072.144 0 .5.216.5.144-.072.216-.216.36-.36s.288-.36.432-.36c.072 0 .216.072.36 0a1.549 1.549 0 0 1 .576 0 3.326 3.326 0 0 1 .5-.5c.068-.577-.292-.793-.436-1.081z" class="cls-1" data-name="Path 103" transform="translate(-6.61 -15.588)"/>
        <path id="Path_104" d="M10.5 21.128c.072-.5.072-.864.36-1.152.072-.072.144-.072.216-.144.216-.144.576-.288.792-.432.072.072.144 0 .144.144a.264.264 0 0 1 .216-.072c.216 0 .288.144.432.144a1.073 1.073 0 0 1 .216.576c.072.216.36.288.5.5 0 .072.072.216.072.288a1.22 1.22 0 0 1 0 .72 1.023 1.023 0 0 1-.144.432c-.144.144-.288.36-.432.5-.36.072-.864.288-1.224.144-.144-.072-.216-.216-.36-.216a2.226 2.226 0 0 1-.144-.576c-.072-.072-.144-.072-.216-.144a1.918 1.918 0 0 0-.432-.72" class="cls-1" data-name="Path 104" transform="translate(-2.913 -5.461)"/>
        <path id="Path_105" d="M4.932 19.52c.144 0 .144-.072.288 0 .072 0 .144-.072.216-.144h.216c.144 0 .144-.144.216-.144.432.216.792-.288 1.152-.144 0 .144-.144.072-.144.144a2.165 2.165 0 0 1 .288 1.3 8.314 8.314 0 0 0 .144 1.152c0 .288.144.432-.144.5a4.4 4.4 0 0 1-.936-.216.155.155 0 0 1-.144-.144h-.577c-.072.144.072.288.072.576-.144 0-.216.144-.288.216-.144 0-.288-.36-.36-.5-.072-.216-.072-.432-.144-.72 0-.072-.072-.144-.072-.216a.783.783 0 0 0-.072-.36c-.072-.216-.216-.36-.216-.576A1.635 1.635 0 0 1 4 19.088c0-.144.144-.216.216-.288.36 0 .432.5.648.576 0 .072.072.072.072.144" class="cls-1" data-name="Path 105" transform="translate(-1.088 -5.293)"/>
        <path id="Path_106" d="M107.28 30.863v-.648c0-.216-.144-.36-.144-.576a1.993 1.993 0 0 1-.072-.648 8.663 8.663 0 0 1 0-1.368c0-.288.144-.576.144-.792s-.072-.432-.072-.648v-.792c0-.288.072-.576.072-.792 0-.36-.432-.5-.576-.72-.144 0-.288.144-.36.072-.288-.36-.144-.648 0-1.08l.216-.648a1.161 1.161 0 0 0-.216-.648c0-.072-.144-.072-.216-.144s-.144-.144-.216-.144c-.216-.072-.216 0-.432.072a3.13 3.13 0 0 1-.288.5.959.959 0 0 0-.216.36c-.072.144-.144.216-.144.36a2.225 2.225 0 0 1-.144.576 12.2 12.2 0 0 0 .072 1.656 10.6 10.6 0 0 0 .72 1.584 4.34 4.34 0 0 1 .072 1.656c0 .216-.144.36-.144.576s.144.432.144.72v.576a7.469 7.469 0 0 0 .288.72v.072a1.245 1.245 0 0 1-.072.72c-.072.216-.288.288-.36.5-.144.432.072.792.072 1.224.072.216.288.288.216.576 0 .144-.144.216-.216.36s-.072.36-.144.576l-.216.432v.216a3.614 3.614 0 0 1-.144.864c-.072.144-.072.36-.144.5-.072.432-.144.864-.216 1.368a2.7 2.7 0 0 0-.072.792c0 .216-.072.432-.072.648v.432a7.847 7.847 0 0 0 .216 1.872c0 .216.072.36.072.576a7.825 7.825 0 0 1 .072 1.3v.144a2.991 2.991 0 0 0 .216.936v.36c0 .144.072.216.144.36v.072a14.416 14.416 0 0 1 .288 1.728v.072c.072.288.072.576.36.72.072-.144-.144-.36-.144-.432.216.072.072.432.216.5a.665.665 0 0 0-.216-.648v-.216c.072-.36 0-.72.288-1.008 0-.288-.144-.576-.144-.792v-.36a1.831 1.831 0 0 0-.144-.5c0-.144-.072-.36-.072-.5a1.023 1.023 0 0 1-.144-.432v-.216a3.986 3.986 0 0 0-.144-1.3 1.585 1.585 0 0 0 .072-.576v-.072c.072-.144.216-.216.288-.288s.072-.216.144-.288.072-.216.144-.288c0-.36-.36-.576-.36-.792a.546.546 0 0 1 .144-.288c.072-.144.144-.216.144-.288a1.479 1.479 0 0 0 0-.792 1.023 1.023 0 0 1-.144-.432c0-.072-.072-.144-.072-.288a2.226 2.226 0 0 1 .144-.576 1.789 1.789 0 0 0 .072-.576c.072-.144.072-.288.144-.432 0-.072 0-.072.072-.144.144-.576.36-1.224.5-1.872.144-.936.432-1.8.5-2.664.216-.144.144-.432.216-.648.008.08.08.08.008.008z" class="cls-1" data-name="Path 106" transform="translate(-29.212 -5.982)"/>
        <path id="Path_107" d="M71.788 22.773c0-.144.072-.216.144-.36v-.288c0-.144.144-.216.144-.36.072-.288.072-.5.144-.864.288-.216.144-.648.36-1.008.072-.216.36-.288.432-.5a1.976 1.976 0 0 1 .144-.936c.072-.144.288-.216.36-.36a1.993 1.993 0 0 0 .072-.936v-.576c0-.072-.072-.144-.072-.216v-.288c-.072-.144-.216-.288-.216-.432-.288-.144-.432-.72-.936-.648-.144.144-.432.216-.576.432-.072.072 0 .288-.072.36-.072.144-.144.216-.216.36v.432a4.7 4.7 0 0 1 0 1.008V19.1a3.168 3.168 0 0 1-.144.72c-.144.648-.144 1.44-.288 2.016a22.043 22.043 0 0 0-.36 2.3c-.072.432-.072.864-.144 1.3 0 .144-.144.288-.144.432v.432a13.826 13.826 0 0 0 0 1.728c.072.288.144.432.216.72 0 .072.072.144.072.288 0 .216.072.432.072.648.072.288.072.648.144.936a3.119 3.119 0 0 0 .072.36v1.008a6.34 6.34 0 0 0 .144 1.224 6.587 6.587 0 0 1 .072 1.224v.648a4.692 4.692 0 0 0 .216 1.152h.072a.251.251 0 0 1 .144.072c.072.072.216.072.216.144 0 .216-.216.288-.216.5a2.672 2.672 0 0 0 .144.648 1.225 1.225 0 0 1-.072.5 3.118 3.118 0 0 1-.072.36v.94c0 .072-.072.216-.072.288v.216c0 .144.072.36.072.5 0 .288-.144.5-.144.792a1.4 1.4 0 0 1-.072.576l-.072.072c.144.072-.072.216-.144.144a1.322 1.322 0 0 1-.864.144c-.216-.144-.216-.288-.432-.288s-.36.144-.5.072c-.072 0-.144-.072-.216-.144l-.216-.216c-.072 0-.144-.072-.216-.072a4.592 4.592 0 0 0-.5-.144c-.072 0-.144-.072-.216-.144a2.984 2.984 0 0 0-1.152-.216c-.216 0-.36-.072-.576-.072h-1.231c-.36 0-.72-.144-1.08-.144-.792-.072-1.656 0-2.448 0a6.935 6.935 0 0 0-1.224 0c-.288 0-.576.144-.864.144h-.5c-.144 0-.288.072-.5.072a4.055 4.055 0 0 0-.936 0c-.288.072-.648.072-.936.144-.144 0-.288.144-.36.144-.144 0-.36.072-.5 0-.144 0-.288-.144-.36-.144h-.36c-1.008-.072-2.088.072-3.024 0a4.214 4.214 0 0 1-.936-.144 4.213 4.213 0 0 0-.936.144 2.8 2.8 0 0 1-1.08.144c-.432 0-.792-.288-1.224-.288a5.448 5.448 0 0 1-1.08-.072.817.817 0 0 0-.576-.216 2.046 2.046 0 0 0-.864.288c-.288.144-.648.144-.864.288a7.933 7.933 0 0 0-1.3.144 3.609 3.609 0 0 1-1.224.072c-.216 0-.432-.144-.72-.072-.216-.072-.288-.216-.5-.288s-.432-.072-.576-.144-.216-.216-.36-.288a7.587 7.587 0 0 1-.792-.5c-.072-.072-.216-.144-.288-.216a1.57 1.57 0 0 0-.36-.288c-.216-.144-.36-.216-.576-.36a3.2 3.2 0 0 1-.792-.576c-.144-.144-.288-.36-.432-.432-.072-.072-.216-.072-.36-.144-.072 0-.072-.072-.144-.072a1.909 1.909 0 0 0-.432-.36 4.019 4.019 0 0 1-.576-.36c-.144-.072-.216-.216-.288-.288-.288-.288-.72-.432-.936-.792a.071.071 0 0 0-.072-.072 9.88 9.88 0 0 1-2.088-1.8 6.753 6.753 0 0 0-.864-.648 3.131 3.131 0 0 1-.5-.432c-.072-.072-.216-.072-.288-.144l-.288-.144a3.994 3.994 0 0 1-.576-.432c-.144-.144-.144-.288-.288-.432-.288-.216-.72-.288-.864-.648a3.908 3.908 0 0 1-1.08-.648c-.144-.144-.432-.36-.576-.5a1.573 1.573 0 0 1-.216-.36c-.072-.072-.144-.072-.216-.144-.144-.144-.288-.216-.36-.36-.072-.072-.144-.144-.144-.216-.072-.072-.216-.072-.36-.144l-.144-.144-.072-.072c-.072-.072-.144-.072-.216-.144a4.107 4.107 0 0 1-.792-.792 6.491 6.491 0 0 0-.72-.648l-.144-.072a1.574 1.574 0 0 0-.36-.216c-.072-.144-.216-.216-.216-.288-.144-.072-.216-.072-.288-.216a1.72 1.72 0 0 1-.648-.216c-.144.144-.288.36-.5.36a1.176 1.176 0 0 1 0 .5c-.144 0-.216-.072-.288.072.072.072.216 0 .288.072a6.175 6.175 0 0 0 1.44.936 4.622 4.622 0 0 1 .936.72l.072.072.288.288a4.019 4.019 0 0 0 .576.36 4.816 4.816 0 0 0 1.224.5c0 .144.144.144.144.288a.543.543 0 0 0 .072.576 5.052 5.052 0 0 0 .648.432c.432.288.792.72 1.152 1.008a2.419 2.419 0 0 0 1.008.576 6.43 6.43 0 0 1 .36.936c.144.144.36.288.432.432v.072a1.574 1.574 0 0 0 .216.36c.144.144.288.144.432.288a1.574 1.574 0 0 1 .216.36 2.242 2.242 0 0 0 .648.5c.144.072.216.216.288.288.072.072.144.216.288.288a1.574 1.574 0 0 0 .36.216c.288.216.5.576.792.792 0 .072.072.144.072.216a1.447 1.447 0 0 1 .576.288c.144.072.216.144.36.216a3.752 3.752 0 0 0 1.08.432 3.01 3.01 0 0 1 .792 1.224c.288.288.5.648.792.936.072.072 0 .144 0 .216.216.216.5.36.576.72v.072a2.8 2.8 0 0 1-1.08.144 1.831 1.831 0 0 1-.5-.144c-.144 0-.288-.072-.432-.072h-.144c-.144-.072-.216-.144-.36-.144a3.912 3.912 0 0 0-1.584 0 .539.539 0 0 0-.36.072c-.144.072-.288.072-.36.144h-.576c-.216 0-.36.144-.576.144a2.669 2.669 0 0 1-1.08.288 1.023 1.023 0 0 1-.432.144h-.216l-.072.072h-.144a3.007 3.007 0 0 1-1.656-.5l-.144-.144a.433.433 0 0 0-.288-.072.868.868 0 0 1-.36-.36 3.339 3.339 0 0 0-1.512-.288 2.4 2.4 0 0 1-.72 0c-.144-.288-.576-.36-.864-.5-.288.072-.648.144-.936.216a6.124 6.124 0 0 1-1.584.288 2.991 2.991 0 0 1-.936-.216.546.546 0 0 0-.288-.144 2.1 2.1 0 0 1 .144-.648v-.216c0-.144-.072-.288-.072-.432 0-.216.144-.36.216-.576a1.917 1.917 0 0 1-.216-.864v-1.869a2.288 2.288 0 0 0-.163-1.007 1.023 1.023 0 0 1-.144-.432v-.216c0-.072-.072-.072-.072-.144-.072-.072-.072-.144-.144-.216v-.216a4.249 4.249 0 0 1-.144-1.008c.072-.72.144-1.368.216-2.088-.072-.144 0-.432-.144-.576-.648.144-.72.792-1.224 1.08A2.746 2.746 0 0 0 17 32.492c-.072.144-.144.216-.144.36 0 .216.216.36.36.432.144.144.5.36.432.648 0 .144-.144.288-.144.36s-.072.144-.072.216a.264.264 0 0 0-.072.216 4.069 4.069 0 0 1 0 .936c0 .072-.144.216-.144.216v.072c-.072.144-.072.072-.144.216a.251.251 0 0 1-.072.144c0 .072-.072.072-.072.144a.4.4 0 0 0 .5.216c.144.144.5.144.648.36a6.336 6.336 0 0 1 .36 1.08c0 .144.072.288.072.432a2.7 2.7 0 0 0 .072.792c0 .216.144.36.216.576a2.4 2.4 0 0 0 0 .72 1.694 1.694 0 0 1 .144.576.889.889 0 0 1-.576.288c-.288 0-.5-.216-.792-.216s-.5.288-.72.36a2.1 2.1 0 0 1-.648.144c-.216 0-.36-.144-.576-.216-.072 0-.072.072-.144.072h-.144c-.072 0-.216.072-.288.072a1.831 1.831 0 0 1-.5-.144 1.549 1.549 0 0 1-.576 0c-.288-.216-.288-.864-.288-1.3v-4.605a2.775 2.775 0 0 1-.144-1.368v-.071a9.663 9.663 0 0 1 .072-1.512v-.432a1.023 1.023 0 0 1 .144-.432V31.2a2.226 2.226 0 0 1 .144-.576 1.585 1.585 0 0 1 .072-.576 1.356 1.356 0 0 1 .144-.576v-.652a14.459 14.459 0 0 0 .072-1.728 17.353 17.353 0 0 1 0-2.736c0-.216.144-.432.144-.648 0-.144-.144-.36-.144-.576a8.9 8.9 0 0 1-.144-1.3v-1.507c0-.36.072-.792.072-1.152 0-.144-.072-.288-.072-.432a3.118 3.118 0 0 1 .072-.36 1.8 1.8 0 0 0-.216-.936c-.576.072-.648.576-1.152.648-.072.072-.072.144-.144.216-.072.144-.144.144-.144.216a1.072 1.072 0 0 0 .288.648c.144.144.5.288.432.576 0 .144-.144.144-.216.216a.264.264 0 0 1-.072.216 6.814 6.814 0 0 0-.36 1.3 2.1 2.1 0 0 0-.144.648v.36c0 .216-.072.36-.072.5a.772.772 0 0 0 .144.432c0 .072.072.216.072.288.072.144.216.216.288.432a2.552 2.552 0 0 1 .216.792 4.961 4.961 0 0 0 .216.576c.072.216.144.36.216.576-.072.144-.144.36-.36.432a5.457 5.457 0 0 0-.432 1.152v2.808c0 .144.072.216.072.36 0 .072-.072.144-.072.216a6.1 6.1 0 0 0 0 1.152 1.957 1.957 0 0 1 0 .648c0 .216-.144.36-.144.576a2.283 2.283 0 0 1-.36.432v.072a.071.071 0 0 0-.072.072.913.913 0 0 0-.072.432.924.924 0 0 0 .288.72.719.719 0 0 1 .36.288c0 .288-.216.432-.288.648v.216a3.092 3.092 0 0 1 0 1.152c.072.144.144.144.216.288a.649.649 0 0 1-.072.36v1.08a3.118 3.118 0 0 1-.072.36v.648c0 .648-.072 1.152-.072 1.656a1.07 1.07 0 0 0-.432-.072c-.072 0-.144.072-.216.144a.374.374 0 0 1-.288.144c.072 0 .072-.072.144-.072a13.034 13.034 0 0 0-1.656.216c-.144 0-.216-.072-.36-.072a1.335 1.335 0 0 0-.5.144c-.072-.144-.216-.216-.288-.288-.072-.072-.144-.144-.144-.216a2.1 2.1 0 0 1-.144-.648c0-.144.072-.216.072-.36 0-.072-.072-.144-.144-.216 0-.072-.072-.216-.072-.288v-.144a13.836 13.836 0 0 1 0-1.728v-.072a.649.649 0 0 1 .072-.36 1.225 1.225 0 0 1 .072-.5c0-.072.072-.216.072-.288 0-.216-.144-.5-.144-.72v-.072a4.275 4.275 0 0 0 .288-.576v-.576c.072-.144.216-.288.216-.432.144-.072.216-.216.288-.288.072-.072.072-.072.072-.144a1.525 1.525 0 0 0 .216-.5 2.288 2.288 0 0 0-.144-1.008c-.216-.864-.36-1.728-.5-2.52-.072-.36-.072-.792-.144-1.08a.546.546 0 0 0-.144-.288c0-.072-.072-.144-.072-.216a6.483 6.483 0 0 1-.221-1.157 1.585 1.585 0 0 0-.072-.576c-.072-.288-.216-.5-.144-.792a.607.607 0 0 0-.5-.144c-.216.144-.288.36-.5.5-.144 0-.216-.072-.36-.072-.216.144-.216.36-.36.576-.216.36-.576.72-.792 1.08a4.018 4.018 0 0 1-.36.576l-.216.216c-.072.072-.144.216-.216.288-.144.216-.288.36-.432.576-.072.144-.072.288-.144.36a.994.994 0 0 1-.216.288 2.156 2.156 0 0 0-.288.72 1.241 1.241 0 0 1-.432.432s-.144.072-.144.144c-.072.072-.072.216-.144.36a4.59 4.59 0 0 1-.576 1.008c-.216.36-.432.864-.576 1.152 0 .072 0 .072-.072.144v.072c-.216.5-.576.864-.792 1.3a3.51 3.51 0 0 0-.216.5c.144.144.144.216.144.288a7.468 7.468 0 0 1-.288.72 1.549 1.549 0 0 0 0 .576 3.118 3.118 0 0 0 .072.36v.072a.155.155 0 0 0 .144.144c.072-.072-.072-.072 0-.144a.539.539 0 0 1 .072.36C.8 38.683.8 38.4.732 38.467a6.69 6.69 0 0 1 .36.72 6.718 6.718 0 0 0 1.44.72.251.251 0 0 0 .072.144c.072.216.216.36.288.576.072.072.144.216.216.288s.288.072.216.216a1.831 1.831 0 0 1 .5.144 1.993 1.993 0 0 0 .648.072c.432-.072.72-.288 1.08-.36.072-.072 0-.288.144-.36.144 0 .288.144.432.072.144 0 .288-.288.576-.216.144-.216.36-.288.5-.432a.223.223 0 0 1 .144-.072l.144-.144v.216c0 .5-.072.936-.072 1.44a.539.539 0 0 0 .072.36.649.649 0 0 0 .072.36c0 .36-.072.648.072.864-.072-.072 0 .072 0 .072a.632.632 0 0 0 .072.5.251.251 0 0 0 .072.144v.072h.072v.144c0 .072.072.072.072.144a.553.553 0 0 0 .144.216c.072.144.144.144.216.216s0 .216.144.216c.288-.36.576-.792.864-1.152a1.728 1.728 0 0 1 .864-.5c.216.144.5 0 .72.072.144-.144.36-.144.5-.216.072.072.144 0 .288-.072a1.993 1.993 0 0 0 .648-.072c.216-.072.288-.288.5-.288a.661.661 0 0 1 .288.432c.072.072.216.216.144.36.216 0 .288.288.432.36l.072.072a.264.264 0 0 0 .216-.072c.144-.072.216-.216.36-.288.216-.144.36-.432.5-.432.216-.072.432.072.648 0a6.741 6.741 0 0 0 1.152-.288c.288-.072.576.072.792 0 .144 0 .216-.144.36-.144.36-.072.576-.144.864-.216a3.993 3.993 0 0 1 .576-.432c.144.144.144.36.216.5s.288.144.36.288c.144-.072.216.072.36.072h.448c.072 0 .144.144.216.144.072.072.216 0 .288.072a4.954 4.954 0 0 0 .936.144c.288 0 .648.072 1.008.072.432 0 .792-.072 1.3-.072h.72a5.6 5.6 0 0 1 1.152.144 12.167 12.167 0 0 0 2.808 0c.72-.144 1.512-.144 2.16-.216.5-.072.864-.144 1.3-.216a3.564 3.564 0 0 0 .936-.288c.288.072.576-.072.864-.072a1.882 1.882 0 0 1 .576.216 4.959 4.959 0 0 0 .576.216 2.13 2.13 0 0 0 .72.144 9.8 9.8 0 0 0 1.512-.144c.288-.072.576-.144.792-.216s.5-.072.792-.144a4.427 4.427 0 0 1 .792-.216c.288 0 .5.288.72.216.144 0 .288-.144.36-.144.144-.072.216-.144.36-.144.216 0 .432.144.72.144a6.455 6.455 0 0 0 1.728-.144 4.213 4.213 0 0 1 .936-.144c.072 0 .144.072.216.072a1.771 1.771 0 0 0 .792-.288.251.251 0 0 0 .144-.072.712.712 0 0 1 .576-.072 1.694 1.694 0 0 1 .576.144c.072 0 .216.072.288.072a1.225 1.225 0 0 0 .5.072 1.068 1.068 0 0 1 .5.072c.072 0 .144.072.216.144a3.118 3.118 0 0 1 .36.072h.288l.432.216c.216.072.432 0 .72.072a2.288 2.288 0 0 1 .648.216h.288a5.739 5.739 0 0 1 1.08.216c.216.072.5 0 .72.072a3.879 3.879 0 0 1 .72.216h.576a1.694 1.694 0 0 1 .576.144 3.469 3.469 0 0 1 .864 0c.5 0 1.152-.144 1.512-.144h.36c.072 0 .216-.072.288-.072h.288c.216 0 .432-.216.648-.144a2.217 2.217 0 0 1 .936-.216c.144-.216.36-.144.648-.216.072 0 .144-.144.288-.144h.36a1.694 1.694 0 0 1 .576-.144 12.655 12.655 0 0 1 1.656 0c.36 0 .72-.072 1.08-.072.216 0 .36.072.576.072a8.438 8.438 0 0 1 1.944.288 2.7 2.7 0 0 1 .792-.072c.144.072.144.144.216.072a1.941 1.941 0 0 0 .576.5c.36 0 .792-.144 1.152-.144a2.252 2.252 0 0 1 .72.36 1.693 1.693 0 0 1 1.368.5l.072.072c.072.144 0 .36.144.432a.655.655 0 0 0 .288-.576 1.976 1.976 0 0 0-.144-.936c-.072-.144-.072-.288-.144-.432a.913.913 0 0 1-.072-.432c0-.144.072-.36.072-.5a10 10 0 0 1 .432-1.368l.216-.432c0-.072.072-.144.072-.216a2.669 2.669 0 0 0 .288-1.08v-.144c0-.144-.072-.216-.072-.36a1.832 1.832 0 0 0-.144-.5 5 5 0 0 0-.36-.936v-.072a8.527 8.527 0 0 1 .144-1.872v-.144c0-.072-.072-.216-.072-.288 0-.36.144-.72.144-1.008a2.516 2.516 0 0 0-.216-.864 1.406 1.406 0 0 0-.072-.5 4.753 4.753 0 0 1-.072-1.008v-.432c0-.144-.144-.36-.144-.5a.913.913 0 0 1 .072-.432v-.288a1.694 1.694 0 0 0-.144-.576c-.072-.144-.216-.144-.288-.288V28.1a.071.071 0 0 1-.072-.072 3.653 3.653 0 0 1-.576-2.3.734.734 0 0 0 .36-.576 3.614 3.614 0 0 0-.144-.864c0-.216.072-.5.072-.792a1.126 1.126 0 0 0 .212-.723zM6.923 39.907a2.413 2.413 0 0 0-.72 0 1.908 1.908 0 0 1-.936.072 1.022 1.022 0 0 1-.648-.576s-.144-.072-.144-.144c-.072.072-.144-.072-.216-.144-.072-.5-.432-.72-.864-.864h-.072a1.291 1.291 0 0 1-.36-.5c.072-.144 0-.36 0-.432a1.041 1.041 0 0 1 .144-.5 1.216 1.216 0 0 1 .144-.36c0-.072.072-.072.072-.144a1.216 1.216 0 0 0 .144-.36l.216-.216c.072-.072.072-.216.144-.288a2.4 2.4 0 0 0 .216-.432.251.251 0 0 0 .072-.144.433.433 0 0 0 .072-.288v-.072c0-.072.144-.144.144-.216.144-.216.288-.5.432-.72a4.5 4.5 0 0 1 .72-1.44 10.407 10.407 0 0 0 .792-2.088c.144-.072.216-.216.36-.216.288.216.288.576.288.936 0 1.3.648 2.592.576 3.816v1.872a16.222 16.222 0 0 0 0 1.872 7.426 7.426 0 0 0 .144 1.44c-.288-.008-.432.136-.72.136z" class="cls-1" data-name="Path 107" transform="translate(-.128 -4.227)"/>
        <path id="Path_108" d="M57.839 40.864a.947.947 0 0 1 .72.432 7.442 7.442 0 0 1-.216.864c-.144 0-.432-.072-.576.144-.576-.288-.576-.144-.576-.5a1.151 1.151 0 0 1 .648-.936m-2.952.288c.072 0 .072.072.144.072s.072 0 .072-.072c.072 0 .072.072.216.072s.216-.144.288-.144a1 1 0 0 1 .936.576c.072.5-.072.864-.648.864-.144 0-.072-.072-.216-.072s-.072.072-.144.072a.544.544 0 0 0-.576-.216c0-.144.072-.36-.144-.36.144-.288 0-.648.072-.792M56.9 57.278a.365.365 0 0 0-.072.36c0 .072 0 .36.216.36a1.264 1.264 0 0 0 .288-.36v-.36a.453.453 0 0 1-.432 0m.072-2.448c-1.152 1.368-2.448 2.952-3.672 4.392v.144a5.987 5.987 0 0 0 .936.144c.144 0 .216-.144.288-.144.144 0 .072.072.216.072s.288-.144.432-.144a.539.539 0 0 1 .36.072c.144-.144.36-.144.5-.288a3.261 3.261 0 0 1 .216-1.152c-.144 0-.144-.144-.144-.216a.983.983 0 0 1 .796-1.01c.36 0 1.08.072 1.152.72.072.36-.144.432-.36.792.072 0 .144 0 .144.072l-.288.288v.36c.5-.072 2.088-.216 2.592-.216v-.36a25.063 25.063 0 0 0-3.168-3.528m-1.3-5.975a2.963 2.963 0 0 0-.576.216v.144a2.827 2.827 0 0 0 1.3 1.08 6.815 6.815 0 0 1 1.224-.648c.144 0 .072.072.216.072s.072-.072.216-.144h.216c.072.144.144.216.216.36.288-.36.648-.72.936-1.08v-.144h-.432c0 .072 0 .072-.072.072-.144 0-.072-.072-.216-.072s-.072.072-.144.144l-.72.072c-.144 0-.072-.072-.144-.072 0 .072 0 .072-.144.072s-.576-.144-.72-.144-.216.144-.288.144a3.5 3.5 0 0 1-.864-.072m1.368-1.512c.072.288-.072.144-.216.432h-.144a.264.264 0 0 1-.072-.216h-.432c-.288.288-.72.5-.936.864.432 0 .936.144 1.224.144.144 0 .072-.072.216-.144a7.472 7.472 0 0 1 .936.288l.936-.072c.288-.072.432-.288.864-.288a3.291 3.291 0 0 0-1.728-.864v-.216c-.288.288-.288.072-.648.072m.36-.5c0 .072-.072.144-.072.216h.288q-.108-.216-.216-.216m-.72-.432a.54.54 0 0 0 .36.072.539.539 0 0 0-.36-.072m2.592-5.975a.539.539 0 0 0 .36.072c-.144-.144-.216-.144-.36-.072m-.36-1.08v.216c.072 0 .144.072.216.072V39.5c-.072-.072-.144-.144-.216-.144m-.072-.216c.144.072.288.072.432.144v-.144zm.144-.5c0 .072-.072.144-.072.216h.216c0-.072.072-.144.072-.216zm-.216-9.719c-.072 0-.144.216-.5.072v.288a.55.55 0 0 1 .36-.144.539.539 0 0 1 .36.072c0-.072 0-.072.144-.144a.55.55 0 0 0-.36-.144m-.36-.36a.539.539 0 0 0 .36.072.539.539 0 0 0-.36-.072m-.433-18.726h.288s.5.648.5.864c0 .144-.072.072-.072.216l.072.648c0 .288-.144.576-.144.936 0 .144.144.288.144.36 0 .144-.072 0-.072.144s.144 0 .144.144-.072.144-.072.216c0 .144.072.144.144.144a.264.264 0 0 0-.072.216c0 .144.072.144.144.144 0 .072-.072.072-.072.216s.144.072.144.216-.072.144-.072.288.144.144.144.216c0 .144-.144 0-.072.072 0 .144.144 0 .144.144s-.144.432-.144.648v1.008c0 .36.072.144.36.432-.072 0-.072 0-.144-.072h-.144a.885.885 0 0 0-.072.576c0 .144.144.144.144.288 0 .288-.216.936-.216 1.152l.072.576c0 .144 0 0 .144.072-.072.144-.216.216-.216.36s.072.144.144.144a.264.264 0 0 0-.072.216c0 .144.144.288.144.36 0 .216.072.288-.216.36.072.072.072.144.216.144 0 .144-.072.216-.072.288v1.3a.4.4 0 0 0 .144.36h-.144c-.072.072 0 .072 0 .216s.144.36.144.5a6.192 6.192 0 0 0-.072 1.152c0 .144 0 .144.072.216.072-.072.072-.144.144-.216a3.652 3.652 0 0 0-.144.648c0 .144.144.144.144.288s-.072.072-.072.216l.072.576c0 .144 0 0 .144.072a.264.264 0 0 0-.072.216c0 .144.144.144.144.216 0 .144-.072.072-.072.144l.072 1.008c0 .144-.144 0-.072.072 0 .216.5.648.5.72-.072-.072-.216-.072-.288-.144h-.144l.072.648a.553.553 0 0 0 .216.144c-.072.216-.288.432-.288.576s.288.36.288.5-.072 0-.072.144.072 0 .144.072l.144 1.152c0 .144-.144 0-.072.072 0 .144.144 0 .144.144a3.118 3.118 0 0 1-.072.36c.072.5 0 .072.5.432h-.36c-.072.072-.072 0 0 .144 0 .144.072.072.144.072a.264.264 0 0 0-.072.216c0 .144.072.144.144.144a1.032 1.032 0 0 0-.144.5c0 .144.144.288.144.36 0 .144-.072.072-.072.216l.081 1.013c0 .144 0 0 .144.072-.072.144-.216.216-.216.36s.072 0 .144.072c0 .144-.072.072-.072.216s.072.144.144.144c-.072.072-.072.144-.072.288s0 .144.144.216a.539.539 0 0 0-.072.36c0 .216 0 .144.216.288h-.144c0 .144-.144.288-.144.432s.072.072.144.072c0 .072-.072 0-.072.144l.072.792 1.584 2.592a.649.649 0 0 1-.072.36c.072.072.144.072.216.144H62.3c-.144 0-.072-.072-.072-.072-.648.576-.36.936-1.152.936-.144 0-.576-.216-.72-.216-.216 0-.432.36-.5.72a2.511 2.511 0 0 0-.936 1.44.141.141 0 0 0 .144.144c-.072 0-.072-.072-.144-.072a3.206 3.206 0 0 0-.432.864c0 .144.144.216.216.36-.072.072-.072.216-.216.288.432.288 1.08.144 1.512.36a3.978 3.978 0 0 1 1.224 1.008c-.072.216-1.224 2.376-2.088 2.448-.36 0-.288-.5-.648-.648v.36a.264.264 0 0 0-.216.072.374.374 0 0 1 .144.288c0 .144-.144.432-.144.576s.072 0 .144.072c0 .144-.144 0-.072.072 0 .144.144 0 .144.144s-.216 1.08-.216 1.152c0 .144 0 .144.144.216-.288.216-.072.648-.216.864a12.193 12.193 0 0 0 1.368 1.368.071.071 0 0 1 .072-.072c0 .072-.072.072-.072.216s.432.288.576.432c.36.432.792 1.08 1.152 1.584a12.525 12.525 0 0 0 .792 1.3c-.144.144-.144.216-.288.216s-.288.072-.36-.144c-.648.216 0 .576-.576.648-.144 0-.144-.072-.288-.072s.072.072-.072.072l-1.944.216c-.36-.288-1.3 0-1.584-.5l-.072-.648c0-.144.072-.072.072-.072-.072-.072 0 0-.144 0-.216 0-.288.72-.288.72 0 .144.144.072.144.216 0 .072-.216.288.072.5h-.36a4.588 4.588 0 0 1-.5-.144c-.144 0-.072.072-.216.144-.144 0-.072-.072-.216-.072s-.144.072-.288.144c-.144 0-.36-.144-.5-.144l-.792.072c-.144 0-.36-.144-.5-.144s-.072 0-.072.072h-.288c-.072-.072-.144-.144-.216-.144v-.144c.72-1.008 4.1-4.824 4.032-5.4l-.072-.648c0-.144.216-.216.216-.36l-.072-.648c0-.144.216-.36.144-.5 0-.144-.072-.144-.144-.144.072-.072.216-.144.216-.288s-.072-.072-.144-.072c.072-.216.288-.5.288-.576 0-.144-.144-.144-.144-.216-.072-.072 0 0-.144 0s-.5.36-.648.36-.072-.072-.144-.072c-.144 0-.072.072-.216.144-.576.072-1.08-1.08-2.3-1.872.144-1.008 2.592-2.088 2.592-2.448 0-.144-.144-.288-.144-.432a.745.745 0 0 1 .072-.288l-.072-1.008c.072 0 .072 0 .072-.144s-.144-.144-.144-.216c0-.144.072-.072.072-.216s-.288-.576-.288-.648c0-.144.072-.072.072-.072-.072-.072-.072-.144-.216-.144v-.144h.432c0 .144 0 .216.072.288.072 0 .072-.072.144-.072v.216c0 .144-.072 0-.072.072v.288c.072-.072.072-.144.144-.216a1.16 1.16 0 0 0 .288.5l.144 1.728h.216c.576-.936 1.224-2.16 1.8-3.168.072 0 1.584-.288 1.512-.72-.072-.36-.5-.36-.5-.936-.72.072-.792-.5-1.368-.792 0-.072.072-.072.072-.144-.144-.288-.144-.36-.36-.5l-.072-.648c0-.144 0 0-.072 0 0-.072.072-.072.072-.216s-.144-.072-.144-.216.072-.144.072-.288 0-.144-.144-.216V38.2h.144v-.288c0-.072-.144-.288-.144-.36 0-.144.144 0 .072-.072 0-.144-.144-.072-.144-.144q.216-.108.216-.216l-.144-1.152c0-.144-.288-.36-.5-.576.288-.072.432-.36.36-.36 0-.144-.144 0-.144-.144s.072 0 .072-.144-.072.072-.144-.072l.216-1.584c0-.144.144.072.072-.072 0-.144-.072.072-.144-.072v-.216a.264.264 0 0 0 .216-.072c-.144-.072-.144-.216-.144-.36s.072-.288.072-.432-.144-.144-.144-.216c0-.144.072-.072.072-.216s0-.072-.144-.072c0-.072.072 0 .072-.072l-.072-.648c0-.144.144.072.072-.072 0-.144-.144-.072-.144-.216a2.918 2.918 0 0 1 .36-.648c-.072-.072-.072-.144-.216-.144l-.432-4.608c0-.144.144.072.072-.072 0-.144-.072 0-.144-.072 0-.144.144 0 .072-.072 0-.144-.144-.072-.144-.216s.072-.072.072-.216a.886.886 0 0 1-.144-.36 4.327 4.327 0 0 0 0-1.08c0-.072.072 0 .072-.144l-.072-1.008c0-.144.072 0 .072-.072L57 20.56c0-.144.072 0 .072-.072L57 19.84c0-.144.072 0 .072-.072L56.9 18.69l.144-.5-.072-.648s.144-.5.144-.576c0-.144-.072 0-.144-.072 0-.144.144.072.072-.072l-.072-.792c0-.144.072 0 .072-.072l-.072-.648c0-.144.144-.5.144-.648l-.072-.648c0-.144.072 0 .072-.072l-.072-.72c0-.144.072 0 .072-.072l-.072-.936a11.916 11.916 0 0 1 .436-1.514zM83.757.764c.144.072.288.072.432.144V.764zM81.165.62c.072.072.144.072.288.072a.433.433 0 0 0-.288-.072m1.224-.288c-.144.144-.288.144-.36.288h.288c0-.072 0-.072.072-.072zM71.806.26l1.008-.072c.144 0 .072.072.216.072s-.072-.072.07-.072l1.226-.072c.144 0 0 .072.144.072s.144-.072.288-.144c.144 0 .144.072.288.072a.266.266 0 0 1 .216-.144.745.745 0 0 1 .288.072l.864-.072c.144 0 0 .072.144.072l1.08-.072c.144 0 0 .072.144.072S77.853-.028 78-.1c.144 0 .072.072.216.072h.864c.144 0 0 .072.144.072l.648-.072c.144 0 0 .072.144.072l.648-.072C81.525-.1 85.7.62 85.845.62a7.8 7.8 0 0 0 1.368.576v.144c-.072 0-.072.144-.216.144 0 0 .144.072.144.144h-.288c-.288-.216-.432-.576-.792-.5-.36 0-.216 0-.5.36a.968.968 0 0 0-.648-.144.251.251 0 0 1 .072-.144c-.072-.072 0 0-.144 0s-.072.072-.216.144a45.811 45.811 0 0 0-5.116-.796l-.576.144c-.144 0 0-.072-.144-.072h-.648c-.072 0-.72-.144-.72-.144-.144 0 .072.072-.072.072l-.864.144c-.144 0 0-.072-.144-.072l-1.08.072A3.118 3.118 0 0 0 74.9.62c-.144 0-.288.144-.432.144S74.4.692 74.326.692c-.144 0 0 .072-.072.072-.144 0 0-.072-.144-.072L72.6.836a1.627 1.627 0 0 0-1.08.36.251.251 0 0 1 .072-.144c-.072-.072 0 0-.144 0s-.144.144-.288.144-.072-.072-.216-.072-.144.072-.144.144a4.444 4.444 0 0 1-.648.072c0 .072.144.072.144.144l-.648-.072c0-.072 0-.072-.144-.072s-.072 0-.072.072l-.72.072a24.86 24.86 0 0 0-4.1 1.8c0 .288-.432.36-.648.576 0 .072 0 .072.144.072v.216h-.144a.433.433 0 0 1-.072.288c-.072-.144-.144-.144-.216-.144 0-.072.072-.072.072-.144V4h-.216c-.576.072-.36.72-.792.792 0 0 .144.072.144.144-.216 0-.648 0-.72.36h.136c.072 0 .072-.072.288-.072-.216.072-.36.216-.5.216-.072.072-.072 0 0 .072a.141.141 0 0 0 .144.144 1.4 1.4 0 0 0-1.008 1.08.977.977 0 0 0-.792.5c0 .072 0 .072.144.072-.144.216-.5.5-.576.648-.216.432-.288.864-.792.936-.864.072-.5-.72-1.152-1.008l-.072-.648c.288-1.368 1.944-1.656 2.592-2.808.072 0 .072.072.144.072 1.152-1.08 3.024-1.8 4.392-2.592.072 0 .072.072.144.072A9.876 9.876 0 0 1 68.35.836c.144 0 .072.072.216.072s.216-.072.288-.216l.72-.072c.144 0-.072-.072.072-.072l.792-.072c.144 0-.072-.072.072-.072l1.152-.072c.144 0 0-.072.144-.072" class="cls-2" data-name="Path 108" transform="translate(-14.76)"/>
        <path id="Path_109" d="M1 79.4h.58l-.216-.576c-.072-.216-.072-.36-.144-.432 0 .144-.072.288-.072.432zm-.5.864l.72-2.16h.288l.72 2.16H1.94l-.216-.648H1l-.216.648z" class="cls-1" data-name="Path 109" transform="translate(-.112 -21.902)"/>
        <path id="Path_110" d="M5.916 79.108h.5c.144 0 .216 0 .288-.072.072 0 .072-.072.144-.144 0-.072.072-.144.072-.216s0-.216-.072-.216c-.072-.072-.144-.072-.288-.072h-.644zM5.7 80.26V78.1h.792a.539.539 0 0 1 .36.072c.072.072.144.072.216.216a.433.433 0 0 1 .072.288.55.55 0 0 1-.144.36 1.574 1.574 0 0 1-.36.216.223.223 0 0 0 .144.072.994.994 0 0 1 .22.288l.288.576H7l-.216-.432c-.072-.144-.144-.216-.144-.288-.072 0-.144 0-.144-.072a.251.251 0 0 0-.144-.072h-.436v.936H5.7z" class="cls-1" data-name="Path 110" transform="translate(-1.568 -21.902)"/>
        <path id="Path_111" d="M11.176 80.288v-1.872H10.6V78.2h1.44v.216h-.576v1.872z" class="cls-2" data-name="Path 111" transform="translate(-2.941 -21.93)"/>
        <path id="Path_112" d="M19.864 79.468v-.288h.792v.792c-.144.144-.216.216-.36.216a.783.783 0 0 1-.36.072 1.335 1.335 0 0 1-.5-.144.868.868 0 0 1-.36-.36 1.067 1.067 0 0 1-.072-.5 1.356 1.356 0 0 1 .144-.576c.072-.216.216-.288.288-.432a1.04 1.04 0 0 1 .5-.144.649.649 0 0 1 .36.072c.072.072.216.144.216.216.072.072.072.216.144.36l-.216.072c0-.144-.072-.216-.072-.288-.072-.072-.072-.144-.144-.144a.264.264 0 0 0-.216-.072c-.144 0-.216 0-.288.072s-.144.072-.216.144-.072.144-.144.216a.913.913 0 0 0-.072.432 1.068 1.068 0 0 0 .072.5.994.994 0 0 0 .216.288.54.54 0 0 0 .36.072.433.433 0 0 0 .288-.072c.072-.072.144-.072.216-.144v-.36z" class="cls-2" data-name="Path 112" transform="translate(-5.293 -21.902)"/>
        <path id="Path_113" d="M24.6 79.4h.576l-.216-.576c-.072-.216-.072-.36-.144-.432 0 .144-.072.288-.072.432zm-.5.864l.72-2.16h.288l.72 2.16h-.36l-.216-.648h-.72l-.216.648z" class="cls-1" data-name="Path 113" transform="translate(-6.722 -21.902)"/>
        <path id="Path_114" d="M29.2 80.288V78.2h.288v1.872h.864v.216z" class="cls-2" data-name="Path 114" transform="translate(-8.15 -21.93)"/>
        <path id="Path_115" d="M33.7 80.288V78.2h.288v1.872h.864v.216z" class="cls-2" data-name="Path 115" transform="translate(-9.41 -21.93)"/>
        <path id="Path_116" d="M38.3 80.288V78.2h1.3v.216h-1.08v.648h1.008v.288h-1.012v.72h1.152v.216z" class="cls-2" data-name="Path 116" transform="translate(-10.699 -21.93)"/>
        <path id="Path_117" d="M43.416 79.108h.5c.144 0 .216 0 .288-.072a.155.155 0 0 0 .144-.144c0-.072.072-.144.072-.216s0-.216-.072-.216c-.072-.072-.144-.072-.288-.072h-.576v.72zM43.2 80.26V78.1h.792a.539.539 0 0 1 .36.072c.072.072.144.072.216.216a.433.433 0 0 1 .072.288.55.55 0 0 1-.144.36 1.574 1.574 0 0 1-.36.216.223.223 0 0 0 .144.072.994.994 0 0 1 .216.288l.288.576H44.5l-.216-.432c-.072-.144-.144-.216-.144-.288-.072-.072-.072-.144-.144-.144a.251.251 0 0 0-.144-.072h-.432v.936h-.22z" class="cls-1" data-name="Path 117" transform="translate(-12.071 -21.902)"/>
        <path id="Path_118" d="M48.72 80.26v-.936L48 78.1h.288l.36.648c.072.144.144.216.216.36.072-.144.144-.216.216-.36l.36-.648h.288l-.72 1.224v.936z" class="cls-2" data-name="Path 118" transform="translate(-13.416 -21.902)"/>
        <path id="Path_119" d="M73.767 30.38l1.368-.072c.5-.072 1.44.936 1.584 1.152l.072.792c.072.576-.432 1.656-1.224 1.656a3.118 3.118 0 0 1-.36-.072c-.144 0-.072 0-.072.072l-.72.072c-.216-.072-.432-.36-.576-.36s-.072.072-.216.144c-.144 0 0-.072-.144-.072s-.072.072-.216.144c-.36 0 0-.36-.648-.216 0-.072.072-.072.072-.144-.072-.072-.072-.144-.216-.144 0-.072.072-.072.072-.144a1.629 1.629 0 0 1-.288-.648c0-.144.072-.072.072-.216s-.144-.072-.144-.144c.288-.144.144-.648.288-.792a3.689 3.689 0 0 1 1.3-1.008m10.939 1.152c.072.072.144.144.216.144.072-.144.144-.072.216-.144zm-11.447-1.44c-.144 0-.072.072-.144.144h-.648c-.144 0 .072.072-.072.072l-.648.072c-.144 0-.072-.072-.144-.072a.792.792 0 0 1-.432.216l-.72.072c-.648.288-2.376 1.08-2.52 1.08s-.072-.072-.144-.072c-.144 0-1.872 1.008-2.016 1.512a1.054 1.054 0 0 1 .792.432 4.861 4.861 0 0 0 1.008.144v.144c.072 0 .072-.072.216-.072a26.1 26.1 0 0 1 3.24.792l.936-.072c.144 0 0 .072.144.072s-.072-.072.072-.072a4.588 4.588 0 0 1 .5.144l.864-.072c.144 0 0 .072.144.072s-.072-.072.072-.072 0 .072.144.072l1.08-.072c.144 0-.072-.072.072-.072l1.872-.144c2.592-.864 5.111-1.8 7.7-2.736v-.144c-1.8-.36-3.672-.648-5.4-1.008v-.144h-.216c0 .072 0 .072-.072.072-.144 0-.144-.072-.216-.072 0 .072.072.072-.072.072s-.072-.144-.072-.216c-.576.072-.792-.144-1.224-.072l-1.008.072c-.144 0-.072-.072-.144-.072 0 .072 0 .072-.072.072a11.851 11.851 0 0 0-1.512-.144c-.144 0-.072.072-.144.144l-.792.072c-.36-.072-.288-.144-.432-.144m3.888-.72l-.144.144h.648c2.592.288 5.327 1.008 7.847 1.512.144.072.216.288.36.36v.288a.071.071 0 0 0-.072.072c-.072 0-.072-.072-.144-.072-.576.792-1.944.792-2.952 1.3a.264.264 0 0 0-.216-.072l-5.543 1.8-.576.072c-.144 0 .072.072-.072.072l-1.08.072c-.144 0 0-.072-.144-.072h-.72c-.144 0 0-.072-.144-.072l-1.3.072c-.144 0 0-.072-.144-.072l-.72.072c0-.072 0-.072-.144-.072s-.072 0-.072.072c-.072 0 0-.072-.144-.072l-.648.072a1.13 1.13 0 0 1-.648-.072 13.5 13.5 0 0 0-1.44-.36l-.792.072a5.013 5.013 0 0 0-1.8-.36c-.216-.288-.72-.288-.936-.36h-.144s.144.072.144.144a.609.609 0 0 1-.432-.144.546.546 0 0 0 .288-.144c-.5-.072-1.368 0-1.8-.36h.144c.072-.072.072 0 0-.072 0-.144-.144-.216-.216-.288.216 0 .36-.144.576-.144.288-.144 0-.576.432-.792a40.108 40.108 0 0 1 6.263-2.232l1.008-.072c.144 0 .072-.072.144-.144l1.368-.144h3.96zm-7.559 0l-.144.144a3.652 3.652 0 0 0-.648-.144l-.936.072a.251.251 0 0 0-.144-.072zm-2.52 0l.072.072v.144c-.072 0-.072-.072-.216-.072a1.524 1.524 0 0 0-.5.216c.072-.144.216-.216.288-.288h-.72c0 .072-.144.144-.144.288s.072 0 .144.072c0 .144-.072.072-.072.072 0 .072.072.072.216.072-.072.072-.072.216-.144.288 0-.144-.144-.144-.144-.288s.072 0 .072-.144-.072 0-.144-.072c0-.144.144.072.072-.072v-.144c-.144 0-.288-.144-.36-.072-.144 0 0 .072-.072.072h-.144a.264.264 0 0 0-.068-.216h1.872z" class="cls-2" data-name="Path 119" transform="translate(-17.729 -8.234)"/>
        <path id="Path_120" d="M83.234 22.5a.374.374 0 0 1-.288.144v.144a.251.251 0 0 0 .144-.072l.072.072c-.072.072-.072.072-.072.144.072 0 .072 0 .144.072a.546.546 0 0 0 .144-.288c-.144-.072-.144-.144-.144-.216m-17.206.72c0 .072-.072.144-.072.216h.288c-.072-.144-.144-.288-.216-.216m-1.3.072a.433.433 0 0 0 .288.072c-.072-.072-.144-.072-.288-.072m18.358-1.8a.539.539 0 0 0 .36.072c-.072-.144-.216-.144-.36-.072M74.379 19.9a.76.76 0 0 0-.36.144l-.792.072c0 .144-.288.288-.432.216a.155.155 0 0 0 .144.144l-.216.072c-.072-.072-.144-.144-.216-.144a1.964 1.964 0 0 1-.936.5v.216h-.144c-.072-.072-.072-.072-.144-.072a.478.478 0 0 1-.36.288c-.144 0 0-.072-.144-.072l-.216-.072a7.269 7.269 0 0 1-1.152.936c-.072-.072-.072-.072-.216-.072-.432.072-.576.216-.864.648.072 0 .072 0 .144.072v.072a.265.265 0 0 1-.072-.216h-.432c-.216.144-.648.288-.936.432-.072.072-.072 0-.072-.072h-.288c-.072.144-.216.072-.288.144a.546.546 0 0 1-.144.288 1.7 1.7 0 0 0-1.08.5l.936-.072c.144 0-.072-.072.072-.072l1.656-.144c.144 0 .072.072.216.072s.072-.072.216-.144c.144 0 .072.072.216.072s.144-.072.288-.144a15.875 15.875 0 0 1 2.3.5l.72-.072c.072.072.144.144.144.216l.72-.072c.144 0 .288.144.432.144l.792-.072c.144 0 0 .072.144.072l.5-.072c-.432-.144-.936-.144-1.152-.5a.374.374 0 0 1-.288.144h-.216c-.072-.576-.5-.576-.5-1.008l-.072-.72c-.072-.576 1.368-1.872 2.016-1.944l1.152-.072c.648-.072 2.448.36 2.52 1.3l.072.936a2.015 2.015 0 0 1-.072.432h-.288c.072.216 0 .5-.288.5.072.072.144.072.216.144-.072.072-.216.072-.288.144v.144c.072 0 .072 0 .144.072-.072.072-.072-.072-.144-.072-.288 0-.432.36-.648.576v.144h.221c0-.072-.072-.072.072-.072l.864-.072c.216-.144.648-.216.792-.36.072.072.216.216.288.144a8.811 8.811 0 0 0 1.656-.72c.5-.072.936-.5 1.224-.5.144 0 .144.072.216.072.072-.072.36-.5.5-.5s.144.072.216.072a.435.435 0 0 1 .432-.216 11.219 11.219 0 0 1-1.44-1.152c-1.152-.432-4.032-1.368-4.176-1.368l-.648.072c-.144 0-.072.072-.144.072l-.072-.072c.072-.072.072-.072.072-.144l-.72.072c0 .072 0 .072-.144.072h-.144v-.144h-.288c0 .144-.144.072-.288.144a1.21 1.21 0 0 1-.792.144m-2.664-.144a.459.459 0 0 0 .432 0 .459.459 0 0 0-.432 0m2.52-.288a.55.55 0 0 0 .36.144V19.4zm.72-.144c.216.072.36.144.576.216 0-.144.072-.216.072-.288zm-.576-4.9a.76.76 0 0 0-.36.144l-.792.072c-.144.216-.5.216-.72.216-.144 0 0-.072-.144-.072s-.216.144-.36.144a.539.539 0 0 0 .36.072c0 .072-.144.072-.288.072a.539.539 0 0 1-.36-.072v.216h-.144c-.072-.072-.072-.072-.144-.072a43.925 43.925 0 0 1-4.1 2.088c0 .072.144.072.144.144v.072a.264.264 0 0 1-.072-.216h-.216c-.5.36-1.152 1.008-1.656 1.44.288 0 2.88.432 3.312.36l.936-.072c.144 0 0 .072.144.072l.864-.072c.144 0 .432.144.648.144a5.344 5.344 0 0 0 1.152-.216 8.33 8.33 0 0 1-.792-1.152l-.072-.792A2.588 2.588 0 0 1 73.8 14.72l1.008-.072c.216 0 1.152.216 1.152.432a23.065 23.065 0 0 1-1.368 3.528l1.152-.072c.072 0 .576.072.576.288v.076c-.144 0-.216.144-.36.144l.288.072c0-.072-.072-.072.072-.072s.072.072.216.072.648-.432.936-.432c.144 0 0 .072.144.072l3.1-.216c0-.072 0-.072.072-.072.144 0 .144.072.216.072 0-.072-.072-.072.072-.072l1.008-.072c.864-.288 3.024-1.224 3.168-1.224h.144c0 .072-.072.072-.072.144h.216a.554.554 0 0 1 .144-.216l.072.072c-.072.072-.072.072-.072.144a1.405 1.405 0 0 1 .5.072c.072-.144.144-.072.216-.144 0-.072-.144-.072-.144-.144l.072-.072c.072.072.072.072.144.072v-.144c-.072 0-.072 0-.144-.072-.216.072-.288.144-.432.144 0 .072.144.072.144.144l-.216.072c-.144-.144-.144-.072-.288-.216.072-.072.072-.072.072-.144h-.216c0 .072 0 .072-.072.072a.374.374 0 0 1 .144-.288c-.144-.072-.216-.216-.288-.288v.288c.072 0 .072 0 .072.072l-.072.072a.994.994 0 0 1-.216-.288 2.831 2.831 0 0 1-.432.144c-.288 0-5.615-1.368-7.559-1.656v-.144c-.072 0-.072.072-.216.072h-.144c0-.072.072-.072.072-.144-.576.072-.792-.144-1.224-.072-.144 0-.216.072-.36.144v-.148c0-.072.072-.072.072-.144a3.715 3.715 0 0 0-.792-.144m-9 10.655a.532.532 0 0 0-.432-.36c-.144 0-.288.144-.432.216H64.3c.288-.432.432-.792.792-1.008H64.8v-.216a.264.264 0 0 0 .216-.072h-.288a.55.55 0 0 0-.36.144V23.5q.324.216.432 0c-.072 0-.288 0-.36-.072.864-.864 2.664-.864 3.672-1.728.432-.072.936-.576 1.224-.576.144 0 .072.072.144.072.144 0 .864-.576 1.008-.576s0 .072.144.072.5-.36.792-.432a6.6 6.6 0 0 0 1.656-.648c.072 0 0 .072.144.072h.36v-.216l-.936.072s-.216.144-.216.288l-1.008.072c-.144 0-.432.216-.576.216s-.072-.072-.216-.072-.072 0-.072.072h-.216a.251.251 0 0 1 .072-.144 8.807 8.807 0 0 0-1.224-.216c-.144 0 .072.072-.072.072h-.14v-.144h-.144c-.144 0-.072.072-.288.072a.265.265 0 0 0 .216-.072.374.374 0 0 0-.288-.144l-.936.072c-.072.072 0 .072-.144.144a4.4 4.4 0 0 1-.936-.216.374.374 0 0 1-.288.144c-.144 0-.144-.072-.288-.072l-.936.072c.144-.216.36-.144.5-.288-.144 0-.36-.072-.5-.072s-.144.072-.216.144c-.072-.144-.144-.144-.288-.216v-.288a21.013 21.013 0 0 1 7.7-4.536l1.008-.072c.144 0-.072-.072.072-.072l.648-.072c.072-.072 0-.072.144-.144.144 0 .072.072.216.072s.072-.072.216-.144c.144 0 .072.072.144.072.144 0-.072-.072.072-.072a2.344 2.344 0 0 1 .864.432c.144 0 .288-.144.432-.144 1.656-.144 8.279 1.728 8.567 1.8v.144c.864.072 1.584.576 2.448.72v.152l-.792.792c-.072 0 0-.072-.144-.072l-1.8.144a4.147 4.147 0 0 0-1.512.5l-.72.072c-.144 0-.288.216-.432.216s-.072-.072-.144-.072c-.144 0-.432.216-.576.216s-.072-.072-.144-.072c-.144 0-.144.144-.288.144s-.288-.072-.432-.072-.216.144-.36.144-.144-.072-.288-.072-.144.072-.288.144a3.118 3.118 0 0 1-.36-.072l-1.728.144a.374.374 0 0 0 .288.144l.72-.072c.216.216.72.072 1.08.216 1.08.432 2.088.648 3.168 1.008.288.144 1.728 1.152 1.944 1.08.144 0 .144-.072.288-.144.144 0 .216.072.36.072v.144c-.072 0-.072-.072-.144-.072-.072.072-.144.072-.144.216a.251.251 0 0 1-.144-.072v.288c-.072 0-.072-.072-.144-.072-.288.072-.576-.072-.576.36a.251.251 0 0 1-.144-.072c-.072.072 0 0 0 .144s0 .144.216.144c0 .072-.072.072-.072.144.072.072.144.072.216.144a.265.265 0 0 0-.216.072h.288c.144 0 .288-.072.432-.072a2.467 2.467 0 0 0-.936.5c-.144 0-.072-.072-.072-.072-.144.288-.792.432-1.152.648l-.72.072a4.044 4.044 0 0 0-1.08.288c0 .072.144.072.144.144-.072 0-.072-.072-.144-.072h-.144c-.072.072 0 .144 0 .216a1.1 1.1 0 0 0-.72.288l-1.008.072c-.144 0-.072 0-.072.072a.433.433 0 0 0-.288-.072.333.333 0 0 0-.36.216h-3.812s.072-.072-.072-.072l-.648.072c-.144 0 0-.072-.144-.072l-.72.072v-.144c-.144 0-.36-.072-.5-.072s-.144.144-.288.144-.72-.144-.864-.144-.144 0-.144.216h-.144c-.144 0-.072-.072-.072-.072-.072.072-.072.144-.144.144H68.4a1.492 1.492 0 0 0-.432-.144c-.144 0-.144.072-.288.144z" class="cls-2" data-name="Path 120" transform="translate(-17.981 -3.949)"/>
        <path id="Path_122" d="M36.6 73.063a.891.891 0 0 0-.144-.216v-.288h.072c-.072 0-.072 0-.072-.072V71.551h.072c-.072-.072-.072 0-.144-.072v-.432l-.072-.072a.251.251 0 0 0 .072-.144h-.072v-.144h.144s-.144-.072-.072-.144v-.575a.223.223 0 0 1 .072-.144l-.072.072v-.432h.072V69.1h-.072c.072 0 .072 0 .072-.072v-.36c0-.072.072-.144.072-.216v-.212h.072c-.072-.072-.072 0-.072-.072v-.216c0-.072.072-.072.072-.144v-.576c0-.072.072-.144 0-.144v-.144a.071.071 0 0 0-.072-.072.071.071 0 0 0-.072-.072h-.072v.216l-.072.288v.504a.251.251 0 0 0-.072.144v.504l-.072.072v1.224l.072.576v.36h.072a.251.251 0 0 0-.072.144v.504h-.072v.432a.071.071 0 0 1-.072.072.155.155 0 0 1 .144.144v.216l-.072.072V72.488H36.1v.432c.072 0 .072.072.072.144.072 0 .072.072.144.072.072.072.072.072.216.072 0 .072.072.072.072.144l.288.072a1.571 1.571 0 0 1-.292-.361z" class="cls-1" data-name="Path 122" transform="translate(-10.083 -18.737)"/>
        <path id="Path_123" d="M33.584 72.755a6.03 6.03 0 0 0-.144-.72c0-.144-.072-.216-.072-.288l-.144-.072.076-.075-.072-.072a.071.071 0 0 0 .072-.072l-.144-.144v-.072l-.072-.216h-.144v-.072l-.072-.072v-.14l-.144-.216v-.072l-.144-.144-.072-.072v-.072l-.072-.144-.072-.144h-.072V69.8c-.072-.072-.144-.216-.288-.36-.072-.072-.144-.072-.144-.144-.216-.144-.5-.432-.72-.576h-.072a.264.264 0 0 1-.216-.072v-.288h-.072c.072 0 .072 0 .072-.072v-.36c0-.072.072-.216.072-.288v-.216h.072c-.072-.072-.072 0-.072-.072v-1.44a.725.725 0 0 0-.072-.216h-.072v.216l-.072.36v1.296s-.072.144 0 .144v.648h-.216l-.144.072c0 .144-.144.144-.144.216v.072a.264.264 0 0 0 .216.072s.144.072.144 0v.576l.072.72h.064l-.072.144v.576h-.068v.072l.072.288v.072a.071.071 0 0 1-.072.072c.072 0 .072.072.072.144v.216a.071.071 0 0 1-.072.072v.144a.071.071 0 0 1-.072.072v.44c.072.072.072.072.072.144.072.072.144.144.216.144h.072a.251.251 0 0 0 .072.144l.216.072a1.036 1.036 0 0 0-.144-.216 3.389 3.389 0 0 1-.144-.36v-.216a.071.071 0 0 1 .072-.072c-.072 0-.072 0-.072-.072V70.96h.072c-.072-.072-.072 0-.072-.072v-.508a.251.251 0 0 1-.072-.144.251.251 0 0 0 .072-.144h-.072v-.144l.072.072a.251.251 0 0 1-.072-.144V68.94a.071.071 0 0 1 .072.072h.072a.071.071 0 0 1 .072.072c0-.072 0 0-.072-.072.072 0 .072.072.144.072.072.072.144 0 .216.072v.072h.072c.072 0 .072.072.144.072l.144.144c.144.144.432.36.5.432l.072.144v.072l.072.072.072.072a.071.071 0 0 0 .072.072v.144a.155.155 0 0 1 .144.144l.144.288v.144l.072.216.072.144v.144l.072.144.072.072a1.216 1.216 0 0 0 .144.36l.144.576v.144c.072 0 .072 0 .072.072s0 .072-.072.144h.144a.287.287 0 0 0 .148-.289z" class="cls-1" data-name="Path 123" transform="translate(-8.43 -18.429)"/>
        <path id="Path_124" d="M26.639 73.2c0 .072-.072.144-.072.216h.144a.433.433 0 0 1 .072-.288l-.144.072zm.792-3.024l-.072-.144-.072-.072c-.216-.144-.432-.072-.648-.144h-.432l-.072-.144v-.144a.071.071 0 0 1-.072-.072v-.072c0-.072 0-.144-.072-.144-.072-.144-.216-.36-.288-.5-.072-.072-.072-.144-.144-.216a3.956 3.956 0 0 0-.5-.648c.072 0 .072 0 .144-.072v-.072c.072-.144-.144-.144-.144-.288l-.144-.072c-.072 0-.144.072-.216.072a.374.374 0 0 0-.288-.144h-.144c0 .144-.216.144-.144.288a.071.071 0 0 0 .072.072.223.223 0 0 1 .144.072.071.071 0 0 0-.072.072 1.941 1.941 0 0 0-.5.576c-.072.072-.144.216-.216.288a2.24 2.24 0 0 0-.288.432c0 .072-.072.144-.072.216v.072a.07.07 0 0 1-.072.072l-.072.144-.072.144v.072l-.072.216-.072.216v.504l-.072.072v.216h-.079v.072h-.144c-.072 0-.144.072-.216.144l-.432.432-.144.144c-.072.072-.072.216-.144.288h.072v.076h.072a.264.264 0 0 1 .072-.216c.072-.072.072 0 .144 0l.072-.072v-.072h.068l.144-.144a2.69 2.69 0 0 1 .5-.432v.216l-.072.144a.071.071 0 0 1 .072.072l-.072.072a.071.071 0 0 1 .072.072l-.144.144v1.152c0 .072.072.216.072.288h.072v-.072c0-.072-.072-.072-.072-.216v-.072l.072-.072v-2.016l.072-.072.144-.072a.251.251 0 0 1 .144-.072l.144-.072.216-.072.072-.072a.071.071 0 0 0 .072-.072h.072l.288-.144c.072 0 .144-.072.216-.072v-.076h.072v-.072h.072c.072-.072.072-.072.144-.072v.072l.072-.072h.072l.144-.072a4.955 4.955 0 0 1 .936-.144c0 .072.144 0 .144.072h.072a.071.071 0 0 0 .072.072v-.144c.072 0 .072 0 .144.072s.072.144.144.216l.072.288v.144a.071.071 0 0 0 .072.072v.072l.072.288.072.144V72.988c.072 0 .072 0 .072.072h.072a3.165 3.165 0 0 1 .072-.648v-.5l-.144-.144a.071.071 0 0 0 .072-.072l-.072-.072a.071.071 0 0 0 .072-.072l-.072-.144v-.432l-.072-.216v-.288l-.072-.216v-.076l-.072-.216h.144v.072c.144 0 .216 0 .288.072.072-.072.144 0 .216 0a.251.251 0 0 1 .144.072c.072.072.144.144.216.072.076.148-.065 0 .007-.072zm-1.872-.288a1.225 1.225 0 0 0-.5.072c-.072 0-.072 0-.144.072v.072h-.075l-.144.072-.144.072-.288.144h-.288l-.216.144h-.072l-.072.072h-.072l-.144.144-.216.144-.072.072h-.144v-.144a.07.07 0 0 1 .072-.072v-.144l.072-.288c0-.072.072-.144.072-.216l.072-.072v-.072c0-.072 0-.072.072-.072v-.216l.072-.144a.546.546 0 0 1 .144-.288 4.907 4.907 0 0 1 .36-.5c.072 0 .072-.072.144-.072h.072a.071.071 0 0 0 .072-.072h-.072v-.072c.072-.072.144 0 .216-.072 0-.072 0-.144.072-.144v.072a.071.071 0 0 1 .072-.072h.072c.072-.144.144-.144.288-.216a.155.155 0 0 1 .144.144h.072l.072.072v-.072c.072 0 .072.072.144.144 0 .072.144 0 .216.144h-.072a.071.071 0 0 1 .072.072h.072c.072 0 .072.144.144.144 0 0 .216.288.36.5.072.144.144.216.144.288v.288a1.6 1.6 0 0 0-.648.076z" class="cls-1" data-name="Path 124" transform="translate(-6.022 -18.877)"/>
        <path id="Path_125" d="M11.484 71.9c0 .072 0 .072-.072.072h-.072l-.072.072H11.2a.251.251 0 0 1-.144.072c-.144.072-.288.216-.36.216l-.072.072h-.072l-.072.072h-.08l-.144.072h-.144l-.144.072H9.54c-.072 0-.432-.072-.5-.072v-.144a.071.071 0 0 1 .072-.072c-.072 0-.072 0-.072-.072V71.324h.072c-.072-.072-.072 0-.072-.072v-.5a.251.251 0 0 1-.072-.144.223.223 0 0 1 .072-.144h-.076v-.144l.072.072a.251.251 0 0 1-.072-.144V69.1l.072-.072v-.432h-.072c.072 0 .072 0 .072-.072v-.86h.072c-.072-.072-.072 0-.072-.072V66.212A.725.725 0 0 0 8.964 66h-.072v.216a.557.557 0 0 1-.072.216v.5l-.072.5v2.016l-.072.864v.288h.072l-.072.144v.504H8.6v.432a.071.071 0 0 1-.072.072.251.251 0 0 1 .072.148v.504a.251.251 0 0 1-.144-.072c-.072 0-.072 0-.072-.072a.071.071 0 0 1-.072-.072c-.072-.072-.072-.144-.144-.072-.072 0-.072.072-.072.144v.144c.144.072.36.072.432.144a.264.264 0 0 0 .216.072v.08a.251.251 0 0 1 .072.144c.144.072.144.216.288.144a.251.251 0 0 0 .072.144l.224.068-.216-.432a.071.071 0 0 0-.072-.072h.068c.072 0 .288.072.432 0H9.9l.144-.072.144-.072h.144l.144-.072.144-.072h.144v-.072h.072v-.072h.072a1.506 1.506 0 0 0 .432-.288.071.071 0 0 0 .072-.072c.072.144.072.072.072 0z" class="cls-1" data-name="Path 125" transform="translate(-2.241 -18.513)"/>
        <path id="Path_126" d="M5.859 69.34l-.072-.14c-.216-.288-.5-.144-.72-.288H5c-.144 0-.288-.072-.432 0l-.072-.144v-.148a.071.071 0 0 1-.072-.072v-.072c0-.072-.072-.144-.072-.216a4.275 4.275 0 0 0-.288-.576c0-.072-.072-.072-.072-.144-.144-.216-.288-.5-.432-.72.072 0 0-.072-.072-.144a.155.155 0 0 0 .144-.144c.072-.216-.144-.144-.144-.36L3.34 66.1c-.072 0-.144.072-.216.144a.374.374 0 0 0-.288-.144l-.144.072c0 .216-.216.144-.144.36 0 .144.072.144.216.144a.071.071 0 0 0-.072.072l-.144.144a6.331 6.331 0 0 0-.432.72c-.072.072-.072.144-.144.216a1.545 1.545 0 0 0-.288.5c0 .072-.072.144-.072.216v.072a.071.071 0 0 1-.072.072l-.072.216h.072v.072l-.072.36-.144.288v.076l-.072.36v.14a.071.071 0 0 1-.072.072v.36h-.144a3.653 3.653 0 0 0-.432.5 3.366 3.366 0 0 1-.36.432c-.072.072-.072.216-.144.36h.072V72h.072a.264.264 0 0 1 .072-.216c.072-.072.072 0 .144 0l.072-.144v-.072H.6l.432-.432c.072-.144.216-.216.288-.288v.36l-.072.144a.071.071 0 0 1 .072.072l-.072.144a.071.071 0 0 1 .072.072l-.072.072-.072.072V73.224c0 .144.072.216.072.36h.072v-.072c0-.072-.072-.144-.072-.216s0-.072.072-.072v-2.445l.072-.072.144-.072.072-.072h.072l.144-.144.216-.144.072-.072h.072v-.072h.076l.288-.144c.072 0 .144-.072.216-.072v-.072h.072v-.072h.072c.072-.072.072-.072.144-.072v.072l.072-.072H3.2l.144-.072a4.956 4.956 0 0 1 .936-.144c0 .072.144 0 .144.072h.072a.07.07 0 0 0 .072.072v-.144c.072-.072.072 0 .144.072s.072.216.144.288v.072l.072.288v.144A.071.071 0 0 0 5 70.42v.36l.067.22v2.3c.072.072.072 0 .072.144 0 .072-.072.144-.072.216l.072.072h.072a3.119 3.119 0 0 1 .072-.36V73.3a2.982 2.982 0 0 1 .072-.72v-.648l-.072-.072-.216-.5a.071.071 0 0 0 .072-.072l-.072-.072a.071.071 0 0 0 .072-.072L5.067 71 5 70.924v-.144l-.072-.288v-.504l-.144-.36v-.072l-.072-.216h.144v.072c.144-.072.216 0 .288.072.072-.072.144 0 .216 0a.251.251 0 0 1 .144.072c.072.072.144.144.216.072.072.072.072 0 .144 0-.005-.072-.077-.216-.005-.288zm-1.872-.36a2.1 2.1 0 0 0-.648.144v.076h-.071l-.144.072-.144.072-.288.144-.288.144-.216.144h-.072a.071.071 0 0 1-.072.072h-.072l-.072.072-.144.144-.216.136h-.072v.072h-.144v-.144a.071.071 0 0 1 .076-.068v-.144l.072-.288v-.072a.725.725 0 0 1 .072-.216v-.072a.071.071 0 0 1 .072-.072v-.144c0-.144 0-.144.072-.144v-.216l.072-.144a.658.658 0 0 1 .216-.36 2.718 2.718 0 0 1 .36-.576c.072 0 .072-.072.144-.144a.071.071 0 0 0 .072-.072h-.076v-.072c0-.144.144-.072.216-.144 0-.072 0-.144.072-.144v.072c0-.072.072-.072.072-.144h.072c.072-.144.144-.216.288-.216a.155.155 0 0 1 .144.144h.072a.251.251 0 0 1 .072.144v-.144c.072 0 .072.072.144.144 0 .144.144 0 .216.144v.144l-.072.144a.071.071 0 0 0 .072.072.071.071 0 0 0 .072.072 3.206 3.206 0 0 0 .36.576 1.216 1.216 0 0 1 .144.36v.288c-.072.072-.144.072-.288.072a.223.223 0 0 1-.144.072z" class="cls-1" data-name="Path 126" transform="translate(0 -18.541)"/>
        <path id="Path_127" d="M49.287 70.692v-.144a.251.251 0 0 0-.072-.144L49 70.188v-.5l-.072-.144v-.072l-.072-.216-.288-.288-.068-.148v-.144a.071.071 0 0 1-.072-.072v-.072c0-.072-.072-.144-.072-.216l-.216-.432c-.072-.072-.144-.216-.216-.288a4 4 0 0 0-.432-.576.251.251 0 0 1-.144-.072l-.216-.216c.072-.216-.144-.144-.144-.36l-.148-.072c-.288 0-.36.432-.648.5l-.072.072a6.329 6.329 0 0 0-.432.72c-.072.072-.072.144-.144.288a2.4 2.4 0 0 0-.216.432.433.433 0 0 0-.072.288v.072a.071.071 0 0 1-.072.072l-.072.216v.216l-.072.36-.072.216v.072h-.144v.076l-.072-.216a5.486 5.486 0 0 0-.936.5c-.072.072-.072.144-.144.216l-.072.072.072.072v.072h.072c0-.072.072-.072.072-.144l.072-.072.072-.072v-.068h.072l.864-.432v.644l-.072.288v.144l-.072.144v.072a.071.071 0 0 1 .072.072l-.072.144a.071.071 0 0 1 .072.072l-.216.072v1.44c0 .072.072.216.072.288h.072v-.072c0-.072-.072-.144-.072-.216 0-.072 0-.072.072-.072v-2.729a.071.071 0 0 1 .072-.072v-.288h.216l.144-.072.144-.072h.5l.288-.072a.264.264 0 0 1 .216.072v-.075h.288v.072h.288a.783.783 0 0 1 .36.072l.432.144c0 .072.072.072.144.144v.072a.071.071 0 0 0 .072.072v-.072h.072c.072 0 .072.144.144.144v.072c.072 0 .144 0 .144.072h-.072c.072 0 .072 0 .144.072v.072h.072c.072 0 .144.072.144.216.072 0 .144 0 .144.072l.072.072v1.512c.072.072.072 0 .072.072s-.072.144-.072.216h.144c0-.072.072-.216.072-.288v-.072a3.306 3.306 0 0 1 .072-.72v-.432L49 71.052h.072c.143-.072.071-.288.215-.36zm-.648-.72a1.447 1.447 0 0 0-.576-.288.649.649 0 0 0-.36-.072 1.72 1.72 0 0 0-.648-.144h-.072a.071.071 0 0 1-.072-.072h-.864l-.216.072h-.288l-.216.072-.072.144h-.072l-.072-.072a.725.725 0 0 1 .072-.216v-.288c0-.144 0-.144.072-.144V68.6a1.113 1.113 0 0 1 .216-.432 5.589 5.589 0 0 0 .288-.5c.072 0 .072-.072.144-.144l.072.072v-.072a.071.071 0 0 0 .072-.072h-.072v-.072c0-.144.144-.072.216-.144 0-.072 0-.144.072-.144v.072a.071.071 0 0 1 .072-.072h.072q.108-.216.216-.216c0-.072 0-.072.072-.144a.251.251 0 0 0 .144.072c.072.072.144.072.144.144.072 0 .216.072.216.144h.072l.072.072v-.072c.072 0 .072.072.144.144 0 .072.144.072.144.072v.144h-.071a.071.071 0 0 1 .072.072h.068c.072 0 .072.144.144.144l.288.432c.072.144.216.288.216.36v.216l.072.072v.072a.071.071 0 0 0 .072.072v.144c.072.072.072.144.144.216l.072.216v.216a.071.071 0 0 0 .072.072v.144c-.069.144-.069.072-.141.072zm-3.739-.288z" class="cls-1" data-name="Path 127" transform="translate(-12.183 -18.597)"/>
        <path id="Path_128" d="M43.212 71.575c0 .072 0 .072-.072.072h-.072l-.068.072h-.072s-.36.216-.5.288h-.072l-.072.072H42.2l-.072.072-.072.072H41.7l-.144.072h-.5c-.072 0-.432-.072-.5-.072v-.144a.071.071 0 0 1 .072-.072c-.072 0-.072 0-.072-.072v-1.008h.072c-.072-.072-.072 0-.072-.072v-.504a.251.251 0 0 1-.072-.144.251.251 0 0 0 .072-.144h-.072v-.143l.072.072a.251.251 0 0 1-.072-.144v-1l.072-.072v-.5h-.072c.072 0 .072 0 .072-.072v-.36c0-.072.072-.216.072-.288v-.216h.072c-.072-.072-.072 0-.072-.072v-.228c0-.072.072-.144 0-.144v-1.08a.725.725 0 0 0-.072-.216h-.072v.216l-.072.36V69.2l.072.72v.072h.072l-.072.144v.572H40.4v.072l.072.288v.072a.071.071 0 0 1-.072.072c.072 0 .072.072.072.144v.216a.071.071 0 0 1-.072.072v.216h-.072l-.072-.072c-.072 0-.072 0-.072-.072l-.072-.072c-.072-.072-.072-.144-.144-.072-.072 0 0 .144-.072.216v.072c.072.144.288.144.36.288a.264.264 0 0 0 .216.072v.08c.072.072.072.072.072.144l.144.144h.144a.251.251 0 0 0 .072.144l.216.072-.144-.288a.546.546 0 0 1-.144-.288h.072c.072 0 .288.072.432 0h.288l.144-.072.144-.072h.144l.144-.072.144-.072h.144v-.072h.072v-.072h.072c.072 0 .144-.072.216-.144a2.815 2.815 0 0 1 .36-.288c-.072.36 0 .288 0 .216z" class="cls-1" data-name="Path 128" transform="translate(-11.147 -18.401)"/>
        <path id="Path_129" d="M35.772 66.12c.144 0 .288.072.288.144.072 0 0-.072.072-.072s.072.072.144.072c.288 0 .36-.216.36-.5 0-.144-.288-.36-.5-.36-.072 0-.072.072-.144.072s-.072-.072-.144-.072c0 .072 0 .072-.072.072L35.7 65.4v.432c.144.068.072.216.072.288z" class="cls-1" data-name="Path 129" transform="translate(-9.971 -18.345)"/>
        <path id="Path_130" d="M21.027 67.976c-.216-.216-.5-.072-.792-.216a2.744 2.744 0 0 0-1.08.072 2.1 2.1 0 0 0-.648.144v.072h-.216l-.144.072-.216.144-.144.072h-.072l-.216.144h-.072l-.072.072c0-.072.072-.144 0-.216-.144-.072-.144.072-.288.072l-.067.144c0 .072-.072.216-.072.288h-.072v-.072l.072-.072v-.5h-.072c.072 0 .072 0 .072-.072v-.364c0-.072.072-.216.072-.288V67.256h.072c-.072-.072-.072 0-.072-.072V65.816a.725.725 0 0 0-.072-.216h-.072v.216l-.072.36v2.808h-.144a2.368 2.368 0 0 0-.432.432l-.36.36c-.072.072-.072.216-.144.288v.072h.072c0-.072 0-.144.072-.144.072-.072.072 0 .144 0l.072-.072v-.072h.072l.36-.36.288-.288v.288l.072.576h.072l-.072.072-.072.072v.576h-.072v.072l.072.216v.072a.071.071 0 0 1-.072.072l.072.072v.288a.071.071 0 0 1-.072.072v.144a.071.071 0 0 1-.072.072v.504c.072.072.072.072.072.144.144.072.144.216.288.216 0 .072 0 .072.072.144l.216.072a.223.223 0 0 0-.072-.144L17 72.367v-.216a.071.071 0 0 1 .072-.072c-.072 0-.072 0-.072-.072V71h.072C17 70.927 17 71 17 70.927v-.5a.251.251 0 0 1-.072-.144.071.071 0 0 1 .072-.075h-.072v-.144l.072.072a.251.251 0 0 1-.072-.144v-.86H17l.072-.072c0 .144.072.288.072.432v.072a3.009 3.009 0 0 0 .288.72c0 .072.072.144.072.216a1.524 1.524 0 0 0 .216.5c0 .072.072.072.072.144h.072v.072l.072.144.144.144.144.144.144.144.072.072.216.144v.072c0 .072 0 0 .072 0v.072h.072l.072.072.072.072.144.144v.072h.072l.072.144.072-.072.072.144.072-.072.072.144a1.035 1.035 0 0 1 .216.144 6.78 6.78 0 0 0 .72.288h.288v-.072l-.072-.072c-.072 0-.144.072-.144 0-.072-.072 0 0 0-.144a.223.223 0 0 1-.144-.072h-.072a4.734 4.734 0 0 1-.864-.432l-.144-.072-.072-.072-.144-.072-.144-.072-.144-.144h-.072a.071.071 0 0 0-.072-.072l-.216-.216c-.072 0-.072-.072-.144-.144V71.5h-.076v-.072l-.072-.072-.072-.072-.216-.36-.072-.072a6.688 6.688 0 0 1-.36-.72v-.36h-.072c-.072-.072 0-.216 0-.288l-.072-.072v-.072l.072.072a.071.071 0 0 0-.072-.072l.072-.072a.321.321 0 0 1 0-.36c-.072-.072-.072-.072-.072-.216v-.072l.072-.072a.071.071 0 0 0 .072-.072h.072l.288-.144c.072 0 .144-.072.216-.072v-.072h.072v-.068h.072c.072-.072.072-.072.144-.072v.072l.072-.072h.072l.144-.072a4.955 4.955 0 0 1 .936-.144c0 .072.144 0 .144.072h.072a.071.071 0 0 0 .072.072v-.144c.072-.072.144.072.216.072v.072c.072 0 .144-.072.144 0v.072c.144 0 .216 0 .288.072.072-.072.144 0 .216 0a.251.251 0 0 1 .144.072c.072.072.144.144.216.072.144-.072 0-.144.072-.288h-.072z" class="cls-1" data-name="Path 130" transform="translate(-4.369 -18.401)"/>
    </g>
</svg>
