<svg xmlns="http://www.w3.org/2000/svg" width="52" height="52" viewBox="0 0 52 52">
    <defs>
        <style>
            .cls-1{fill:#b68f2a}.cls-2{fill:#fff}
        </style>
    </defs>
    <g id="Group_3804" data-name="Group 3804" transform="translate(-547 -542)">
        <circle id="Ellipse_14" cx="26" cy="26" r="26" class="cls-1" data-name="Ellipse 14" transform="translate(547 542)"/>
        <g id="Group_3783" data-name="Group 3783" transform="translate(317 211)">
            <path id="Path_9890" d="M248.766 354.456q.349.246 2.1 1.463t2.69 1.874c.068.048.214.152.436.313s.407.291.554.39.325.21.534.334a3.094 3.094 0 0 0 .59.277 1.636 1.636 0 0 0 .514.092h.02a1.635 1.635 0 0 0 .514-.092 3.141 3.141 0 0 0 .59-.277c.209-.124.386-.234.534-.334s.332-.229.554-.39l.437-.313 4.8-3.337a4.872 4.872 0 0 0 1.252-1.263 2.713 2.713 0 0 0 .5-1.55 1.657 1.657 0 0 0-1.63-1.643h-15.112a1.466 1.466 0 0 0-1.217.534 2.073 2.073 0 0 0-.426 1.335 2.4 2.4 0 0 0 .565 1.4 5.09 5.09 0 0 0 1.2 1.186zm0 0" class="cls-2" data-name="Path 9890"/>
            <path id="Path_9891" d="M264.371 380.483q-3.367 2.279-5.113 3.542-.585.432-.95.672a5.776 5.776 0 0 1-.97.493 2.954 2.954 0 0 1-1.13.252h-.02a2.951 2.951 0 0 1-1.13-.252 5.81 5.81 0 0 1-.97-.493q-.364-.241-.949-.672-1.386-1.016-5.1-3.542a5.446 5.446 0 0 1-1.039-.893v8.152a1.647 1.647 0 0 0 1.643 1.643h15.112a1.647 1.647 0 0 0 1.643-1.643v-8.152a5.687 5.687 0 0 1-1.027.893zm0 0" class="cls-2" data-name="Path 9891" transform="translate(0 -24.929)"/>
        </g>
    </g>
</svg>
