<svg xmlns="http://www.w3.org/2000/svg" id="Group_1809" width="15" height="19.691" data-name="Group 1809" viewBox="0 0 15 19.691">
    <defs>
        <style>
            .cls-1{fill:#fff}.cls-2{clip-path:url(#clip-path)}
        </style>
        <clipPath id="clip-path">
            <path id="Rectangle_17" d="M0 0h15v19.692H0z" class="cls-1" data-name="Rectangle 17"/>
        </clipPath>
    </defs>
    <path id="Path_25" d="M91.731 184.462a1.729 1.729 0 0 0 1.631-1.154h1.354a1.731 1.731 0 1 0 0-1.154h-1.354a1.73 1.73 0 1 0-1.631 2.308zm4.615-2.308a.577.577 0 1 1-.577.577.576.576 0 0 1 .577-.577zm-4.615 0a.577.577 0 1 1-.577.577.576.576 0 0 1 .577-.577zm0 0" class="cls-1" data-name="Path 25" transform="translate(-86.538 -174.038)"/>
    <g id="Group_30" data-name="Group 30">
        <g id="Group_28" class="cls-2" data-name="Group 28">
            <path id="Path_26" d="M126.2 287.154h1.831l.985.985.815-.815-1.323-1.324h-2.785l-1.323 1.323.815.815zm0 0" class="cls-1" data-name="Path 26" transform="translate(-119.615 -275)"/>
        </g>
        <g id="Group_29" class="cls-2" data-name="Group 29">
            <path id="Path_27" d="M0 19.115v.577h15v-.577a4.043 4.043 0 0 0-4.038-4.038h-.212A5.233 5.233 0 0 0 12.692 11v-.577h.577a1.731 1.731 0 1 0 0-3.462h-.577v-1.28a1.753 1.753 0 0 0 1.046-.9 3.029 3.029 0 0 0-3.2-4.2L8.077.965V0H6.923v1.142l-3.9.6a2.186 2.186 0 0 0-1.992 2.3 1.786 1.786 0 0 0 1.277 1.643v1.277h-.577a1.731 1.731 0 0 0 0 3.462h.577V11a5.233 5.233 0 0 0 1.942 4.077h-.212A4.043 4.043 0 0 0 0 19.115zm13.788-.577H1.212a2.891 2.891 0 0 1 2.827-2.308h2.884v1.154h1.154v-1.153h2.885a2.891 2.891 0 0 1 2.827 2.308zm-.519-10.423a.577.577 0 1 1 0 1.154h-.577V8.115zM3.188 2.885l7.519-1.154a1.88 1.88 0 0 1 2 2.531.62.62 0 0 1-.6.358H2.88a.662.662 0 0 1-.7-.658 1.033 1.033 0 0 1 1.008-1.077zM1.731 9.269a.577.577 0 0 1 0-1.154h.577v1.154zM3.462 11V5.765h8.077V11a4.072 4.072 0 0 1-3.462 4.035v-1.112H6.923v1.112A4.072 4.072 0 0 1 3.462 11zm0 0" class="cls-1" data-name="Path 27"/>
        </g>
    </g>
</svg>
