<svg xmlns="http://www.w3.org/2000/svg" viewBox="0 0 73.464 56.618">
    <defs>
        <style>
            .cls-1{fill-rule:evenodd}.cls-2{fill:#b68f2a}
        </style>
    </defs>
    <g id="Group_208" data-name="Group 208" transform="translate(-.1 .1)">
        <path id="Path_102" d="M31.719 57.42c-.068-.068-.068-.136-.068-.271a1.675 1.675 0 0 1-.271-.61.716.716 0 0 0-.136-.339c-.068.068.068.271 0 .339-.136 0-.136-.068-.2-.068-.61-.068-.814.407-1.356.339-.068.068-.068.136-.2.136a.352.352 0 0 1-.136.271c-.2.271-.61.407-.542.881l.2.2a1.146 1.146 0 0 0 .136.339c.068.2 0 .271 0 .407s0 .2-.068.271v.271c-.068.2-.271.339-.339.475a.249.249 0 0 0-.068.2c0 .068-.068.136-.068.271.136.136.339-.068.542 0 .136-.136.339-.271.407-.407a2.834 2.834 0 0 1 .271-.678.677.677 0 0 1 .339-.271c.339 0 .475-.271.881-.271.201-.467.812-.671.676-1.485z" class="cls-1" data-name="Path 102" transform="translate(-9.175 -18.125)"/>
        <path id="Path_103" d="M25.8 56.942a1.277 1.277 0 0 0 .136-.542c-.136-.136-.2-.271-.339-.407a.912.912 0 0 1-.475-.407c-.136 0-.271-.068-.407 0-.2.068-.2.339-.475.339a.657.657 0 0 1-.542.475c.068.2.2.339.271.542v.068c0 .339-.2.678-.2 1.017a1.98 1.98 0 0 0 .136.61c.068.136 0 .475.2.475.136-.068.2-.2.339-.339s.271-.339.407-.339c.068 0 .2.068.339 0a1.459 1.459 0 0 1 .542 0 3.131 3.131 0 0 1 .475-.475c.07-.543-.269-.746-.407-1.017z" class="cls-1" data-name="Path 103" transform="translate(-7.598 -17.918)"/>
        <path id="Path_104" d="M10.5 21.027c.068-.475.068-.814.339-1.085.068-.068.136-.068.2-.136.2-.136.542-.271.746-.407.068.068.136 0 .136.136a.249.249 0 0 1 .2-.068c.2 0 .271.136.407.136a1.011 1.011 0 0 1 .2.542c.068.2.339.271.475.475 0 .068.068.2.068.271a1.149 1.149 0 0 1 0 .678.964.964 0 0 1-.136.407c-.136.136-.271.339-.407.475-.339.068-.814.271-1.153.136-.136-.068-.2-.2-.339-.2a2.1 2.1 0 0 1-.136-.542c-.068-.068-.136-.068-.2-.136a1.806 1.806 0 0 0-.407-.678" class="cls-1" data-name="Path 104" transform="translate(-3.348 -6.278)"/>
        <path id="Path_105" d="M4.876 19.478c.136 0 .136-.068.271 0 .068 0 .136-.068.2-.136h.2c.136 0 .136-.136.2-.136.407.2.746-.271 1.085-.136 0 .136-.136.068-.136.136a2.039 2.039 0 0 1 .271 1.221 7.83 7.83 0 0 0 .136 1.085c0 .271.136.407-.136.475a4.141 4.141 0 0 1-.881-.2.146.146 0 0 1-.136-.136h-.531c-.068.136.068.271.068.542-.136 0-.2.136-.271.2-.136 0-.271-.339-.339-.475-.068-.2-.068-.407-.136-.678 0-.068-.068-.136-.068-.2a.737.737 0 0 0-.068-.339c-.068-.2-.2-.339-.2-.542a1.54 1.54 0 0 1-.407-1.085c0-.136.136-.2.2-.271.339 0 .407.475.61.542 0 .068.068.068.068.136" class="cls-1" data-name="Path 105" transform="translate(-1.251 -6.085)"/>
        <path id="Path_106" d="M107.112 30.3v-.61c0-.2-.136-.339-.136-.542a1.877 1.877 0 0 1-.068-.61 8.161 8.161 0 0 1 0-1.288c0-.271.136-.542.136-.746s-.068-.407-.068-.61v-.746c0-.271.068-.542.068-.746 0-.339-.407-.475-.542-.678-.136 0-.271.136-.339.068-.271-.339-.136-.61 0-1.017l.2-.61a1.094 1.094 0 0 0-.2-.61c0-.068-.136-.068-.2-.136s-.136-.136-.2-.136c-.2-.068-.2 0-.407.068a2.949 2.949 0 0 1-.271.475.9.9 0 0 0-.2.339c-.068.136-.136.2-.136.339a2.1 2.1 0 0 1-.136.542 11.491 11.491 0 0 0 .068 1.56 9.98 9.98 0 0 0 .678 1.492 4.088 4.088 0 0 1 .068 1.56c0 .2-.136.339-.136.542s.136.407.136.678v.542a7.037 7.037 0 0 0 .271.678v.068a1.172 1.172 0 0 1-.068.678c-.068.2-.271.271-.339.475-.136.407.068.746.068 1.153.068.2.271.271.2.542 0 .136-.136.2-.2.339s-.068.339-.136.542l-.2.407v.2a3.4 3.4 0 0 1-.136.814c-.068.136-.068.339-.136.475-.068.407-.136.814-.2 1.288a2.543 2.543 0 0 0-.068.746c0 .2-.068.407-.068.61v.407a7.391 7.391 0 0 0 .2 1.763c0 .2.068.339.068.542a7.371 7.371 0 0 1 .068 1.221v.136a2.817 2.817 0 0 0 .2.881v.339c0 .136.068.2.136.339v.068a13.579 13.579 0 0 1 .271 1.627v.068c.068.271.068.542.339.678.068-.136-.136-.339-.136-.407.2.068.068.407.2.475a.626.626 0 0 0-.2-.61v-.2c.068-.339 0-.678.271-.949 0-.271-.136-.542-.136-.746v-.337a1.725 1.725 0 0 0-.136-.475c0-.136-.068-.339-.068-.475a.964.964 0 0 1-.136-.407v-.2a3.754 3.754 0 0 0-.136-1.221 1.493 1.493 0 0 0 .068-.542v-.07c.068-.136.2-.2.271-.271s.068-.2.136-.271.068-.2.136-.271c0-.339-.339-.542-.339-.746a.514.514 0 0 1 .136-.271c.068-.136.136-.2.136-.271a1.393 1.393 0 0 0 0-.746.964.964 0 0 1-.136-.407c0-.068-.068-.136-.068-.271a2.1 2.1 0 0 1 .136-.542 1.685 1.685 0 0 0 .068-.542c.068-.136.068-.271.136-.407 0-.068 0-.068.068-.136.136-.542.339-1.153.475-1.763.136-.881.407-1.7.475-2.509.2-.136.136-.407.2-.61-.006.067.062.067-.006-.006z" class="cls-1" data-name="Path 106" transform="translate(-33.579 -6.876)"/>
        <path id="Path_107" d="M67.645 22.32c0-.136.068-.2.136-.339v-.271c0-.136.136-.2.136-.339.068-.271.068-.475.136-.814.271-.2.136-.61.339-.949.068-.2.339-.271.407-.475a1.861 1.861 0 0 1 .136-.881c.068-.136.271-.2.339-.339a1.878 1.878 0 0 0 .068-.881v-.542c0-.068-.068-.136-.068-.2v-.271c-.068-.136-.2-.271-.2-.407-.271-.136-.407-.678-.881-.61-.136.136-.407.2-.542.407-.068.068 0 .271-.068.339-.068.136-.136.2-.2.339v.407a4.431 4.431 0 0 1 0 .949v1.424a2.984 2.984 0 0 1-.136.678c-.136.61-.136 1.356-.271 1.9a20.758 20.758 0 0 0-.339 2.17c-.068.407-.068.814-.136 1.221 0 .136-.136.271-.136.407v.407a13.019 13.019 0 0 0 0 1.627c.068.271.136.407.2.678 0 .068.068.136.068.271 0 .2.068.407.068.61.068.271.068.61.136.881a2.937 2.937 0 0 0 .068.339V31a5.972 5.972 0 0 0 .136 1.153A6.2 6.2 0 0 1 67.1 33.3v.61a4.419 4.419 0 0 0 .2 1.085h.068a.237.237 0 0 1 .136.068c.068.068.2.068.2.136 0 .2-.2.271-.2.475a2.516 2.516 0 0 0 .136.61 1.154 1.154 0 0 1-.068.475 2.936 2.936 0 0 1-.068.339v.881c0 .068-.068.2-.068.271v.2c0 .136.068.339.068.475 0 .271-.136.475-.136.746a1.322 1.322 0 0 1-.068.542l-.068.068c.136.068-.068.2-.136.136a1.245 1.245 0 0 1-.814.136c-.2-.136-.2-.271-.407-.271s-.339.136-.475.068c-.068 0-.136-.068-.2-.136l-.2-.2c-.068 0-.136-.068-.2-.068a4.324 4.324 0 0 0-.475-.136c-.068 0-.136-.068-.2-.136a2.811 2.811 0 0 0-1.085-.2c-.2 0-.339-.068-.542-.068h-1.159c-.339 0-.678-.136-1.017-.136-.746-.068-1.56 0-2.305 0a6.533 6.533 0 0 0-1.153 0c-.271 0-.542.136-.814.136h-.475c-.136 0-.271.068-.475.068a3.82 3.82 0 0 0-.881 0c-.271.068-.61.068-.881.136-.136 0-.271.136-.339.136-.136 0-.339.068-.475 0-.136 0-.271-.136-.339-.136h-.339c-.949-.068-1.966.068-2.848 0a3.968 3.968 0 0 1-.881-.136 3.968 3.968 0 0 0-.881.136 2.636 2.636 0 0 1-1.017.136c-.407 0-.746-.271-1.153-.271a5.132 5.132 0 0 1-1.017-.068.77.77 0 0 0-.542-.2 1.927 1.927 0 0 0-.814.271c-.271.136-.61.136-.814.271a7.471 7.471 0 0 0-1.22.136 3.4 3.4 0 0 1-1.153.068c-.2 0-.407-.136-.678-.068-.2-.068-.271-.2-.475-.271s-.407-.068-.542-.136-.2-.2-.339-.271a7.144 7.144 0 0 1-.746-.475c-.068-.068-.2-.136-.271-.2a1.479 1.479 0 0 0-.339-.271c-.2-.136-.339-.2-.542-.339a3.011 3.011 0 0 1-.746-.542c-.136-.136-.271-.339-.407-.407-.068-.068-.2-.068-.339-.136-.068 0-.068-.068-.136-.068a1.8 1.8 0 0 0-.407-.339 3.785 3.785 0 0 1-.539-.345c-.136-.068-.2-.2-.271-.271-.271-.271-.678-.407-.881-.746a.066.066 0 0 0-.072-.068 9.306 9.306 0 0 1-1.966-1.7 6.36 6.36 0 0 0-.814-.61 2.949 2.949 0 0 1-.475-.407c-.068-.068-.2-.068-.271-.136l-.271-.136a3.762 3.762 0 0 1-.542-.407c-.136-.136-.136-.271-.271-.407-.271-.2-.678-.271-.814-.61a3.68 3.68 0 0 1-1.017-.61c-.136-.136-.407-.339-.542-.475a1.482 1.482 0 0 1-.2-.339c-.068-.068-.136-.068-.2-.136-.136-.136-.271-.2-.339-.339-.068-.068-.136-.136-.136-.2-.068-.068-.2-.068-.339-.136l-.136-.136-.068-.068c-.068-.068-.136-.068-.2-.136a3.868 3.868 0 0 1-.746-.746 6.113 6.113 0 0 0-.678-.61l-.136-.068a1.482 1.482 0 0 0-.339-.2c-.068-.136-.2-.2-.2-.271-.136-.068-.2-.068-.271-.2a1.62 1.62 0 0 1-.61-.2c-.136.136-.271.339-.475.339a1.108 1.108 0 0 1 0 .475c-.136 0-.2-.068-.271.068.068.068.2 0 .271.068a5.816 5.816 0 0 0 1.356.881 4.353 4.353 0 0 1 .881.678l.068.068.271.271a3.784 3.784 0 0 0 .542.339 4.536 4.536 0 0 0 1.153.475c0 .136.136.136.136.271a.512.512 0 0 0 .068.542 4.757 4.757 0 0 0 .61.407c.407.271.746.678 1.085.949a2.279 2.279 0 0 0 .949.542 6.055 6.055 0 0 1 .339.881c.136.136.339.271.407.407v.068a1.482 1.482 0 0 0 .2.339c.136.136.271.136.407.271a1.482 1.482 0 0 1 .2.339 2.111 2.111 0 0 0 .61.475c.136.068.2.2.271.271.068.068.136.2.271.271a1.482 1.482 0 0 0 .339.2c.271.2.475.542.746.746 0 .068.068.136.068.2a1.363 1.363 0 0 1 .542.271c.136.068.2.136.339.2a3.534 3.534 0 0 0 1.017.407 2.835 2.835 0 0 1 .746 1.153c.271.271.475.61.746.881.068.068 0 .136 0 .2.2.2.475.339.542.678v.068a2.636 2.636 0 0 1-1.017.136 1.725 1.725 0 0 1-.475-.136c-.136 0-.271-.068-.407-.068h-.14c-.136-.068-.2-.136-.339-.136a3.685 3.685 0 0 0-1.492 0 .508.508 0 0 0-.339.068c-.136.068-.271.068-.339.136h-.542c-.2 0-.339.136-.542.136a2.514 2.514 0 0 1-1.017.271.964.964 0 0 1-.407.136h-.2l-.068.068h-.136a2.832 2.832 0 0 1-1.56-.475l-.136-.136a.408.408 0 0 0-.271-.068.817.817 0 0 1-.339-.339 3.145 3.145 0 0 0-1.424-.271 2.26 2.26 0 0 1-.678 0c-.136-.271-.542-.339-.814-.475-.271.068-.61.136-.881.2a5.767 5.767 0 0 1-1.492.271 2.817 2.817 0 0 1-.881-.2.514.514 0 0 0-.271-.136 1.98 1.98 0 0 1 .136-.61v-.2c0-.136-.068-.271-.068-.407 0-.2.136-.339.2-.542a1.805 1.805 0 0 1-.2-.814v-1.757a2.155 2.155 0 0 0-.136-.949.964.964 0 0 1-.136-.407v-.2c0-.068-.068-.068-.068-.136-.068-.068-.068-.136-.136-.2v-.2a4 4 0 0 1-.136-.949c.068-.678.136-1.288.2-1.966-.068-.136 0-.407-.136-.542-.61.136-.678.746-1.153 1.017a2.586 2.586 0 0 0-.746.949c-.068.136-.136.2-.136.339 0 .2.2.339.339.407.136.136.475.339.407.61 0 .136-.136.271-.136.339s-.068.136-.068.2a.249.249 0 0 0-.068.2 3.832 3.832 0 0 1 0 .881c0 .068-.136.2-.136.2v.068c-.068.136-.068.068-.136.2a.237.237 0 0 1-.068.136c0 .068-.068.068-.068.136a.377.377 0 0 0 .475.2c.136.136.475.136.61.339a5.967 5.967 0 0 1 .339 1.017c0 .136.068.271.068.407a2.542 2.542 0 0 0 .068.746c0 .2.136.339.2.542a2.26 2.26 0 0 0 0 .678 1.6 1.6 0 0 1 .136.542.837.837 0 0 1-.542.271c-.271 0-.475-.2-.746-.2s-.475.271-.678.339a1.98 1.98 0 0 1-.61.136c-.2 0-.339-.136-.542-.2-.068 0-.068.068-.136.068h-.136c-.068 0-.2.068-.271.068a1.725 1.725 0 0 1-.475-.136 1.459 1.459 0 0 1-.542 0c-.271-.2-.271-.814-.271-1.22v-4.341a2.614 2.614 0 0 1-.136-1.288V33.1a9.1 9.1 0 0 1 .068-1.424v-.407a.964.964 0 0 1 .136-.407v-.61a2.1 2.1 0 0 1 .136-.542 1.493 1.493 0 0 1 .068-.542 1.277 1.277 0 0 1 .136-.542v-.61a13.618 13.618 0 0 0 .068-1.627 16.344 16.344 0 0 1 0-2.577c0-.2.136-.407.136-.61 0-.136-.136-.339-.136-.542a8.385 8.385 0 0 1-.136-1.22v-1.425c0-.339.068-.746.068-1.085 0-.136-.068-.271-.068-.407a2.937 2.937 0 0 1 .068-.339 1.7 1.7 0 0 0-.2-.881c-.542.068-.61.542-1.085.61-.068.068-.068.136-.136.2-.068.136-.136.136-.136.2a1.01 1.01 0 0 0 .271.61c.136.136.475.271.407.542 0 .136-.136.136-.2.2a.249.249 0 0 1-.068.2 6.418 6.418 0 0 0-.339 1.22 1.98 1.98 0 0 0-.136.61v.339c0 .2-.068.339-.068.475a.727.727 0 0 0 .136.407c0 .068.068.2.068.271.068.136.2.2.271.407a2.4 2.4 0 0 1 .2.746 4.672 4.672 0 0 0 .2.542c.068.2.136.339.2.542-.068.136-.136.339-.339.407a5.139 5.139 0 0 0-.407 1.085v2.645c0 .136.068.2.068.339 0 .068-.068.136-.068.2a5.748 5.748 0 0 0 0 1.085 1.843 1.843 0 0 1 0 .61c0 .2-.136.339-.136.542a2.15 2.15 0 0 1-.339.407v.068a.066.066 0 0 0-.068.068.86.86 0 0 0-.068.407.871.871 0 0 0 .271.678.677.677 0 0 1 .339.271c0 .271-.2.407-.271.61v.2a2.912 2.912 0 0 1 0 1.085c.068.136.136.136.2.271a.611.611 0 0 1-.068.339v1.039a2.937 2.937 0 0 1-.068.339v.607c0 .61-.068 1.085-.068 1.56a1.008 1.008 0 0 0-.407-.068c-.068 0-.136.068-.2.136a.352.352 0 0 1-.271.136c.068 0 .068-.068.136-.068a12.276 12.276 0 0 0-1.56.2c-.136 0-.2-.068-.339-.068a1.257 1.257 0 0 0-.475.136c-.068-.136-.2-.2-.271-.271-.068-.068-.136-.136-.136-.2a1.98 1.98 0 0 1-.136-.61c0-.136.068-.2.068-.339 0-.068-.068-.136-.136-.2 0-.068-.068-.2-.068-.271v-.136a13.031 13.031 0 0 1 0-1.627v-.068a.611.611 0 0 1 .068-.339 1.154 1.154 0 0 1 .068-.475c0-.068.068-.2.068-.271 0-.2-.136-.475-.136-.678v-.068a4.026 4.026 0 0 0 .271-.542v-.542c.068-.136.2-.271.2-.407.136-.068.2-.2.271-.271.068-.068.068-.068.068-.136a1.436 1.436 0 0 0 .2-.475 2.155 2.155 0 0 0-.136-.949c-.2-.814-.339-1.627-.475-2.373-.068-.339-.068-.746-.136-1.017a.514.514 0 0 0-.136-.271c0-.068-.068-.136-.068-.2a6.106 6.106 0 0 1-.2-1.085 1.493 1.493 0 0 0-.068-.542c-.068-.271-.2-.475-.136-.746a.572.572 0 0 0-.475-.136c-.2.136-.271.339-.475.475-.136 0-.2-.068-.339-.068-.2.136-.2.339-.339.542-.2.339-.542.678-.746 1.017a3.785 3.785 0 0 1-.339.542l-.2.2c-.068.068-.136.2-.2.271-.136.2-.271.339-.407.542-.068.136-.068.271-.136.339a.936.936 0 0 1-.2.271 2.03 2.03 0 0 0-.271.678 1.169 1.169 0 0 1-.407.407s-.136.068-.136.136c-.068.068-.068.2-.136.339a4.323 4.323 0 0 1-.542.949c-.2.339-.407.814-.542 1.085 0 .068 0 .068-.068.136v.068c-.2.475-.542.814-.746 1.22a3.306 3.306 0 0 0-.2.475c.136.136.136.2.136.271a7.034 7.034 0 0 1-.271.678 1.459 1.459 0 0 0 0 .542 2.937 2.937 0 0 0 .068.339v.068a.146.146 0 0 0 .136.136c.068-.068-.068-.068 0-.136a.508.508 0 0 1 .068.339c-.068 0-.068-.271-.136-.2a6.3 6.3 0 0 1 .339.678 6.327 6.327 0 0 0 1.356.678.237.237 0 0 0 .068.136c.068.2.2.339.271.542.068.068.136.2.2.271s.271.068.2.2a1.725 1.725 0 0 1 .475.136 1.877 1.877 0 0 0 .61.068c.407-.068.678-.271 1.017-.339.068-.068 0-.271.136-.339.136 0 .271.136.407.068.136 0 .271-.271.542-.2.136-.2.339-.271.475-.407a.21.21 0 0 1 .136-.068l.152-.14v.2c0 .475-.068.881-.068 1.356a.508.508 0 0 0 .068.339.611.611 0 0 0 .068.339c0 .339-.068.61.068.814-.068-.068 0 .068 0 .068a.6.6 0 0 0 .068.475.237.237 0 0 0 .068.136v.068h.068v.136c0 .068.068.068.068.136a.521.521 0 0 0 .136.2c.068.136.136.136.2.2s0 .2.136.2c.271-.339.542-.746.814-1.085a1.627 1.627 0 0 1 .814-.475c.2.136.475 0 .678.068.136-.136.339-.136.475-.2.068.068.136 0 .271-.068a1.877 1.877 0 0 0 .61-.068c.2-.068.271-.271.475-.271a.623.623 0 0 1 .271.407c.068.068.2.2.136.339.2 0 .271.271.407.339l.068.068a.249.249 0 0 0 .2-.068c.136-.068.2-.2.339-.271.2-.136.339-.407.475-.407.2-.068.407.068.61 0a6.348 6.348 0 0 0 1.085-.271c.271-.068.542.068.746 0 .136 0 .2-.136.339-.136.339-.068.542-.136.814-.2a3.761 3.761 0 0 1 .542-.407c.136.136.136.339.2.475s.271.136.339.271c.136-.068.2.068.339.068h.407c.068 0 .136.136.2.136.068.068.2 0 .271.068a4.666 4.666 0 0 0 .881.136c.271 0 .61.068.949.068.407 0 .746-.068 1.22-.068h.678a5.27 5.27 0 0 1 1.085.136 11.46 11.46 0 0 0 2.644 0c.678-.136 1.424-.136 2.034-.2.475-.068.814-.136 1.22-.2a3.357 3.357 0 0 0 .881-.271c.271.068.542-.068.814-.068a1.773 1.773 0 0 1 .542.2 4.669 4.669 0 0 0 .542.2 2.006 2.006 0 0 0 .678.136 9.23 9.23 0 0 0 1.424-.136c.271-.068.542-.136.746-.2s.475-.068.746-.136a4.17 4.17 0 0 1 .746-.2c.271 0 .475.271.678.2.136 0 .271-.136.339-.136.136-.068.2-.136.339-.136.2 0 .407.136.678.136a6.079 6.079 0 0 0 1.631-.13 3.968 3.968 0 0 1 .881-.136c.068 0 .136.068.2.068a1.668 1.668 0 0 0 .746-.271.237.237 0 0 0 .136-.068.671.671 0 0 1 .542-.068 1.6 1.6 0 0 1 .542.136c.068 0 .2.068.271.068a1.154 1.154 0 0 0 .475.068 1 1 0 0 1 .475.068c.068 0 .136.068.2.136a2.936 2.936 0 0 1 .339.068h.271l.407.2c.2.068.407 0 .678.068a2.155 2.155 0 0 1 .61.2h.271a5.406 5.406 0 0 1 1.017.2c.2.068.475 0 .678.068a3.653 3.653 0 0 1 .678.2h.542a1.6 1.6 0 0 1 .542.136 3.268 3.268 0 0 1 .814 0c.475 0 1.085-.136 1.424-.136h.339c.068 0 .2-.068.271-.068h.271c.2 0 .407-.2.61-.136a2.088 2.088 0 0 1 .881-.2c.136-.2.339-.136.61-.2.068 0 .136-.136.271-.136h.339a1.6 1.6 0 0 1 .542-.136 11.918 11.918 0 0 1 1.56 0c.339 0 .678-.068 1.017-.068.2 0 .339.068.542.068a7.948 7.948 0 0 1 1.831.271 2.543 2.543 0 0 1 .746-.068c.136.068.136.136.2.068a1.828 1.828 0 0 0 .542.475c.339 0 .746-.136 1.085-.136a2.121 2.121 0 0 1 .678.339 1.6 1.6 0 0 1 1.288.475l.068.068c.068.136 0 .339.136.407a.617.617 0 0 0 .271-.542 1.861 1.861 0 0 0-.136-.881c-.068-.136-.068-.271-.136-.407a.86.86 0 0 1-.068-.407c0-.136.068-.339.068-.475a9.422 9.422 0 0 1 .407-1.288l.2-.407c0-.068.068-.136.068-.2a2.514 2.514 0 0 0 .271-1.017v-.136c0-.136-.068-.2-.068-.339a1.725 1.725 0 0 0-.136-.475 4.707 4.707 0 0 0-.339-.881V35.2a8.031 8.031 0 0 1 .136-1.763V33.3c0-.068-.068-.2-.068-.271 0-.339.136-.678.136-.949a2.37 2.37 0 0 0-.2-.814 1.324 1.324 0 0 0-.068-.475 4.477 4.477 0 0 1-.068-.949v-.402c0-.136-.136-.339-.136-.475a.86.86 0 0 1 .068-.407v-.271a1.6 1.6 0 0 0-.136-.542c-.068-.136-.2-.136-.271-.271v-.136a.066.066 0 0 1-.068-.068 3.441 3.441 0 0 1-.542-2.17.691.691 0 0 0 .339-.542 3.4 3.4 0 0 0-.136-.814c0-.2.068-.475.068-.746a1.061 1.061 0 0 0 .223-.678zM6.553 38.458a2.273 2.273 0 0 0-.678 0 1.8 1.8 0 0 1-.881.068.962.962 0 0 1-.61-.542s-.136-.068-.136-.136c-.068.068-.136-.068-.2-.136-.068-.475-.407-.678-.814-.814h-.072a1.216 1.216 0 0 1-.339-.475c.068-.136 0-.339 0-.407a.98.98 0 0 1 .136-.475 1.146 1.146 0 0 1 .136-.339c0-.068.068-.068.068-.136a1.146 1.146 0 0 0 .136-.339l.2-.2c.068-.068.068-.2.136-.271a2.257 2.257 0 0 0 .2-.407.237.237 0 0 0 .068-.136.408.408 0 0 0 .068-.271v-.068c0-.068.136-.136.136-.2.136-.2.271-.475.407-.678a4.242 4.242 0 0 1 .686-1.361 9.8 9.8 0 0 0 .746-1.966c.136-.068.2-.2.339-.2.271.2.271.542.271.881 0 1.22.61 2.441.542 3.594V35.2a15.279 15.279 0 0 0 0 1.763 6.994 6.994 0 0 0 .136 1.356c-.275.003-.41.139-.681.139z" class="cls-1" data-name="Path 107" transform="translate(-.147 -4.859)"/>
        <path id="Path_108" d="M57.546 38.481a.892.892 0 0 1 .678.407 7.01 7.01 0 0 1-.2.814c-.136 0-.407-.068-.542.136-.542-.271-.542-.136-.542-.475a1.084 1.084 0 0 1 .61-.881m-2.78.271c.068 0 .068.068.136.068s.068 0 .068-.068c.068 0 .068.068.2.068s.2-.136.271-.136a.942.942 0 0 1 .881.542c.068.475-.068.814-.61.814-.136 0-.068-.068-.2-.068s-.068.068-.136.068a.513.513 0 0 0-.542-.2c0-.136.068-.339-.136-.339.136-.271 0-.61.068-.746m1.9 15.188a.344.344 0 0 0-.068.339c0 .068 0 .339.2.339a1.19 1.19 0 0 0 .271-.339v-.339a.427.427 0 0 1-.407 0m.068-2.305c-1.085 1.288-2.305 2.78-3.458 4.136v.136a5.639 5.639 0 0 0 .881.136c.136 0 .2-.136.271-.136.136 0 .068.068.2.068s.271-.136.407-.136a.508.508 0 0 1 .339.068c.136-.136.339-.136.475-.271a3.071 3.071 0 0 1 .2-1.085c-.136 0-.136-.136-.136-.2a.926.926 0 0 1 .746-.949c.339 0 1.017.068 1.085.678.068.339-.136.407-.339.746.068 0 .136 0 .136.068l-.271.271v.331c.475-.068 1.966-.2 2.441-.2v-.339a23.605 23.605 0 0 0-2.983-3.322m-1.22-5.628a2.791 2.791 0 0 0-.542.2v.136a2.663 2.663 0 0 0 1.22 1.017 6.418 6.418 0 0 1 1.153-.61c.136 0 .068.068.2.068s.068-.068.2-.136h.2c.068.136.136.2.2.339.271-.339.61-.678.881-1.017v-.136h-.407c0 .068 0 .068-.068.068-.136 0-.068-.068-.2-.068s-.068.068-.136.136l-.678.068c-.136 0-.068-.068-.136-.068 0 .068 0 .068-.136.068s-.542-.136-.678-.136-.2.136-.271.136a3.3 3.3 0 0 1-.814-.068m1.304-1.424c.068.271-.068.136-.2.407h-.136a.249.249 0 0 1-.068-.2h-.407c-.271.271-.678.475-.881.814.407 0 .881.136 1.153.136.136 0 .068-.068.2-.136a7.038 7.038 0 0 1 .881.271l.881-.068c.271-.068.407-.271.814-.271a3.1 3.1 0 0 0-1.627-.814v-.2c-.271.271-.271.068-.61.068m.339-.475c0 .068-.068.136-.068.2h.271q-.1-.2-.2-.2m-.678-.407a.508.508 0 0 0 .339.068.508.508 0 0 0-.339-.068m2.436-5.634a.508.508 0 0 0 .339.068c-.136-.136-.2-.136-.339-.068m-.339-1.017v.2c.068 0 .136.068.2.068v-.136c-.068-.068-.136-.136-.2-.136m-.068-.2c.136.068.271.068.407.136v-.136zm.136-.475c0 .068-.068.136-.068.2h.2c0-.068.068-.136.068-.2zm-.2-9.154c-.068 0-.136.2-.475.068v.271a.518.518 0 0 1 .339-.136.508.508 0 0 1 .339.068c0-.068 0-.068.136-.136a.518.518 0 0 0-.339-.136m-.339-.339a.508.508 0 0 0 .339.068.508.508 0 0 0-.339-.068m-.408-17.628h.271s.475.61.475.814c0 .136-.068.068-.068.2l.068.61c0 .271-.136.542-.136.881 0 .136.136.271.136.339 0 .136-.068 0-.068.136s.136 0 .136.136-.068.136-.068.2c0 .136.068.136.136.136a.249.249 0 0 0-.068.2c0 .136.068.136.136.136 0 .068-.068.068-.068.2s.136.068.136.2-.068.136-.068.271.136.136.136.2c0 .136-.136 0-.068.068 0 .136.136 0 .136.136s-.136.407-.136.61v.97c0 .339.068.136.339.407-.068 0-.068 0-.136-.068h-.136a.834.834 0 0 0-.068.542c0 .136.136.136.136.271 0 .271-.2.881-.2 1.085l.068.542c0 .136 0 0 .136.068-.068.136-.2.2-.2.339s.068.136.136.136a.249.249 0 0 0-.068.2c0 .136.136.271.136.339 0 .2.068.271-.2.339.068.068.068.136.2.136 0 .136-.068.2-.068.271v1.223a.373.373 0 0 0 .136.339h-.136c-.068.068 0 .068 0 .2s.136.339.136.475a5.833 5.833 0 0 0-.068 1.085c0 .136 0 .136.068.2.068-.068.068-.136.136-.2a3.439 3.439 0 0 0-.136.61c0 .136.136.136.136.271s-.068.068-.068.2l.068.542c0 .136 0 0 .136.068a.249.249 0 0 0-.068.2c0 .136.136.136.136.2 0 .136-.068.068-.068.136l.068.949c0 .136-.136 0-.068.068 0 .2.475.61.475.678-.068-.068-.2-.068-.271-.136h-.136l.068.61a.521.521 0 0 0 .2.136c-.068.2-.271.407-.271.542s.271.339.271.475-.068 0-.068.136.068 0 .136.068l.136 1.085c0 .136-.136 0-.068.068 0 .136.136 0 .136.136a2.937 2.937 0 0 1-.068.339c.068.475 0 .068.475.407h-.339c-.068.068-.068 0 0 .136 0 .136.068.068.136.068a.249.249 0 0 0-.068.2c0 .136.068.136.136.136a.972.972 0 0 0-.136.475c0 .136.136.271.136.339 0 .136-.068.068-.068.2l.068.949c0 .136 0 0 .136.068-.068.136-.2.2-.2.339s.068 0 .136.068c0 .136-.068.068-.068.2s.068.136.136.136c-.068.068-.068.136-.068.271s0 .136.136.2a.508.508 0 0 0-.068.339c0 .2 0 .136.2.271h-.136c0 .136-.136.271-.136.407s.068.068.136.068c0 .068-.068 0-.068.136l.068.746 1.492 2.441a.611.611 0 0 1-.068.339c.068.068.136.068.2.136h-.141c-.136 0-.068-.068-.068-.068-.61.542-.339.881-1.085.881-.136 0-.542-.2-.678-.2-.2 0-.407.339-.475.678a2.365 2.365 0 0 0-.881 1.356.133.133 0 0 0 .136.136c-.068 0-.068-.068-.136-.068a3.019 3.019 0 0 0-.407.814c0 .136.136.2.2.339-.068.068-.068.2-.2.271.407.271 1.017.136 1.424.339a3.746 3.746 0 0 1 1.153.949c-.068.2-1.153 2.238-1.966 2.305-.339 0-.271-.475-.61-.61v.339a.249.249 0 0 0-.2.068.352.352 0 0 1 .136.271c0 .136-.136.407-.136.542s.068 0 .136.068c0 .136-.136 0-.068.068 0 .136.136 0 .136.136s-.2 1.017-.2 1.085c0 .136 0 .136.136.2-.271.2-.068.61-.2.814a11.485 11.485 0 0 0 1.288 1.288.066.066 0 0 1 .068-.068c0 .068-.068.068-.068.2s.407.271.542.407c.339.407.746 1.017 1.085 1.492a11.8 11.8 0 0 0 .746 1.221c-.136.136-.136.2-.271.2s-.271.068-.339-.136c-.61.2 0 .542-.542.61-.136 0-.136-.068-.271-.068s.068.068-.068.068l-1.831.2c-.339-.271-1.221 0-1.492-.475l-.068-.61c0-.136.068-.068.068-.068-.068-.068 0 0-.136 0-.2 0-.271.678-.271.678 0 .136.136.068.136.2 0 .068-.2.271.068.475h-.351a4.321 4.321 0 0 1-.475-.136c-.136 0-.068.068-.2.136-.136 0-.068-.068-.2-.068s-.136.068-.271.136c-.136 0-.339-.136-.475-.136l-.746.068c-.136 0-.339-.136-.475-.136s-.068 0-.068.068H53c-.068-.068-.136-.136-.2-.136v-.136c.678-.949 3.865-4.543 3.8-5.085l-.068-.61c0-.136.2-.2.2-.339l-.068-.61c0-.136.2-.339.136-.475 0-.136-.068-.136-.136-.136.068-.068.2-.136.2-.271s-.068-.068-.136-.068c.068-.2.271-.475.271-.542 0-.136-.136-.136-.136-.2-.068-.068 0 0-.136 0s-.475.339-.61.339-.068-.068-.136-.068c-.136 0-.068.068-.2.136-.542.068-1.017-1.017-2.17-1.763.136-.949 2.441-1.966 2.441-2.305 0-.136-.136-.271-.136-.407a.7.7 0 0 1 .068-.271l-.068-.949c.068 0 .068 0 .068-.136s-.136-.136-.136-.2c0-.136.068-.068.068-.2s-.271-.542-.271-.61c0-.136.068-.068.068-.068-.068-.068-.068-.136-.2-.136v-.108h.407c0 .136 0 .2.068.271.068 0 .068-.068.136-.068v.2c0 .136-.068 0-.068.068v.271c.068-.068.068-.136.136-.2a1.093 1.093 0 0 0 .271.475l.136 1.627h.2c.542-.881 1.153-2.034 1.7-2.983.068 0 1.492-.271 1.424-.678-.068-.339-.475-.339-.475-.881-.678.068-.746-.475-1.288-.746 0-.068.068-.068.068-.136-.136-.271-.136-.339-.339-.475l-.068-.61c0-.136 0 0-.068 0 0-.068.068-.068.068-.2s-.136-.068-.136-.2.068-.136.068-.271 0-.136-.136-.2v-.271h.136V35.7c0-.068-.136-.271-.136-.339 0-.136.136 0 .068-.068 0-.136-.136-.068-.136-.136q.2-.1.2-.2l-.136-1.085c0-.136-.271-.339-.475-.542.271-.068.407-.339.339-.339 0-.136-.136 0-.136-.136s.068 0 .068-.136-.068.068-.136-.068l.2-1.492c0-.136.136.068.068-.068 0-.136-.068.068-.136-.068v-.2a.249.249 0 0 0 .2-.068c-.136-.068-.136-.2-.136-.339s.068-.271.068-.407-.136-.136-.136-.2c0-.136.068-.068.068-.2s0-.068-.136-.068c0-.068.068 0 .068-.068l-.068-.61c0-.136.136.068.068-.068 0-.136-.136-.068-.136-.2a2.748 2.748 0 0 1 .339-.61c-.068-.068-.068-.136-.2-.136L57 23.5c0-.136.136.068.068-.068 0-.136-.068 0-.136-.068 0-.136.136 0 .068-.068 0-.136-.136-.068-.136-.2s.068-.068.068-.2a.834.834 0 0 1-.136-.339 4.075 4.075 0 0 0 0-1.017c0-.068.068 0 .068-.136l-.068-.949c0-.136.068 0 .068-.068l-.136-1.017c0-.136.068 0 .068-.068l-.068-.61c0-.136.068 0 .068-.068l-.131-1.024.136-.475-.068-.61s.136-.475.136-.542c0-.136-.068 0-.136-.068 0-.136.136.068.068-.068l-.068-.746c0-.136.068 0 .068-.068l-.068-.61c0-.136.136-.475.136-.61l-.068-.61c0-.136.068 0 .068-.068l-.068-.678c0-.136.068 0 .068-.068l-.068-.881a11.224 11.224 0 0 1 .407-1.424zM81.956.714c.136.068.271.068.407.136V.714zM79.515.578c.068.068.136.068.271.068a.408.408 0 0 0-.271-.068m1.153-.271c-.136.136-.271.136-.339.271h.271c0-.068 0-.068.068-.068zM70.7.239l.95-.068c.136 0 .068.068.2.068s-.068-.068.068-.068L73.074.1c.136 0 0 .068.136.068s.136-.068.271-.136c.136 0 .136.068.271.068a.251.251 0 0 1 .2-.136.7.7 0 0 1 .271.068l.814-.068c.136 0 0 .068.136.068l1.017-.068c.136 0 0 .068.136.068s.068-.068.2-.136c.136 0 .068.068.2.068h.814c.136 0 0 .068.136.068l.61-.068c.136 0 0 .068.136.068l.61-.068c.814-.068 4.746.61 4.882.61a7.348 7.348 0 0 0 1.288.542v.136c-.068 0-.068.136-.2.136 0 0 .136.068.136.136h-.271c-.271-.2-.407-.542-.746-.475-.339 0-.2 0-.475.339a.912.912 0 0 0-.61-.136.237.237 0 0 1 .068-.136c-.068-.068 0 0-.136 0s-.068.068-.2.136A43.147 43.147 0 0 0 77.956.51l-.542.136c-.136 0 0-.068-.136-.068h-.61c-.068 0-.678-.136-.678-.136-.136 0 .068.068-.068.068l-.814.136c-.136 0 0-.068-.136-.068l-1.017.068a2.937 2.937 0 0 0-.339-.068c-.136 0-.271.136-.407.136s-.068-.068-.136-.068c-.136 0 0 .068-.068.068-.136 0 0-.068-.136-.068l-1.422.135a1.532 1.532 0 0 0-1.017.339.237.237 0 0 1 .07-.135c-.068-.068 0 0-.136 0s-.136.136-.271.136-.068-.068-.2-.068-.136.068-.136.136a4.186 4.186 0 0 1-.61.068c0 .068.136.068.136.136l-.61-.068c0-.068 0-.068-.136-.068s-.068 0-.068.068l-.678.068a23.415 23.415 0 0 0-3.865 1.7c0 .271-.407.339-.61.542 0 .068 0 .068.136.068v.2h-.142a.408.408 0 0 1-.068.271c-.068-.136-.136-.136-.2-.136 0-.068.068-.068.068-.136v-.137h-.2c-.542.068-.339.678-.746.746 0 0 .136.068.136.136-.2 0-.61 0-.678.339h.136c.068 0 .068-.068.271-.068-.2.068-.339.2-.475.2-.068.068-.068 0 0 .068a.133.133 0 0 0 .136.136 1.319 1.319 0 0 0-.949 1.017.92.92 0 0 0-.746.475c0 .068 0 .068.136.068-.136.2-.475.475-.542.61-.2.407-.271.814-.746.881-.814.068-.475-.678-1.085-.949l-.068-.61c.271-1.288 1.831-1.56 2.441-2.644.068 0 .068.068.136.068A22.88 22.88 0 0 1 64.395 1.8c.068 0 .068.068.136.068A9.3 9.3 0 0 1 67.446.781c.136 0 .068.068.2.068s.2-.068.271-.2L68.6.578c.136 0-.068-.068.068-.068l.746-.068c.136 0-.068-.068.068-.068l1.083-.067c.136 0 0-.068.136-.068" class="cls-2" data-name="Path 108" transform="translate(-16.966)"/>
        <path id="Path_109" d="M.975 79.321h.542l-.2-.542c-.068-.2-.068-.339-.136-.407 0 .136-.068.271-.068.407zm-.475.813l.678-2.034h.271l.678 2.034h-.271l-.2-.61H.975l-.2.61z" class="cls-1" data-name="Path 109" transform="translate(-.129 -25.176)"/>
        <path id="Path_110" d="M5.9 79.049h.475c.136 0 .2 0 .271-.068.068 0 .068-.068.136-.136 0-.068.068-.136.068-.2s0-.2-.068-.2c-.068-.068-.136-.068-.271-.068H5.9zm-.2 1.085V78.1h.746a.508.508 0 0 1 .339.068c.068.068.136.068.2.2a.408.408 0 0 1 .068.271.518.518 0 0 1-.136.339 1.482 1.482 0 0 1-.339.2.21.21 0 0 0 .136.068.936.936 0 0 1 .2.271l.271.542H6.92l-.2-.407c-.068-.136-.136-.2-.136-.271-.068 0-.136 0-.136-.068a.237.237 0 0 0-.136-.068H5.9v.881h-.2z" class="cls-1" data-name="Path 110" transform="translate(-1.803 -25.176)"/>
        <path id="Path_111" d="M11.142 80.166V78.4H10.6v-.2h1.356v.2h-.542v1.763z" data-name="Path 111" transform="translate(-3.38 -25.208)"/>
        <path id="Path_112" d="M19.814 79.388v-.271h.746v.746c-.136.136-.2.2-.339.2a.737.737 0 0 1-.339.068 1.257 1.257 0 0 1-.475-.131.817.817 0 0 1-.339-.339 1 1 0 0 1-.068-.476 1.277 1.277 0 0 1 .136-.542c.068-.2.2-.271.271-.407a.98.98 0 0 1 .475-.136.611.611 0 0 1 .339.068c.068.068.2.136.2.2.068.068.068.2.136.339l-.2.068c0-.136-.068-.2-.068-.271-.068-.068-.068-.136-.136-.136a.249.249 0 0 0-.2-.068c-.136 0-.2 0-.271.068s-.136.068-.2.136-.068.136-.136.2a.86.86 0 0 0-.068.407 1 1 0 0 0 .068.475.936.936 0 0 0 .2.271.508.508 0 0 0 .339.068.408.408 0 0 0 .271-.068c.068-.068.136-.068.2-.136v-.339z" data-name="Path 112" transform="translate(-6.085 -25.176)"/>
        <path id="Path_113" d="M24.575 79.321h.542l-.2-.542c-.068-.2-.068-.339-.136-.407 0 .136-.068.271-.068.407zm-.475.814l.678-2.034h.271l.678 2.034h-.339l-.2-.61h-.678l-.2.61z" class="cls-1" data-name="Path 113" transform="translate(-7.727 -25.176)"/>
        <path id="Path_114" d="M29.2 80.166V78.2h.271v1.763h.814v.2z" data-name="Path 114" transform="translate(-9.369 -25.208)"/>
        <path id="Path_115" d="M33.7 80.166V78.2h.271v1.763h.814v.2z" data-name="Path 115" transform="translate(-10.817 -25.208)"/>
        <path id="Path_116" d="M38.3 80.166V78.2h1.22v.2H38.5v.61h.949v.271H38.5v.678h1.085v.2z" data-name="Path 116" transform="translate(-12.298 -25.208)"/>
        <path id="Path_117" d="M43.4 79.049h.475c.136 0 .2 0 .271-.068a.146.146 0 0 0 .136-.136c0-.068.068-.136.068-.2s0-.2-.068-.2c-.068-.068-.136-.068-.271-.068h-.542v.678zm-.2 1.085V78.1h.746a.508.508 0 0 1 .339.068c.068.068.136.068.2.2a.408.408 0 0 1 .068.271.518.518 0 0 1-.136.339 1.482 1.482 0 0 1-.339.2.21.21 0 0 0 .136.068.936.936 0 0 1 .2.271l.271.542h-.265l-.2-.407c-.068-.136-.136-.2-.136-.271-.068-.068-.068-.136-.136-.136a.237.237 0 0 0-.136-.068H43.4v.881h-.2z" class="cls-1" data-name="Path 117" transform="translate(-13.876 -25.176)"/>
        <path id="Path_118" d="M48.678 80.134v-.881L48 78.1h.271l.339.61c.068.136.136.2.2.339.068-.136.136-.2.2-.339l.339-.61h.271l-.678 1.153v.881z" data-name="Path 118" transform="translate(-15.421 -25.176)"/>
        <path id="Path_119" d="M73.164 30.317l1.288-.068c.475-.068 1.356.881 1.492 1.085l.068.746c.068.542-.407 1.56-1.153 1.56a2.936 2.936 0 0 1-.339-.068c-.136 0-.068 0-.068.068l-.678.068c-.2-.068-.407-.339-.542-.339s-.068.068-.2.136c-.136 0 0-.068-.136-.068s-.068.068-.2.136c-.339 0 0-.339-.61-.2 0-.068.068-.068.068-.136-.068-.068-.068-.136-.2-.136 0-.068.068-.068.068-.136a1.535 1.535 0 0 1-.271-.61c0-.136.068-.068.068-.2s-.136-.068-.136-.136c.271-.136.136-.61.271-.746a3.475 3.475 0 0 1 1.221-.949M83.47 31.4c.068.068.136.136.2.136.068-.136.136-.068.2-.136zm-10.781-1.354c-.136 0-.068.068-.136.136h-.61c-.136 0 .068.068-.068.068l-.61.068c-.136 0-.068-.068-.136-.068a.746.746 0 0 1-.407.2l-.678.068c-.61.271-2.238 1.017-2.373 1.017s-.068-.068-.136-.068c-.136 0-1.763.949-1.9 1.424a.993.993 0 0 1 .746.407 4.578 4.578 0 0 0 .949.136v.136c.068 0 .068-.068.2-.068a24.581 24.581 0 0 1 3.051.746l.881-.068c.136 0 0 .068.136.068s-.068-.068.068-.068a4.322 4.322 0 0 1 .475.136l.814-.068c.136 0 0 .068.136.068s-.068-.068.068-.068 0 .068.136.068l1.017-.068c.136 0-.068-.068.068-.068l1.763-.136c2.441-.814 4.814-1.7 7.255-2.577v-.136c-1.7-.339-3.458-.61-5.085-.949v-.136h-.2c0 .068 0 .068-.068.068-.136 0-.136-.068-.2-.068 0 .068.068.068-.068.068s-.068-.136-.068-.2c-.542.068-.746-.136-1.153-.068l-.949.068c-.136 0-.068-.068-.136-.068 0 .068 0 .068-.068.068a11.162 11.162 0 0 0-1.424-.136c-.136 0-.068.068-.136.136l-.746.068c-.339-.068-.271-.136-.407-.136m3.662-.678l-.136.136h.61c2.441.271 5.018.949 7.391 1.424.136.068.2.271.339.339v.271a.066.066 0 0 0-.068.068c-.068 0-.068-.068-.136-.068-.542.746-1.831.746-2.78 1.221a.249.249 0 0 0-.2-.068l-5.221 1.7-.542.068c-.136 0 .068.068-.068.068l-1.017.068c-.136 0 0-.068-.136-.068h-.678c-.136 0 0-.068-.136-.068l-1.22.068c-.136 0 0-.068-.136-.068l-.678.068c0-.068 0-.068-.136-.068s-.068 0-.068.068c-.068 0 0-.068-.136-.068l-.61.068a1.064 1.064 0 0 1-.61-.068 12.713 12.713 0 0 0-1.356-.339l-.746.068a4.721 4.721 0 0 0-1.7-.339c-.2-.271-.678-.271-.881-.339h-.136s.136.068.136.136a.573.573 0 0 1-.407-.136.514.514 0 0 0 .271-.136c-.475-.068-1.288 0-1.7-.339h.139c.068-.068.068 0 0-.068 0-.136-.136-.2-.2-.271.2 0 .339-.136.542-.136.271-.136 0-.542.407-.746a37.774 37.774 0 0 1 5.9-2.1l.949-.068c.136 0 .068-.068.136-.136l1.288-.136h3.729zm-7.12 0l-.132.132a3.439 3.439 0 0 0-.61-.136l-.881.068a.237.237 0 0 0-.136-.068zm-2.373 0l.068.068v.136c-.068 0-.068-.068-.2-.068a1.436 1.436 0 0 0-.475.2c.068-.136.2-.2.271-.271h-.678c0 .068-.136.136-.136.271s.068 0 .136.068c0 .136-.068.068-.068.068 0 .068.068.068.2.068-.068.068-.068.2-.136.271 0-.136-.136-.136-.136-.271s.068 0 .068-.136-.068 0-.136-.068c0-.136.136.068.068-.068V29.5c-.136 0-.271-.136-.339-.068-.136 0 0 .068-.068.068h-.136a.249.249 0 0 0-.068-.2h1.763z" data-name="Path 119" transform="translate(-20.379 -9.465)"/>
        <path id="Path_120" d="M82.133 22a.352.352 0 0 1-.271.136v.136A.237.237 0 0 0 82 22.2l.068.068c-.068.072-.068.072-.068.14.068 0 .068 0 .136.068a.514.514 0 0 0 .136-.271c-.136-.068-.136-.136-.136-.2m-16.206.678c0 .068-.068.136-.068.2h.271c-.068-.136-.136-.271-.2-.2m-1.22.068a.408.408 0 0 0 .271.068c-.068-.068-.136-.068-.271-.068M82 21.052a.508.508 0 0 0 .339.068c-.068-.136-.2-.136-.339-.068m-8.2-1.492a.716.716 0 0 0-.339.136l-.746.068c0 .136-.271.271-.407.2a.146.146 0 0 0 .136.136l-.2.068c-.068-.068-.136-.136-.2-.136a1.85 1.85 0 0 1-.881.475v.2h-.136c-.068-.068-.068-.068-.136-.068a.451.451 0 0 1-.339.271c-.136 0 0-.068-.136-.068l-.2-.068a6.847 6.847 0 0 1-1.085.881c-.068-.068-.068-.068-.2-.068-.407.068-.542.2-.814.61.068 0 .068 0 .136.068v.068a.249.249 0 0 1-.068-.2h-.407c-.2.136-.61.271-.881.407-.068.068-.068 0-.068-.068h-.271c-.068.136-.2.068-.271.136a.514.514 0 0 1-.136.271 1.6 1.6 0 0 0-1.017.475l.866-.065c.136 0-.068-.068.068-.068l1.56-.136c.136 0 .068.068.2.068s.068-.068.2-.136c.136 0 .068.068.2.068s.136-.068.271-.136a14.952 14.952 0 0 1 2.17.475l.678-.068c.068.068.136.136.136.2l.678-.068c.136 0 .271.136.407.136l.746-.068c.136 0 0 .068.136.068l.475-.068c-.407-.136-.881-.136-1.085-.475a.352.352 0 0 1-.271.136h-.2c-.068-.542-.475-.542-.475-.949l-.068-.678c-.068-.542 1.288-1.763 1.9-1.831l1.084-.059c.61-.068 2.305.339 2.373 1.221l.068.881a1.9 1.9 0 0 1-.068.407h-.271c.068.2 0 .475-.271.475.068.068.136.068.2.136-.068.068-.2.068-.271.136v.136c.068 0 .068 0 .136.068-.068.068-.068-.068-.136-.068-.271 0-.407.339-.61.542v.136h.2c0-.068-.068-.068.068-.068l.814-.068c.2-.136.61-.2.746-.339.068.068.2.2.271.136a8.3 8.3 0 0 0 1.56-.678c.475-.068.881-.475 1.153-.475.136 0 .136.068.2.068.068-.068.339-.475.475-.475s.136.068.2.068a.41.41 0 0 1 .407-.2 10.566 10.566 0 0 1-1.356-1.085c-1.085-.407-3.8-1.288-3.933-1.288l-.61.068c-.136 0-.068.068-.136.068l-.068-.068c.068-.068.068-.068.068-.136l-.678.068c0 .068 0 .068-.136.068h-.136v-.136h-.259c0 .136-.136.068-.271.136a1.14 1.14 0 0 1-.746.136m-2.509-.136a.432.432 0 0 0 .407 0 .432.432 0 0 0-.407 0m2.373-.271a.518.518 0 0 0 .339.136v-.2zm.678-.136c.2.068.339.136.542.2 0-.136.068-.2.068-.271zm-.542-4.611a.716.716 0 0 0-.339.136l-.746.068c-.136.2-.475.2-.678.2-.136 0 0-.068-.136-.068s-.2.136-.339.136a.508.508 0 0 0 .339.068c0 .068-.136.068-.271.068a.508.508 0 0 1-.339-.068v.2h-.136c-.068-.068-.068-.068-.136-.068a41.372 41.372 0 0 1-3.865 1.966c0 .068.136.068.136.136v.068a.249.249 0 0 1-.068-.2h-.2c-.475.339-1.085.949-1.56 1.356.271 0 2.712.407 3.119.339l.881-.068c.136 0 0 .068.136.068l.814-.068c.136 0 .407.136.61.136a5.033 5.033 0 0 0 1.085-.2 7.847 7.847 0 0 1-.746-1.085l-.068-.746a2.437 2.437 0 0 1 1.966-2.1l.949-.068c.2 0 1.085.2 1.085.407A21.723 21.723 0 0 1 74 18.34l1.085-.068c.068 0 .542.068.542.271v.068c-.136 0-.2.136-.339.136l.271.068c0-.068-.068-.068.068-.068s.068.068.2.068.61-.407.881-.407c.136 0 0 .068.136.068l2.916-.2c0-.068 0-.068.068-.068.136 0 .136.068.2.068 0-.068-.068-.068.068-.068l.949-.068c.814-.271 2.848-1.153 2.983-1.153h.136c0 .068-.068.068-.068.136h.2a.521.521 0 0 1 .136-.2l.068.068c-.068.068-.068.068-.068.136a1.324 1.324 0 0 1 .475.068c.068-.136.136-.068.2-.136 0-.068-.136-.068-.136-.136l.068-.068c.068.068.068.068.136.068v-.143c-.068 0-.068 0-.136-.068-.2.068-.271.136-.407.136 0 .068.136.068.136.136l-.2.068c-.136-.136-.136-.068-.271-.2.068-.068.068-.068.068-.136h-.2c0 .068 0 .068-.068.068a.352.352 0 0 1 .136-.271c-.136-.068-.2-.2-.271-.271v.271c.068 0 .068 0 .068.068l-.068.068a.936.936 0 0 1-.2-.271 2.667 2.667 0 0 1-.407.136c-.271 0-5.289-1.288-7.12-1.56v-.136c-.068 0-.068.068-.2.068h-.136c0-.068.068-.068.068-.136-.542.068-.746-.136-1.153-.068-.136 0-.2.068-.339.136v-.136c0-.068.068-.068.068-.136a3.5 3.5 0 0 0-.746-.136m-8.48 10.032a.5.5 0 0 0-.407-.339c-.136 0-.271.136-.407.2h-.2c.271-.407.407-.746.746-.949h-.271v-.2a.249.249 0 0 0 .2-.068h-.271a.518.518 0 0 0-.339.136v-.272q.305.2.407 0c-.068 0-.271 0-.339-.068.814-.814 2.509-.814 3.458-1.627.407-.068.881-.542 1.153-.542.136 0 .068.068.136.068.136 0 .814-.542.949-.542s0 .068.136.068.475-.339.746-.407a6.219 6.219 0 0 0 1.56-.61c.068 0 0 .068.136.068h.339v-.2l-.881.068s-.2.136-.2.271l-.949.068c-.136 0-.407.2-.542.2s-.068-.068-.2-.068-.068 0-.068.068H70a.237.237 0 0 1 .068-.136 8.294 8.294 0 0 0-1.153-.2c-.136 0 .068.068-.068.068h-.136v-.136h-.136c-.136 0-.068.068-.271.068a.249.249 0 0 0 .2-.068.352.352 0 0 0-.271-.136l-.881.068c-.068.068 0 .068-.136.136a4.141 4.141 0 0 1-.881-.2.352.352 0 0 1-.271.136c-.136 0-.136-.068-.271-.068l-.881.068c.136-.2.339-.136.475-.271-.136 0-.339-.068-.475-.068s-.136.068-.2.136c-.068-.136-.136-.136-.271-.2v-.271a19.791 19.791 0 0 1 7.255-4.272l.949-.068c.136 0-.068-.068.068-.068l.61-.068c.068-.068 0-.068.136-.136.136 0 .068.068.2.068s.068-.068.2-.136c.136 0 .068.068.136.068.136 0-.068-.068.068-.068a2.208 2.208 0 0 1 .814.407c.136 0 .271-.136.407-.136 1.56-.136 7.8 1.627 8.069 1.7v.118c.814.068 1.492.542 2.305.678v.136l-.746.746c-.068 0 0-.068-.136-.068l-1.7.136a3.906 3.906 0 0 0-1.424.475l-.678.068c-.136 0-.271.2-.407.2s-.068-.068-.136-.068c-.136 0-.407.2-.542.2s-.068-.068-.136-.068c-.136 0-.136.136-.271.136s-.271-.068-.407-.068-.2.136-.339.136-.136-.068-.271-.068-.136.068-.271.136a2.937 2.937 0 0 1-.339-.068l-1.627.136a.352.352 0 0 0 .271.136l.678-.068c.2.2.678.068 1.017.2 1.017.407 1.966.61 2.983.949.271.136 1.627 1.085 1.831 1.017.136 0 .136-.068.271-.136.136 0 .2.068.339.068v.136c-.068 0-.068-.068-.136-.068-.068.068-.136.068-.136.2a.237.237 0 0 1-.136-.068v.271c-.068 0-.068-.068-.136-.068-.271.068-.542-.068-.542.339a.237.237 0 0 1-.136-.068c-.068.068 0 0 0 .136s0 .136.2.136c0 .068-.068.068-.068.136.068.068.136.068.2.136a.249.249 0 0 0-.2.068h.271c.136 0 .271-.068.407-.068a2.324 2.324 0 0 0-.881.475c-.136 0-.068-.068-.068-.068-.136.271-.746.407-1.085.61l-.678.068a3.809 3.809 0 0 0-1.017.271c0 .068.136.068.136.136-.068 0-.068-.068-.136-.068h-.136c-.068.068 0 .136 0 .2a1.036 1.036 0 0 0-.678.271l-.949.068c-.136 0-.068 0-.068.068a.408.408 0 0 0-.271-.068.313.313 0 0 0-.339.2h-3.582s.068-.068-.068-.068l-.61.068c-.136 0 0-.068-.136-.068l-.678.068v-.136c-.136 0-.339-.068-.475-.068s-.136.136-.271.136-.678-.136-.814-.136-.136 0-.136.2h-.136c-.136 0-.068-.068-.068-.068-.068.068-.068.136-.136.136h-1.761a1.406 1.406 0 0 0-.407-.136c-.136 0-.136.068-.271.136z" data-name="Path 120" transform="translate(-20.669 -4.539)"/>
        <path id="Path_122" d="M36.575 72.7a.839.839 0 0 0-.136-.2v-.271h.068c-.068 0-.068 0-.068-.068V71.279h.068c-.068-.068-.068 0-.136-.068V70.8l-.068-.068a.237.237 0 0 0 .068-.136H36.3v-.136h.136s-.136-.068-.068-.136V69.783a.21.21 0 0 1 .068-.136l-.068.068v-.4h.068v-.345h-.068c.068 0 .068 0 .068-.068v-.339c0-.068.068-.136.068-.2v-.2h.068c-.068-.068-.068 0-.068-.068v-.2c0-.068.068-.068.068-.136v-.542c0-.068.068-.136 0-.136v-.136a.066.066 0 0 0-.068-.068.066.066 0 0 0-.068-.068h-.068V67l-.068.271V67.742a.237.237 0 0 0-.068.136V68.349l-.068.068v1.153l.068.542v.339h.068a.237.237 0 0 0-.068.136V71.058h-.068v.4a.066.066 0 0 1-.068.068.146.146 0 0 1 .136.136v.2l-.068.068V72.134H36.1v.407c.068 0 .068.068.068.136.068 0 .068.068.136.068.068.068.068.068.2.068 0 .068.068.068.068.136l.271.068a1.48 1.48 0 0 1-.268-.317z" class="cls-1" data-name="Path 122" transform="translate(-11.59 -21.538)"/>
        <path id="Path_123" d="M33.387 72.345a5.68 5.68 0 0 0-.136-.678c0-.136-.068-.2-.068-.271l-.136-.068.068-.068-.068-.068a.066.066 0 0 0 .068-.068l-.136-.136v-.068l-.068-.2h-.136v-.07l-.068-.068v-.136l-.136-.2v-.068l-.136-.136-.068-.068V69.9l-.068-.136-.068-.136h-.068v-.068c-.068-.068-.136-.2-.271-.339-.068-.068-.136-.068-.136-.136-.2-.136-.475-.407-.678-.542h-.068a.249.249 0 0 1-.2-.068v-.271h-.068c.068 0 .068 0 .068-.068V67.8c0-.068.068-.2.068-.271v-.2h.068c-.068-.068-.068 0-.068-.068V65.9a.683.683 0 0 0-.068-.2h-.068v.2l-.068.339v1.217s-.068.136 0 .136v.607h-.2l-.136.068c0 .136-.136.136-.136.2v.068a.249.249 0 0 0 .2.068s.136.068.136 0v.542l.068.678h.068l-.068.136v.542h-.068v.068l.068.271v.068a.066.066 0 0 1-.068.068c.068 0 .068.068.068.136v.2a.066.066 0 0 1-.068.068v.136a.066.066 0 0 1-.068.068v.407c.068.068.068.068.068.136.068.068.136.136.2.136h.068a.237.237 0 0 0 .068.136l.2.068a.976.976 0 0 0-.136-.2 3.193 3.193 0 0 1-.136-.339v-.2a.066.066 0 0 1 .068-.068c-.068 0-.068 0-.068-.068V70.65h.068c-.068-.068-.068 0-.068-.068v-.475a.237.237 0 0 1-.068-.136.237.237 0 0 0 .068-.136h-.068V69.7l.068.068a.237.237 0 0 1-.068-.136V68.75a.066.066 0 0 1 .068.068h.068a.066.066 0 0 1 .068.068c0-.068 0 0-.068-.068.068 0 .068.068.136.068.068.068.136 0 .2.068v.068h.068c.068 0 .068.068.136.068l.136.136c.136.136.407.339.475.407l.068.136v.068l.068.068.068.068a.066.066 0 0 0 .068.068v.136a.146.146 0 0 1 .136.136l.136.271v.136l.068.2.068.136v.136l.068.136.068.068a1.145 1.145 0 0 0 .136.339l.136.542v.136c.068 0 .068 0 .068.068s0 .068-.068.136h.136a.271.271 0 0 0 .142-.272z" class="cls-1" data-name="Path 123" transform="translate(-9.691 -21.184)"/>
        <path id="Path_124" d="M26.346 72.86c0 .068-.068.136-.068.2h.136a.408.408 0 0 1 .068-.271l-.136.068zm.746-2.848l-.068-.136-.068-.068c-.2-.136-.407-.068-.61-.136h-.406l-.068-.136V69.4a.066.066 0 0 1-.068-.068v-.068c0-.068 0-.136-.068-.136-.068-.136-.2-.339-.271-.475-.068-.068-.068-.136-.136-.2a3.727 3.727 0 0 0-.475-.61c.068 0 .068 0 .136-.068v-.068c.068-.136-.136-.136-.136-.271l-.136-.068c-.068 0-.136.068-.2.068a.352.352 0 0 0-.271-.136h-.136c0 .136-.2.136-.136.271a.066.066 0 0 0 .068.068.21.21 0 0 1 .136.068.066.066 0 0 0-.068.068 1.828 1.828 0 0 0-.475.542c-.068.068-.136.2-.2.271a2.11 2.11 0 0 0-.276.412c0 .068-.068.136-.068.2v.068a.066.066 0 0 1-.068.068l-.068.136-.068.136v.068l-.068.2-.068.2V70.547l-.068.068v.2h-.068v.068h-.136c-.068 0-.136.068-.2.136l-.407.407-.136.136c-.068.068-.068.2-.136.271h.068v.068h.068a.249.249 0 0 1 .068-.2c.068-.068.068 0 .136 0l.068-.068v-.068h.068l.136-.136a2.533 2.533 0 0 1 .475-.407v.2l-.068.136a.066.066 0 0 1 .068.068l-.068.068a.066.066 0 0 1 .068.068l-.136.136v1.085c0 .068.068.2.068.271h.068V73c0-.068-.068-.068-.068-.2v-.068l.068-.068v-1.899l.068-.068.136-.068a.237.237 0 0 1 .136-.068l.136-.068.2-.068.068-.068a.066.066 0 0 0 .068-.068h.068l.271-.136c.068 0 .136-.068.2-.068v-.068h.068v-.068h.068c.068-.068.068-.068.136-.068v.068l.068-.068h.068l.136-.068a4.667 4.667 0 0 1 .881-.136c0 .068.136 0 .136.068h.068a.066.066 0 0 0 .068.068v-.136c.068 0 .068 0 .136.068s.068.136.136.2l.068.271v.136a.066.066 0 0 0 .068.068v.068l.068.271.068.136V72.656c.068 0 .068 0 .068.068h.068a2.981 2.981 0 0 1 .068-.61v-.474l-.136-.136a.066.066 0 0 0 .068-.068l-.068-.068a.066.066 0 0 0 .068-.068l-.068-.136v-.407l-.068-.2v-.271l-.068-.2v-.068l-.068-.2h.136v.068c.136 0 .2 0 .271.068.068-.068.136 0 .2 0a.237.237 0 0 1 .136.068c.068.068.136.136.2.068.073.126-.063-.01.005-.078zm-1.763-.271a1.154 1.154 0 0 0-.475.068c-.068 0-.068 0-.136.068v.068h-.068l-.136.068-.136.068-.271.136h-.271l-.2.136h-.068l-.068.068h-.068l-.136.136-.2.136-.068.068h-.136v-.136a.066.066 0 0 1 .068-.068v-.136l.068-.271c0-.068.068-.136.068-.2l.068-.068v-.068c0-.068 0-.068.068-.068v-.2l.068-.146a.514.514 0 0 1 .136-.271 4.622 4.622 0 0 1 .339-.475c.068 0 .068-.068.136-.068h.068a.066.066 0 0 0 .068-.068h-.068v-.068c.068-.068.136 0 .2-.068 0-.068 0-.136.068-.136v.068a.066.066 0 0 1 .068-.068h.068c.068-.136.136-.136.271-.2a.146.146 0 0 1 .136.136h.068l.068.068v-.068c.068 0 .068.068.136.136 0 .068.136 0 .2.136h-.068a.066.066 0 0 1 .068.068h.068c.068 0 .068.136.136.136 0 0 .2.271.339.475.068.136.136.2.136.271v.271a1.505 1.505 0 0 0-.612.066z" class="cls-1" data-name="Path 124" transform="translate(-6.922 -21.699)"/>
        <path id="Path_125" d="M11.287 71.56c0 .068 0 .068-.068.068h-.068l-.068.068h-.068a.237.237 0 0 1-.136.068c-.136.068-.271.2-.339.2l-.068.068h-.068l-.068.068h-.066l-.136.068H10l-.136.068h-.408c-.068 0-.407-.068-.475-.068v-.136a.066.066 0 0 1 .068-.068c-.068 0-.068 0-.068-.068V71.018h.068c-.068-.068-.068 0-.068-.068v-.475a.237.237 0 0 1-.068-.136.21.21 0 0 1 .068-.136h-.067v-.136l.068.068A.237.237 0 0 1 8.914 70v-1.085l.068-.068V68.44h-.068c.068 0 .068 0 .068-.068v-.812h.068c-.068-.068-.068 0-.068-.068V66.2a.683.683 0 0 0-.068-.2h-.068v.2a.525.525 0 0 1-.068.2v.475l-.068.475V69.248l-.068.814v.271h.068l-.068.136V70.94h-.067v.407a.066.066 0 0 1-.068.068.237.237 0 0 1 .068.136V72.022a.237.237 0 0 1-.136-.068c-.068 0-.068 0-.068-.068a.066.066 0 0 1-.068-.068c-.068-.068-.068-.136-.136-.068-.068 0-.068.068-.068.136v.136c.136.068.339.068.407.136a.249.249 0 0 0 .2.068v.068a.237.237 0 0 1 .068.136c.136.068.136.2.271.136a.237.237 0 0 0 .068.136l.2.068-.2-.407a.066.066 0 0 0-.068-.068h.068c.068 0 .271.068.407 0h.28l.136-.068.136-.068h.128l.136-.068.136-.068h.136v-.068h.068V71.9h.068a1.419 1.419 0 0 0 .407-.271.066.066 0 0 0 .068-.068c.068.136.068.068.068 0z" class="cls-1" data-name="Path 125" transform="translate(-2.576 -21.281)"/>
        <path id="Path_126" d="M5.524 69.151l-.068-.136c-.2-.271-.475-.136-.678-.271h-.067c-.136 0-.271-.068-.407 0l-.068-.136v-.136a.066.066 0 0 1-.068-.068v-.068c0-.068-.068-.136-.068-.2a4.027 4.027 0 0 0-.271-.542c0-.068-.068-.068-.068-.136-.136-.2-.271-.475-.407-.678.068 0 0-.068-.068-.136a.146.146 0 0 0 .136-.136c.068-.2-.136-.136-.136-.339l-.135-.069c-.068 0-.136.068-.2.136a.352.352 0 0 0-.271-.136l-.136.068c0 .2-.2.136-.136.339 0 .136.068.136.2.136a.066.066 0 0 0-.068.068l-.136.136a5.963 5.963 0 0 0-.404.677c-.068.068-.068.136-.136.2a1.455 1.455 0 0 0-.271.475c0 .068-.068.136-.068.2v.068a.066.066 0 0 1-.068.068l-.068.2h.068v.068l-.068.339-.136.271v.068l-.068.339v.136a.066.066 0 0 1-.068.068V70.372H.981a3.44 3.44 0 0 0-.407.475 3.17 3.17 0 0 1-.339.407c-.068.068-.068.2-.136.339h.069v.068h.068a.249.249 0 0 1 .068-.2c.068-.068.068 0 .136 0l.068-.136v-.068h.067l.407-.407c.068-.136.2-.2.271-.271v.339l-.068.136a.066.066 0 0 1 .068.068l-.068.136a.066.066 0 0 1 .068.068l-.068.068-.068.068v1.356c0 .136.068.2.068.339h.068v-.068c0-.068-.068-.136-.068-.2s0-.068.068-.068v-2.306l.068-.068.136-.068.068-.068h.068l.136-.136.2-.136.071-.074h.068V69.9h.068l.271-.136c.068 0 .136-.068.2-.068v-.068h.068v-.068h.068c.068-.068.068-.068.136-.068v.068l.068-.068h.068l.136-.068a4.667 4.667 0 0 1 .881-.136c0 .068.136 0 .136.068h.068a.066.066 0 0 0 .068.068v-.136c.068-.068.068 0 .136.068s.068.2.136.271v.068l.068.271v.134a.066.066 0 0 0 .068.068v.332l.068.2v2.17c.068.068.068 0 .068.136 0 .068-.068.136-.068.2l.068.068h.068a2.937 2.937 0 0 1 .068-.339v-.068a2.809 2.809 0 0 1 .066-.667v-.61l-.068-.068-.2-.475a.066.066 0 0 0 .068-.068l-.068-.068a.066.066 0 0 0 .068-.068l-.068-.136-.068-.068v-.136l-.068-.271V69.761l-.136-.339v-.068l-.068-.2h.136v.068c.136-.068.2 0 .271.068.068-.068.136 0 .2 0a.237.237 0 0 1 .136.068c.068.068.136.136.2.068.068.068.068 0 .136 0 .003-.071-.064-.207.003-.275zm-1.763-.339a1.98 1.98 0 0 0-.61.136v.068h-.068l-.136.068-.136.068-.271.136-.271.136-.2.136H2a.066.066 0 0 1-.068.068h-.069l-.068.068-.136.136-.2.136h-.071v.068h-.135V69.9a.066.066 0 0 1 .068-.068v-.136l.068-.271v-.068a.683.683 0 0 1 .068-.2v-.068a.066.066 0 0 1 .068-.068v-.141c0-.136 0-.136.068-.136v-.2l.068-.136a.62.62 0 0 1 .2-.339 2.56 2.56 0 0 1 .339-.542c.068 0 .068-.068.136-.136a.066.066 0 0 0 .068-.068h-.066v-.068c0-.136.136-.068.2-.136 0-.068 0-.136.068-.136v.068c0-.068.068-.068.068-.136h.068c.068-.136.136-.2.271-.2a.146.146 0 0 1 .136.136h.068a.237.237 0 0 1 .068.136v-.136c.068 0 .068.068.136.136 0 .136.136 0 .2.136v.136l-.068.136a.066.066 0 0 0 .068.068.066.066 0 0 0 .068.068 3.02 3.02 0 0 0 .339.542 1.146 1.146 0 0 1 .136.339v.271c-.068.068-.136.068-.271.068a.21.21 0 0 1-.132.061z" class="cls-1" data-name="Path 126" transform="translate(0 -21.313)"/>
        <path id="Path_127" d="M48.957 70.436V70.3a.237.237 0 0 0-.068-.136l-.2-.2v-.475l-.068-.136v-.068l-.068-.2-.271-.271-.068-.136v-.136a.066.066 0 0 1-.068-.068V68.4c0-.068-.068-.136-.068-.2l-.2-.407c-.068-.068-.136-.2-.2-.271a3.761 3.761 0 0 0-.407-.542.237.237 0 0 1-.136-.068l-.2-.2c.068-.2-.136-.136-.136-.339l-.136-.068c-.271 0-.339.407-.61.475l-.068.068a5.964 5.964 0 0 0-.407.678c-.068.068-.068.136-.136.271a2.258 2.258 0 0 0-.2.407.408.408 0 0 0-.068.271v.068a.066.066 0 0 1-.068.068l-.068.2v.2l-.068.339-.068.2v.068h-.136v.068l-.068-.2a5.167 5.167 0 0 0-.881.475c-.068.068-.068.136-.136.2l-.068.068.068.068v.068h.068c0-.068.068-.068.068-.136l.068-.068.068-.068v-.068h.068l.814-.407v.618l-.068.271v.136l-.068.136v.068a.066.066 0 0 1 .068.068l-.068.136a.066.066 0 0 1 .068.068l-.2.068v1.356c0 .068.068.2.068.271h.068v-.068c0-.068-.068-.136-.068-.2 0-.068 0-.068.068-.068v-2.585a.066.066 0 0 1 .068-.068v-.271h.2l.136-.068.136-.068h.457l.271-.068a.249.249 0 0 1 .2.068v-.068h.271v.068h.271a.737.737 0 0 1 .339.068l.407.136c0 .068.068.068.136.136v.068a.066.066 0 0 0 .068.068v-.068h.068c.068 0 .068.136.136.136v.068c.068 0 .136 0 .136.068h-.063c.068 0 .068 0 .136.068v.068h.068c.068 0 .136.068.136.2.068 0 .136 0 .136.068l.068.068V72c.068.068.068 0 .068.068s-.068.136-.068.2h.136c0-.068.068-.2.068-.271v-.068a3.113 3.113 0 0 1 .068-.678v-.407l-.068-.068h.068c.133-.069.065-.276.201-.34zm-.61-.678a1.363 1.363 0 0 0-.542-.271.611.611 0 0 0-.339-.068 1.619 1.619 0 0 0-.61-.136h-.068a.066.066 0 0 1-.068-.068h-.814l-.2.068h-.271l-.2.068-.068.136h-.068l-.068-.068a.683.683 0 0 1 .068-.2v-.271c0-.136 0-.136.068-.136v-.342a1.049 1.049 0 0 1 .2-.407 5.263 5.263 0 0 0 .271-.475c.068 0 .068-.068.136-.136l.068.068v-.068a.066.066 0 0 0 .068-.068h-.068v-.068c0-.136.136-.068.2-.136 0-.068 0-.136.068-.136v.068a.066.066 0 0 1 .068-.068h.068q.1-.2.2-.2c0-.068 0-.068.068-.136a.237.237 0 0 0 .136.068c.068.068.136.068.136.136.068 0 .2.068.2.136h.068l.068.068v-.068c.068 0 .068.068.136.136 0 .068.136.068.136.068v.136h-.068a.066.066 0 0 1 .068.068h.068c.068 0 .068.136.136.136l.271.407c.068.136.2.271.2.339v.2l.068.068v.068a.066.066 0 0 0 .068.068v.136c.068.068.068.136.136.2l.068.2v.2a.066.066 0 0 0 .068.068v.136c-.063.144-.063.076-.131.076zm-3.526-.271z" class="cls-1" data-name="Path 127" transform="translate(-14.005 -21.377)"/>
        <path id="Path_128" d="M43.019 71.228c0 .068 0 .068-.068.068h-.068l-.068.068h-.068s-.339.2-.475.271h-.068l-.068.068h-.066l-.07.067-.068.068H41.6l-.136.068h-.475c-.068 0-.407-.068-.475-.068V71.7a.066.066 0 0 1 .068-.068c-.068 0-.068 0-.068-.068V70.615h.068c-.068-.068-.068 0-.068-.068V70.072a.237.237 0 0 1-.068-.136.237.237 0 0 0 .068-.136h-.068v-.136l.068.068a.237.237 0 0 1-.068-.136v-.95l.068-.068v-.475h-.068c.068 0 .068 0 .068-.068V67.7c0-.068.068-.2.068-.271v-.2h.068c-.068-.068-.068 0-.068-.068v-.2c0-.068.068-.136 0-.136V65.8a.683.683 0 0 0-.068-.2h-.068v.2l-.068.339V68.987l.068.678v.068h.068l-.068.136V70.412h-.068v.068l.068.271v.068a.066.066 0 0 1-.068.068c.068 0 .068.068.068.136v.2a.066.066 0 0 1-.068.068v.2h-.068l-.068-.068c-.068 0-.068 0-.068-.068L40.1 71.3c-.068-.068-.068-.136-.136-.068-.068 0 0 .136-.068.2v.068c.068.136.271.136.339.271a.249.249 0 0 0 .2.068v.068c.068.068.068.068.068.136l.136.136h.136a.237.237 0 0 0 .068.136l.2.068-.136-.271a.514.514 0 0 1-.136-.271h.068c.068 0 .271.068.407 0h.271l.136-.068.147-.073h.136l.136-.068.136-.068h.136V71.5h.068v-.068h.068c.068 0 .136-.068.2-.136a2.65 2.65 0 0 1 .339-.271c-.068.339 0 .271 0 .2z" class="cls-1" data-name="Path 128" transform="translate(-12.813 -21.152)"/>
        <path id="Path_129" d="M35.768 66.078c.136 0 .271.068.271.136.068 0 0-.068.068-.068s.068.068.136.068c.271 0 .339-.2.339-.475 0-.136-.271-.339-.475-.339-.068 0-.068.068-.136.068s-.068-.068-.136-.068c0 .068 0 .068-.068.068L35.7 65.4v.407c.136.068.068.203.068.271z" class="cls-1" data-name="Path 129" transform="translate(-11.461 -21.087)"/>
        <path id="Path_130" d="M20.718 67.838c-.2-.2-.475-.068-.746-.2a2.585 2.585 0 0 0-1.017.068 1.98 1.98 0 0 0-.61.136v.068h-.2l-.136.068-.2.136-.136.068H17.6l-.2.136h-.068l-.068.068c0-.068.068-.136 0-.2-.136-.068-.136.068-.271.068l-.068.136c0 .068-.068.2-.068.271h-.068v-.068l.068-.068v-.475h-.068c.068 0 .068 0 .068-.068v-.339c0-.068.068-.2.068-.271V67.16h.068c-.068-.068-.068 0-.068-.068V65.8a.683.683 0 0 0-.068-.2h-.068v.2l-.068.339v2.644h-.136a2.231 2.231 0 0 0-.407.407l-.339.339c-.068.068-.068.2-.136.271v.068h.068c0-.068 0-.136.068-.136.068-.068.068 0 .136 0l.068-.068V69.6h.068l.339-.339.271-.271v.271l.068.542h.068l-.068.068-.068.068v.542h-.068v.068l.068.2v.068a.066.066 0 0 1-.068.068l.068.068v.271a.066.066 0 0 1-.068.068v.136a.066.066 0 0 1-.068.068V71.967c.068.068.068.068.068.136.136.068.136.2.271.2 0 .068 0 .068.068.136l.2.068a.21.21 0 0 0-.068-.136l-.2-.407v-.2a.066.066 0 0 1 .068-.068c-.068 0-.068 0-.068-.068V70.679h.068c-.068-.068-.068 0-.068-.068v-.475a.237.237 0 0 1-.068-.136.066.066 0 0 1 .068-.068h-.068V69.8l.068.068a.237.237 0 0 1-.068-.136V68.925h.068l.068-.068c0 .136.068.271.068.407v.068a2.834 2.834 0 0 0 .271.678c0 .068.068.136.068.2a1.436 1.436 0 0 0 .2.475c0 .068.068.068.068.136h.068v.068l.068.136.136.136.136.136.136.136.068.068.2.136v.063c0 .068 0 0 .068 0v.068h.068l.068.068.068.068.136.136v.068h.068l.068.136.068-.068.068.136.068-.068.068.136a.976.976 0 0 1 .2.136 6.387 6.387 0 0 0 .678.271h.271v-.067l-.068-.068c-.068 0-.136.068-.136 0-.068-.068 0 0 0-.136a.21.21 0 0 1-.136-.068h-.064a4.458 4.458 0 0 1-.814-.407l-.136-.068-.068-.068-.136-.068-.136-.068-.136-.136h-.068a.066.066 0 0 0-.068-.068l-.2-.2c-.068 0-.068-.068-.136-.136v-.069h-.068v-.068l-.068-.068-.068-.068-.2-.339-.068-.068a6.3 6.3 0 0 1-.339-.678v-.339h-.071c-.068-.068 0-.2 0-.271l-.068-.068v-.068l.068.068a.066.066 0 0 0-.068-.068l.068-.068a.3.3 0 0 1 0-.339c-.068-.068-.068-.068-.068-.2v-.068l.068-.068a.066.066 0 0 0 .068-.068h.072l.271-.136c.068 0 .136-.068.2-.068v-.068h.068v-.068h.068c.068-.068.068-.068.136-.068v.068l.068-.068h.068l.136-.068a4.666 4.666 0 0 1 .881-.136c0 .068.136 0 .136.068h.068a.066.066 0 0 0 .068.068V67.7c.068-.068.136.068.2.068v.068c.068 0 .136-.068.136 0v.068c.136 0 .2 0 .271.068.068-.068.136 0 .2 0a.237.237 0 0 1 .136.068c.068.068.136.136.2.068.136-.068 0-.136.068-.271h-.068z" class="cls-1" data-name="Path 130" transform="translate(-5.022 -21.152)"/>
    </g>
</svg>
